G75*
%MOIN*%
%OFA0B0*%
%FSLAX25Y25*%
%IPPOS*%
%LPD*%
%AMOC8*
5,1,8,0,0,1.08239X$1,22.5*
%
%ADD10R,0.08799X0.04799*%
%ADD11R,0.08661X0.14173*%
%ADD12R,0.06299X0.05512*%
%ADD13R,0.03150X0.04724*%
%ADD14R,0.04724X0.03150*%
%ADD15R,0.04724X0.04724*%
%ADD16R,0.03937X0.14961*%
%ADD17R,0.42323X0.37205*%
%ADD18R,0.15157X0.21654*%
%ADD19R,0.09449X0.07087*%
%ADD20R,0.06299X0.15354*%
%ADD21R,0.15354X0.06299*%
%ADD22R,0.06299X0.10630*%
%ADD23R,0.07000X0.20000*%
%ADD24R,0.20000X0.07000*%
%ADD25R,0.01600X0.04000*%
%ADD26R,0.01181X0.05906*%
%ADD27R,0.05906X0.01181*%
%ADD28R,0.01181X0.06496*%
%ADD29R,0.07795X0.06811*%
%ADD30R,0.07087X0.06299*%
%ADD31R,0.05512X0.11811*%
D10*
X0148201Y0103902D03*
X0148201Y0113000D03*
X0148201Y0122098D03*
D11*
X0123799Y0113000D03*
D12*
X0088000Y0086512D03*
X0088000Y0075488D03*
D13*
X0103957Y0089000D03*
X0111043Y0089000D03*
X0158757Y0153800D03*
X0165843Y0153800D03*
X0165843Y0167000D03*
X0158757Y0167000D03*
X0158457Y0175000D03*
X0152043Y0175000D03*
X0144957Y0175000D03*
X0165543Y0175000D03*
X0244457Y0157500D03*
X0251543Y0157500D03*
X0134543Y0262300D03*
X0127457Y0262300D03*
X0083943Y0271600D03*
X0076857Y0271600D03*
X0060043Y0282000D03*
X0052957Y0282000D03*
X0054443Y0247900D03*
X0047357Y0247900D03*
X0070457Y0014500D03*
X0077543Y0014500D03*
D14*
X0113000Y0050957D03*
X0113000Y0058043D03*
X0198000Y0109957D03*
X0198000Y0117043D03*
X0216600Y0187957D03*
X0223200Y0187957D03*
X0230000Y0187957D03*
X0236500Y0187957D03*
X0243000Y0187957D03*
X0243000Y0195043D03*
X0236500Y0195043D03*
X0230000Y0195043D03*
X0223200Y0195043D03*
X0216600Y0195043D03*
X0208600Y0192957D03*
X0208600Y0200043D03*
X0251500Y0203043D03*
X0251500Y0209957D03*
X0251500Y0217043D03*
X0251500Y0195957D03*
X0118000Y0196543D03*
X0118000Y0189457D03*
X0040500Y0247357D03*
X0040500Y0254443D03*
D15*
X0054866Y0301000D03*
X0063134Y0301000D03*
D16*
X0056386Y0176870D03*
X0049693Y0176870D03*
X0043000Y0176870D03*
X0036307Y0176870D03*
X0029614Y0176870D03*
D17*
X0043000Y0137500D03*
D18*
X0053835Y0211500D03*
X0108165Y0211500D03*
D19*
X0039200Y0214472D03*
X0039200Y0198528D03*
D20*
X0097500Y0141732D03*
X0097500Y0108268D03*
D21*
X0104870Y0168000D03*
X0076130Y0168000D03*
D22*
X0122488Y0133000D03*
X0133512Y0133000D03*
X0134512Y0093000D03*
X0123488Y0093000D03*
D23*
X0045300Y0061500D03*
X0019300Y0061500D03*
D24*
X0162500Y0061500D03*
X0162500Y0087500D03*
X0162000Y0228000D03*
X0162000Y0254000D03*
D25*
X0237100Y0222200D03*
X0239700Y0222200D03*
X0242300Y0222200D03*
X0244900Y0222200D03*
X0244900Y0204600D03*
X0242300Y0204600D03*
X0239700Y0204600D03*
X0237100Y0204600D03*
D26*
X0217748Y0178941D03*
X0215780Y0178941D03*
X0213811Y0178941D03*
X0211843Y0178941D03*
X0209874Y0178941D03*
X0207906Y0178941D03*
X0205937Y0178941D03*
X0203969Y0178941D03*
X0202000Y0178941D03*
X0200031Y0178941D03*
X0198063Y0178941D03*
X0196094Y0178941D03*
X0194126Y0178941D03*
X0192157Y0178941D03*
X0190189Y0178941D03*
X0188220Y0178941D03*
X0188220Y0134059D03*
X0190189Y0134059D03*
X0192157Y0134059D03*
X0194126Y0134059D03*
X0196094Y0134059D03*
X0198063Y0134059D03*
X0200031Y0134059D03*
X0202000Y0134059D03*
X0203969Y0134059D03*
X0205937Y0134059D03*
X0207906Y0134059D03*
X0209874Y0134059D03*
X0211843Y0134059D03*
X0213811Y0134059D03*
X0215780Y0134059D03*
X0217748Y0134059D03*
D27*
X0225425Y0141736D03*
X0225425Y0143705D03*
X0225425Y0145673D03*
X0225425Y0147642D03*
X0225425Y0149610D03*
X0225425Y0151579D03*
X0225425Y0153547D03*
X0225425Y0155516D03*
X0225425Y0157484D03*
X0225425Y0159453D03*
X0225425Y0161421D03*
X0225425Y0163390D03*
X0225425Y0165358D03*
X0225425Y0167327D03*
X0225425Y0169295D03*
X0225425Y0171264D03*
X0180543Y0171264D03*
X0180543Y0169295D03*
X0180543Y0167327D03*
X0180543Y0165358D03*
X0180543Y0163390D03*
X0180543Y0161421D03*
X0180543Y0159453D03*
X0180543Y0157484D03*
X0180543Y0155516D03*
X0180543Y0153547D03*
X0180543Y0151579D03*
X0180543Y0149610D03*
X0180543Y0147642D03*
X0180543Y0145673D03*
X0180543Y0143705D03*
X0180543Y0141736D03*
D28*
X0125937Y0076555D03*
X0123969Y0076555D03*
X0122000Y0076555D03*
X0120031Y0076555D03*
X0118063Y0076555D03*
X0118063Y0058445D03*
X0120031Y0058445D03*
X0122000Y0058445D03*
X0123969Y0058445D03*
X0125937Y0058445D03*
X0088937Y0039555D03*
X0086969Y0039555D03*
X0085000Y0039555D03*
X0083031Y0039555D03*
X0081063Y0039555D03*
X0081063Y0021445D03*
X0083031Y0021445D03*
X0085000Y0021445D03*
X0086969Y0021445D03*
X0088937Y0021445D03*
X0072937Y0242445D03*
X0070969Y0242445D03*
X0069000Y0242445D03*
X0067031Y0242445D03*
X0065063Y0242445D03*
X0065063Y0260555D03*
X0067031Y0260555D03*
X0069000Y0260555D03*
X0070969Y0260555D03*
X0072937Y0260555D03*
X0108063Y0260555D03*
X0110031Y0260555D03*
X0112000Y0260555D03*
X0113969Y0260555D03*
X0115937Y0260555D03*
X0115937Y0242445D03*
X0113969Y0242445D03*
X0112000Y0242445D03*
X0110031Y0242445D03*
X0108063Y0242445D03*
D29*
X0112000Y0251500D03*
X0069000Y0251500D03*
X0122000Y0067500D03*
X0085000Y0030500D03*
D30*
X0200000Y0191988D03*
X0200000Y0203012D03*
D31*
X0063000Y0022051D03*
X0063000Y0040949D03*
X0097000Y0047051D03*
X0097000Y0065949D03*
X0133000Y0233051D03*
X0133000Y0251949D03*
X0090000Y0245051D03*
X0090000Y0263949D03*
M02*
