G75*
%MOIN*%
%OFA0B0*%
%FSLAX25Y25*%
%IPPOS*%
%LPD*%
%AMOC8*
5,1,8,0,0,1.08239X$1,22.5*
%
%ADD10C,0.13398*%
%ADD11R,0.09599X0.05599*%
%ADD12R,0.09461X0.14973*%
%ADD13R,0.07099X0.06312*%
%ADD14R,0.03950X0.05524*%
%ADD15R,0.05524X0.03950*%
%ADD16R,0.05524X0.05524*%
%ADD17R,0.04737X0.15761*%
%ADD18R,0.43123X0.38005*%
%ADD19R,0.15957X0.22454*%
%ADD20R,0.10249X0.07887*%
%ADD21R,0.07099X0.16154*%
%ADD22R,0.16154X0.07099*%
%ADD23R,0.07296X0.07296*%
%ADD24C,0.07296*%
%ADD25C,0.26200*%
%ADD26C,0.06800*%
%ADD27OC8,0.06800*%
%ADD28R,0.07099X0.11430*%
%ADD29R,0.06800X0.06800*%
%ADD30R,0.07800X0.20800*%
%ADD31R,0.20800X0.07800*%
%ADD32R,0.02400X0.04800*%
%ADD33R,0.01378X0.06398*%
%ADD34R,0.06398X0.01378*%
%ADD35R,0.01981X0.07296*%
%ADD36R,0.08595X0.07611*%
%ADD37C,0.08200*%
%ADD38R,0.07887X0.07099*%
%ADD39R,0.06312X0.12611*%
%ADD40OC8,0.08200*%
%ADD41C,0.00500*%
%ADD42C,0.04369*%
%ADD43C,0.04800*%
%ADD44C,0.04762*%
%ADD45C,0.03400*%
%ADD46C,0.05550*%
%ADD47C,0.05800*%
D10*
X0032000Y0089000D03*
X0044500Y0232000D03*
D11*
X0148201Y0122098D03*
X0148201Y0113000D03*
X0148201Y0103902D03*
D12*
X0123799Y0113000D03*
D13*
X0088000Y0086512D03*
X0088000Y0075488D03*
D14*
X0103957Y0089000D03*
X0111043Y0089000D03*
X0158757Y0153800D03*
X0165843Y0153800D03*
X0165843Y0167000D03*
X0158757Y0167000D03*
X0158457Y0175000D03*
X0152043Y0175000D03*
X0144957Y0175000D03*
X0165543Y0175000D03*
X0244457Y0157500D03*
X0251543Y0157500D03*
X0134543Y0262300D03*
X0127457Y0262300D03*
X0083943Y0271600D03*
X0076857Y0271600D03*
X0060043Y0282000D03*
X0052957Y0282000D03*
X0054443Y0247900D03*
X0047357Y0247900D03*
X0070457Y0014500D03*
X0077543Y0014500D03*
D15*
X0113000Y0050957D03*
X0113000Y0058043D03*
X0198000Y0109957D03*
X0198000Y0117043D03*
X0216600Y0187957D03*
X0223200Y0187957D03*
X0230000Y0187957D03*
X0236500Y0187957D03*
X0243000Y0187957D03*
X0243000Y0195043D03*
X0236500Y0195043D03*
X0230000Y0195043D03*
X0223200Y0195043D03*
X0216600Y0195043D03*
X0208600Y0192957D03*
X0208600Y0200043D03*
X0251500Y0203043D03*
X0251500Y0209957D03*
X0251500Y0217043D03*
X0251500Y0195957D03*
X0118000Y0196543D03*
X0118000Y0189457D03*
X0040500Y0247357D03*
X0040500Y0254443D03*
D16*
X0054866Y0301000D03*
X0063134Y0301000D03*
D17*
X0056386Y0176870D03*
X0049693Y0176870D03*
X0043000Y0176870D03*
X0036307Y0176870D03*
X0029614Y0176870D03*
D18*
X0043000Y0137500D03*
D19*
X0053835Y0211500D03*
X0108165Y0211500D03*
D20*
X0039200Y0214472D03*
X0039200Y0198528D03*
D21*
X0097500Y0141732D03*
X0097500Y0108268D03*
D22*
X0104870Y0168000D03*
X0076130Y0168000D03*
D23*
X0074890Y0064000D03*
X0102000Y0021500D03*
X0122000Y0021500D03*
X0262000Y0232000D03*
X0122000Y0271500D03*
X0102000Y0281500D03*
D24*
X0102000Y0291500D03*
X0112000Y0291500D03*
X0112000Y0281500D03*
X0122000Y0281500D03*
X0122000Y0291500D03*
X0132000Y0291500D03*
X0132000Y0281500D03*
X0132000Y0271500D03*
X0142000Y0271500D03*
X0142000Y0281500D03*
X0142000Y0291500D03*
X0152000Y0291500D03*
X0152000Y0281500D03*
X0152000Y0271500D03*
X0162000Y0271500D03*
X0162000Y0281500D03*
X0162000Y0291500D03*
X0172000Y0291500D03*
X0182000Y0291500D03*
X0182000Y0281500D03*
X0172000Y0281500D03*
X0172000Y0271500D03*
X0182000Y0271500D03*
X0192000Y0271500D03*
X0192000Y0281500D03*
X0192000Y0291500D03*
X0202000Y0291500D03*
X0202000Y0281500D03*
X0202000Y0271500D03*
X0212000Y0271500D03*
X0212000Y0281500D03*
X0212000Y0291500D03*
X0222000Y0291500D03*
X0222000Y0281500D03*
X0222000Y0271500D03*
X0232000Y0271500D03*
X0232000Y0281500D03*
X0232000Y0291500D03*
X0242000Y0291500D03*
X0242000Y0281500D03*
X0242000Y0271500D03*
X0252000Y0271500D03*
X0252000Y0281500D03*
X0252000Y0291500D03*
X0262000Y0291500D03*
X0262000Y0281500D03*
X0262000Y0271500D03*
X0272000Y0271500D03*
X0272000Y0281500D03*
X0272000Y0291500D03*
X0282000Y0291500D03*
X0282000Y0281500D03*
X0282000Y0271500D03*
X0272000Y0232000D03*
X0272000Y0222000D03*
X0272000Y0212000D03*
X0272000Y0202000D03*
X0272000Y0192000D03*
X0262000Y0192000D03*
X0262000Y0202000D03*
X0262000Y0212000D03*
X0262000Y0222000D03*
X0262000Y0182000D03*
X0262000Y0172000D03*
X0262000Y0162000D03*
X0262000Y0152000D03*
X0262000Y0142000D03*
X0262000Y0132000D03*
X0272000Y0132000D03*
X0272000Y0142000D03*
X0272000Y0152000D03*
X0272000Y0162000D03*
X0272000Y0172000D03*
X0272000Y0182000D03*
X0272000Y0122000D03*
X0272000Y0112000D03*
X0272000Y0102000D03*
X0272000Y0092000D03*
X0272000Y0082000D03*
X0262000Y0082000D03*
X0262000Y0092000D03*
X0262000Y0102000D03*
X0262000Y0112000D03*
X0262000Y0122000D03*
X0262000Y0041500D03*
X0262000Y0031500D03*
X0252000Y0031500D03*
X0252000Y0041500D03*
X0242000Y0041500D03*
X0242000Y0031500D03*
X0232000Y0031500D03*
X0232000Y0041500D03*
X0222000Y0041500D03*
X0222000Y0031500D03*
X0212000Y0031500D03*
X0212000Y0041500D03*
X0202000Y0041500D03*
X0202000Y0031500D03*
X0192000Y0031500D03*
X0192000Y0041500D03*
X0182000Y0041500D03*
X0172000Y0041500D03*
X0172000Y0031500D03*
X0182000Y0031500D03*
X0182000Y0021500D03*
X0172000Y0021500D03*
X0162000Y0021500D03*
X0152000Y0021500D03*
X0142000Y0021500D03*
X0132000Y0021500D03*
X0132000Y0031500D03*
X0132000Y0041500D03*
X0122000Y0041500D03*
X0122000Y0031500D03*
X0112000Y0031500D03*
X0102000Y0031500D03*
X0112000Y0021500D03*
X0142000Y0031500D03*
X0142000Y0041500D03*
X0152000Y0041500D03*
X0152000Y0031500D03*
X0162000Y0031500D03*
X0162000Y0041500D03*
X0192000Y0021500D03*
X0202000Y0021500D03*
X0212000Y0021500D03*
X0222000Y0021500D03*
X0232000Y0021500D03*
X0242000Y0021500D03*
X0252000Y0021500D03*
X0262000Y0021500D03*
X0272000Y0021500D03*
X0282000Y0021500D03*
X0282000Y0031500D03*
X0282000Y0041500D03*
X0272000Y0041500D03*
X0272000Y0031500D03*
X0074890Y0074000D03*
X0074890Y0084000D03*
D25*
X0017000Y0026500D03*
X0017000Y0286500D03*
X0317000Y0286500D03*
X0317000Y0026500D03*
D26*
X0296500Y0072000D03*
X0296500Y0082000D03*
X0296500Y0092000D03*
X0296500Y0102000D03*
X0296500Y0112000D03*
X0296500Y0122000D03*
X0296500Y0132000D03*
X0296500Y0142000D03*
X0296500Y0152000D03*
X0296500Y0162000D03*
X0296500Y0172000D03*
X0296500Y0182000D03*
X0296500Y0192000D03*
X0296500Y0202000D03*
X0296500Y0212000D03*
X0296500Y0222000D03*
X0296500Y0232000D03*
X0316000Y0235000D03*
X0316000Y0225000D03*
X0316000Y0215000D03*
X0331000Y0215000D03*
X0331000Y0225000D03*
X0331000Y0235000D03*
X0331000Y0245000D03*
X0331000Y0255000D03*
X0316000Y0255000D03*
X0316000Y0245000D03*
X0331000Y0177500D03*
X0331000Y0167500D03*
X0331000Y0157500D03*
X0022000Y0266500D03*
X0012000Y0266500D03*
D27*
X0321000Y0201500D03*
X0331000Y0201500D03*
X0331000Y0191500D03*
X0321000Y0191500D03*
X0322500Y0141500D03*
X0332500Y0141500D03*
X0332500Y0131500D03*
X0322500Y0131500D03*
X0322000Y0116500D03*
X0332000Y0116500D03*
X0332000Y0106500D03*
X0322000Y0106500D03*
D28*
X0134512Y0093000D03*
X0123488Y0093000D03*
X0122488Y0133000D03*
X0133512Y0133000D03*
D29*
X0296500Y0242000D03*
D30*
X0045300Y0061500D03*
X0019300Y0061500D03*
D31*
X0162500Y0061500D03*
X0162500Y0087500D03*
X0162000Y0228000D03*
X0162000Y0254000D03*
D32*
X0237100Y0222200D03*
X0239700Y0222200D03*
X0242300Y0222200D03*
X0244900Y0222200D03*
X0244900Y0204600D03*
X0242300Y0204600D03*
X0239700Y0204600D03*
X0237100Y0204600D03*
D33*
X0217748Y0178990D03*
X0215780Y0178990D03*
X0213811Y0178990D03*
X0211843Y0178990D03*
X0209874Y0178990D03*
X0207906Y0178990D03*
X0205937Y0178990D03*
X0203969Y0178990D03*
X0202000Y0178990D03*
X0200031Y0178990D03*
X0198063Y0178990D03*
X0196094Y0178990D03*
X0194126Y0178990D03*
X0192157Y0178990D03*
X0190189Y0178990D03*
X0188220Y0178990D03*
X0188220Y0134010D03*
X0190189Y0134010D03*
X0192157Y0134010D03*
X0194126Y0134010D03*
X0196094Y0134010D03*
X0198063Y0134010D03*
X0200031Y0134010D03*
X0202000Y0134010D03*
X0203969Y0134010D03*
X0205937Y0134010D03*
X0207906Y0134010D03*
X0209874Y0134010D03*
X0211843Y0134010D03*
X0213811Y0134010D03*
X0215780Y0134010D03*
X0217748Y0134010D03*
D34*
X0225474Y0141736D03*
X0225474Y0143705D03*
X0225474Y0145673D03*
X0225474Y0147642D03*
X0225474Y0149610D03*
X0225474Y0151579D03*
X0225474Y0153547D03*
X0225474Y0155516D03*
X0225474Y0157484D03*
X0225474Y0159453D03*
X0225474Y0161421D03*
X0225474Y0163390D03*
X0225474Y0165358D03*
X0225474Y0167327D03*
X0225474Y0169295D03*
X0225474Y0171264D03*
X0180494Y0171264D03*
X0180494Y0169295D03*
X0180494Y0167327D03*
X0180494Y0165358D03*
X0180494Y0163390D03*
X0180494Y0161421D03*
X0180494Y0159453D03*
X0180494Y0157484D03*
X0180494Y0155516D03*
X0180494Y0153547D03*
X0180494Y0151579D03*
X0180494Y0149610D03*
X0180494Y0147642D03*
X0180494Y0145673D03*
X0180494Y0143705D03*
X0180494Y0141736D03*
D35*
X0125937Y0076555D03*
X0123969Y0076555D03*
X0122000Y0076555D03*
X0120031Y0076555D03*
X0118063Y0076555D03*
X0118063Y0058445D03*
X0120031Y0058445D03*
X0122000Y0058445D03*
X0123969Y0058445D03*
X0125937Y0058445D03*
X0088937Y0039555D03*
X0086969Y0039555D03*
X0085000Y0039555D03*
X0083031Y0039555D03*
X0081063Y0039555D03*
X0081063Y0021445D03*
X0083031Y0021445D03*
X0085000Y0021445D03*
X0086969Y0021445D03*
X0088937Y0021445D03*
X0072937Y0242445D03*
X0070969Y0242445D03*
X0069000Y0242445D03*
X0067031Y0242445D03*
X0065063Y0242445D03*
X0065063Y0260555D03*
X0067031Y0260555D03*
X0069000Y0260555D03*
X0070969Y0260555D03*
X0072937Y0260555D03*
X0108063Y0260555D03*
X0110031Y0260555D03*
X0112000Y0260555D03*
X0113969Y0260555D03*
X0115937Y0260555D03*
X0115937Y0242445D03*
X0113969Y0242445D03*
X0112000Y0242445D03*
X0110031Y0242445D03*
X0108063Y0242445D03*
D36*
X0112000Y0251500D03*
X0069000Y0251500D03*
X0122000Y0067500D03*
X0085000Y0030500D03*
D37*
X0087100Y0291600D03*
X0077100Y0291600D03*
X0067100Y0291600D03*
X0057100Y0291600D03*
X0047100Y0291600D03*
D38*
X0200000Y0203012D03*
X0200000Y0191988D03*
D39*
X0133000Y0233051D03*
X0133000Y0251949D03*
X0090000Y0245051D03*
X0090000Y0263949D03*
X0097000Y0065949D03*
X0097000Y0047051D03*
X0063000Y0040949D03*
X0063000Y0022051D03*
D40*
X0322000Y0051500D03*
X0322000Y0061500D03*
X0322000Y0071500D03*
X0322000Y0081500D03*
X0332000Y0081500D03*
X0332000Y0071500D03*
X0332000Y0061500D03*
X0332000Y0051500D03*
X0332000Y0091500D03*
X0322000Y0091500D03*
D41*
X0255410Y0124531D02*
X0255700Y0125153D01*
X0255877Y0125816D01*
X0255937Y0126500D01*
X0255877Y0127184D01*
X0255700Y0127847D01*
X0255410Y0128469D01*
X0255016Y0129031D01*
X0254531Y0129516D01*
X0253969Y0129910D01*
X0253347Y0130200D01*
X0252684Y0130377D01*
X0252000Y0130437D01*
X0251316Y0130377D01*
X0250653Y0130200D01*
X0250031Y0129910D01*
X0249469Y0129516D01*
X0248984Y0129031D01*
X0248590Y0128469D01*
X0248300Y0127847D01*
X0248123Y0127184D01*
X0248063Y0126500D01*
X0248123Y0125816D01*
X0248300Y0125153D01*
X0248590Y0124531D01*
X0248984Y0123969D01*
X0249469Y0123484D01*
X0250031Y0123090D01*
X0250653Y0122800D01*
X0251316Y0122623D01*
X0252000Y0122563D01*
X0252684Y0122623D01*
X0253347Y0122800D01*
X0253969Y0123090D01*
X0254531Y0123484D01*
X0255016Y0123969D01*
X0255410Y0124531D01*
X0255457Y0124632D02*
X0248543Y0124632D01*
X0248311Y0125131D02*
X0255689Y0125131D01*
X0255827Y0125629D02*
X0248173Y0125629D01*
X0248096Y0126128D02*
X0255904Y0126128D01*
X0255926Y0126626D02*
X0248074Y0126626D01*
X0248118Y0127125D02*
X0255882Y0127125D01*
X0255759Y0127623D02*
X0248241Y0127623D01*
X0248429Y0128122D02*
X0255571Y0128122D01*
X0255303Y0128620D02*
X0248697Y0128620D01*
X0249072Y0129119D02*
X0254928Y0129119D01*
X0254386Y0129617D02*
X0249614Y0129617D01*
X0250474Y0130116D02*
X0253526Y0130116D01*
X0255131Y0124134D02*
X0248869Y0124134D01*
X0249318Y0123635D02*
X0254682Y0123635D01*
X0254035Y0123137D02*
X0249965Y0123137D01*
X0251259Y0122638D02*
X0252741Y0122638D01*
X0203397Y0227824D02*
X0200603Y0227824D01*
X0200653Y0227800D02*
X0201316Y0227623D01*
X0202000Y0227563D01*
X0202684Y0227623D01*
X0203347Y0227800D01*
X0203969Y0228090D01*
X0204531Y0228484D01*
X0205016Y0228969D01*
X0205410Y0229531D01*
X0205700Y0230153D01*
X0205877Y0230816D01*
X0205937Y0231500D01*
X0205877Y0232184D01*
X0205700Y0232847D01*
X0205410Y0233469D01*
X0205016Y0234031D01*
X0204531Y0234516D01*
X0203969Y0234910D01*
X0203347Y0235200D01*
X0202684Y0235377D01*
X0202000Y0235437D01*
X0201316Y0235377D01*
X0200653Y0235200D01*
X0200031Y0234910D01*
X0199469Y0234516D01*
X0198984Y0234031D01*
X0198590Y0233469D01*
X0198300Y0232847D01*
X0198123Y0232184D01*
X0198063Y0231500D01*
X0198123Y0230816D01*
X0198300Y0230153D01*
X0198590Y0229531D01*
X0198984Y0228969D01*
X0199469Y0228484D01*
X0200031Y0228090D01*
X0200653Y0227800D01*
X0199700Y0228323D02*
X0204300Y0228323D01*
X0204868Y0228821D02*
X0199132Y0228821D01*
X0198739Y0229320D02*
X0205261Y0229320D01*
X0205543Y0229818D02*
X0198457Y0229818D01*
X0198257Y0230317D02*
X0205743Y0230317D01*
X0205877Y0230815D02*
X0198123Y0230815D01*
X0198079Y0231314D02*
X0205921Y0231314D01*
X0205910Y0231812D02*
X0198090Y0231812D01*
X0198157Y0232311D02*
X0205843Y0232311D01*
X0205710Y0232809D02*
X0198290Y0232809D01*
X0198516Y0233308D02*
X0205485Y0233308D01*
X0205173Y0233806D02*
X0198827Y0233806D01*
X0199258Y0234305D02*
X0204742Y0234305D01*
X0204120Y0234803D02*
X0199880Y0234803D01*
X0201035Y0235302D02*
X0202965Y0235302D01*
X0039531Y0039516D02*
X0038969Y0039910D01*
X0038347Y0040200D01*
X0037684Y0040377D01*
X0037000Y0040437D01*
X0036316Y0040377D01*
X0035653Y0040200D01*
X0035031Y0039910D01*
X0034469Y0039516D01*
X0033984Y0039031D01*
X0033590Y0038469D01*
X0033300Y0037847D01*
X0033123Y0037184D01*
X0033063Y0036500D01*
X0033123Y0035816D01*
X0033300Y0035153D01*
X0033590Y0034531D01*
X0033984Y0033969D01*
X0034469Y0033484D01*
X0035031Y0033090D01*
X0035653Y0032800D01*
X0036316Y0032623D01*
X0037000Y0032563D01*
X0037684Y0032623D01*
X0038347Y0032800D01*
X0038969Y0033090D01*
X0039531Y0033484D01*
X0040016Y0033969D01*
X0040410Y0034531D01*
X0040700Y0035153D01*
X0040877Y0035816D01*
X0040937Y0036500D01*
X0040877Y0037184D01*
X0040700Y0037847D01*
X0040410Y0038469D01*
X0040016Y0039031D01*
X0039531Y0039516D01*
X0039660Y0039387D02*
X0034340Y0039387D01*
X0033884Y0038888D02*
X0040116Y0038888D01*
X0040446Y0038390D02*
X0033554Y0038390D01*
X0033321Y0037891D02*
X0040679Y0037891D01*
X0040821Y0037393D02*
X0033179Y0037393D01*
X0033098Y0036894D02*
X0040903Y0036894D01*
X0040928Y0036396D02*
X0033072Y0036396D01*
X0033116Y0035897D02*
X0040884Y0035897D01*
X0040765Y0035399D02*
X0033235Y0035399D01*
X0033418Y0034900D02*
X0040581Y0034900D01*
X0040319Y0034402D02*
X0033681Y0034402D01*
X0034050Y0033903D02*
X0039950Y0033903D01*
X0039417Y0033405D02*
X0034583Y0033405D01*
X0035427Y0032906D02*
X0038573Y0032906D01*
X0039003Y0039885D02*
X0034997Y0039885D01*
X0036393Y0040384D02*
X0037607Y0040384D01*
D42*
X0051000Y0009500D03*
X0052000Y0084000D03*
X0114000Y0136000D03*
X0120500Y0155500D03*
X0120500Y0181500D03*
D43*
X0116000Y0110000D03*
D44*
X0155300Y0080600D03*
X0177000Y0084000D03*
X0176700Y0058200D03*
X0119000Y0221500D03*
X0154000Y0237500D03*
X0170000Y0237500D03*
X0187000Y0223500D03*
X0262500Y0253000D03*
X0296000Y0259500D03*
X0290800Y0306800D03*
D45*
X0231500Y0250500D03*
X0227500Y0244000D03*
X0224000Y0240000D03*
X0220500Y0236000D03*
X0222000Y0253000D03*
X0208000Y0255000D03*
X0196500Y0266500D03*
X0183600Y0253100D03*
X0180500Y0250000D03*
X0177500Y0244500D03*
X0140200Y0249500D03*
X0118000Y0249500D03*
X0118000Y0253500D03*
X0112000Y0253500D03*
X0112000Y0249500D03*
X0106000Y0249500D03*
X0106000Y0253500D03*
X0098000Y0255000D03*
X0107031Y0266469D03*
X0113000Y0266500D03*
X0101000Y0243500D03*
X0101000Y0237500D03*
X0104500Y0234500D03*
X0110000Y0236500D03*
X0113000Y0234500D03*
X0125000Y0227500D03*
X0125500Y0218000D03*
X0132500Y0216000D03*
X0137000Y0225000D03*
X0118000Y0206000D03*
X0118000Y0201500D03*
X0127500Y0197500D03*
X0112000Y0189500D03*
X0076500Y0235500D03*
X0080000Y0238500D03*
X0079500Y0243500D03*
X0075000Y0249500D03*
X0075000Y0253500D03*
X0069000Y0253500D03*
X0069000Y0249500D03*
X0063000Y0249500D03*
X0063000Y0253500D03*
X0065000Y0236500D03*
X0070000Y0235500D03*
X0083000Y0255000D03*
X0083500Y0283500D03*
X0071200Y0302300D03*
X0047100Y0302400D03*
X0036500Y0222300D03*
X0036500Y0186500D03*
X0117000Y0094500D03*
X0101000Y0075500D03*
X0092000Y0081000D03*
X0087000Y0066500D03*
X0081000Y0052000D03*
X0084000Y0050000D03*
X0086000Y0047000D03*
X0085000Y0032500D03*
X0085000Y0028500D03*
X0079000Y0028500D03*
X0079000Y0032500D03*
X0091000Y0032500D03*
X0091000Y0028500D03*
X0083000Y0013500D03*
X0070000Y0046500D03*
X0056000Y0046500D03*
X0107000Y0066500D03*
X0116000Y0065500D03*
X0116000Y0069500D03*
X0122000Y0069500D03*
X0122000Y0065500D03*
X0128000Y0065500D03*
X0128000Y0069500D03*
X0139500Y0073500D03*
X0142500Y0070500D03*
X0150000Y0067500D03*
X0150000Y0082000D03*
X0156500Y0100500D03*
X0156600Y0106600D03*
X0155800Y0118300D03*
X0168000Y0127400D03*
X0171400Y0118900D03*
X0185000Y0127500D03*
X0187000Y0124300D03*
X0190000Y0122000D03*
X0198000Y0123500D03*
X0210000Y0121000D03*
X0217800Y0121500D03*
X0230800Y0127000D03*
X0224000Y0136000D03*
X0233500Y0146700D03*
X0236100Y0151700D03*
X0235500Y0158800D03*
X0238800Y0163400D03*
X0235500Y0168100D03*
X0239000Y0172000D03*
X0231000Y0172700D03*
X0225000Y0175500D03*
X0215900Y0173100D03*
X0206700Y0170100D03*
X0201900Y0173400D03*
X0198000Y0173500D03*
X0194100Y0173400D03*
X0190200Y0173500D03*
X0187000Y0166800D03*
X0198900Y0167500D03*
X0207800Y0155600D03*
X0211700Y0154500D03*
X0217600Y0154500D03*
X0219700Y0159500D03*
X0219700Y0163500D03*
X0209000Y0147300D03*
X0205900Y0142500D03*
X0198000Y0142000D03*
X0190200Y0147300D03*
X0186300Y0149600D03*
X0186900Y0155600D03*
X0174900Y0157500D03*
X0174000Y0161500D03*
X0162100Y0161400D03*
X0171500Y0150500D03*
X0175000Y0142500D03*
X0171300Y0137000D03*
X0177200Y0132500D03*
X0180000Y0138000D03*
X0188000Y0142000D03*
X0159000Y0144500D03*
X0155000Y0141500D03*
X0155000Y0147600D03*
X0159000Y0138000D03*
X0141000Y0140500D03*
X0174500Y0096500D03*
X0180000Y0096500D03*
X0177500Y0090500D03*
X0185100Y0077900D03*
X0187000Y0072500D03*
X0189000Y0067500D03*
X0183800Y0060500D03*
X0203500Y0080000D03*
X0201000Y0084000D03*
X0197000Y0101000D03*
X0223000Y0088000D03*
X0233500Y0083000D03*
X0236000Y0075500D03*
X0238500Y0069000D03*
X0249000Y0078000D03*
X0253000Y0070700D03*
X0266700Y0074700D03*
X0257100Y0086700D03*
X0248000Y0090000D03*
X0241500Y0095500D03*
X0257000Y0097500D03*
X0267000Y0127100D03*
X0246300Y0140000D03*
X0243000Y0142800D03*
X0250200Y0147000D03*
X0253000Y0150000D03*
X0256000Y0148000D03*
X0254300Y0163400D03*
X0246300Y0166000D03*
X0257700Y0177400D03*
X0278500Y0191500D03*
X0282500Y0194000D03*
X0288500Y0207000D03*
X0256500Y0244100D03*
X0245500Y0236000D03*
X0242500Y0240000D03*
X0238500Y0244000D03*
X0238000Y0227400D03*
X0230500Y0219000D03*
X0237000Y0216100D03*
X0233800Y0211000D03*
X0240000Y0210000D03*
X0240700Y0216600D03*
X0231000Y0204400D03*
X0225400Y0208000D03*
X0216300Y0208100D03*
X0214100Y0204200D03*
X0202000Y0209500D03*
X0192000Y0192000D03*
X0196000Y0185500D03*
X0210000Y0186000D03*
X0238400Y0199000D03*
X0242500Y0199000D03*
X0179500Y0186500D03*
X0197000Y0296500D03*
X0177000Y0300700D03*
X0217200Y0301400D03*
X0306500Y0147000D03*
X0310100Y0124400D03*
X0218100Y0060700D03*
X0215000Y0058500D03*
X0209500Y0065500D03*
X0120000Y0052500D03*
D46*
X0142000Y0095000D03*
X0149000Y0132500D03*
X0064500Y0184500D03*
X0041400Y0190600D03*
X0024000Y0193500D03*
X0024000Y0201000D03*
X0043500Y0108000D03*
D47*
X0161500Y0211500D03*
M02*
