G75*
%MOIN*%
%OFA0B0*%
%FSLAX25Y25*%
%IPPOS*%
%LPD*%
%AMOC8*
5,1,8,0,0,1.08239X$1,22.5*
%
%ADD10C,0.01000*%
%ADD11C,0.00000*%
D10*
X0001500Y0001500D02*
X0342000Y0001500D01*
X0342000Y0311500D01*
X0001500Y0311500D01*
X0001500Y0001500D01*
D11*
X0025701Y0089000D02*
X0025703Y0089158D01*
X0025709Y0089316D01*
X0025719Y0089474D01*
X0025733Y0089632D01*
X0025751Y0089789D01*
X0025772Y0089946D01*
X0025798Y0090102D01*
X0025828Y0090258D01*
X0025861Y0090413D01*
X0025899Y0090566D01*
X0025940Y0090719D01*
X0025985Y0090871D01*
X0026034Y0091022D01*
X0026087Y0091171D01*
X0026143Y0091319D01*
X0026203Y0091465D01*
X0026267Y0091610D01*
X0026335Y0091753D01*
X0026406Y0091895D01*
X0026480Y0092035D01*
X0026558Y0092172D01*
X0026640Y0092308D01*
X0026724Y0092442D01*
X0026813Y0092573D01*
X0026904Y0092702D01*
X0026999Y0092829D01*
X0027096Y0092954D01*
X0027197Y0093076D01*
X0027301Y0093195D01*
X0027408Y0093312D01*
X0027518Y0093426D01*
X0027631Y0093537D01*
X0027746Y0093646D01*
X0027864Y0093751D01*
X0027985Y0093853D01*
X0028108Y0093953D01*
X0028234Y0094049D01*
X0028362Y0094142D01*
X0028492Y0094232D01*
X0028625Y0094318D01*
X0028760Y0094402D01*
X0028896Y0094481D01*
X0029035Y0094558D01*
X0029176Y0094630D01*
X0029318Y0094700D01*
X0029462Y0094765D01*
X0029608Y0094827D01*
X0029755Y0094885D01*
X0029904Y0094940D01*
X0030054Y0094991D01*
X0030205Y0095038D01*
X0030357Y0095081D01*
X0030510Y0095120D01*
X0030665Y0095156D01*
X0030820Y0095187D01*
X0030976Y0095215D01*
X0031132Y0095239D01*
X0031289Y0095259D01*
X0031447Y0095275D01*
X0031604Y0095287D01*
X0031763Y0095295D01*
X0031921Y0095299D01*
X0032079Y0095299D01*
X0032237Y0095295D01*
X0032396Y0095287D01*
X0032553Y0095275D01*
X0032711Y0095259D01*
X0032868Y0095239D01*
X0033024Y0095215D01*
X0033180Y0095187D01*
X0033335Y0095156D01*
X0033490Y0095120D01*
X0033643Y0095081D01*
X0033795Y0095038D01*
X0033946Y0094991D01*
X0034096Y0094940D01*
X0034245Y0094885D01*
X0034392Y0094827D01*
X0034538Y0094765D01*
X0034682Y0094700D01*
X0034824Y0094630D01*
X0034965Y0094558D01*
X0035104Y0094481D01*
X0035240Y0094402D01*
X0035375Y0094318D01*
X0035508Y0094232D01*
X0035638Y0094142D01*
X0035766Y0094049D01*
X0035892Y0093953D01*
X0036015Y0093853D01*
X0036136Y0093751D01*
X0036254Y0093646D01*
X0036369Y0093537D01*
X0036482Y0093426D01*
X0036592Y0093312D01*
X0036699Y0093195D01*
X0036803Y0093076D01*
X0036904Y0092954D01*
X0037001Y0092829D01*
X0037096Y0092702D01*
X0037187Y0092573D01*
X0037276Y0092442D01*
X0037360Y0092308D01*
X0037442Y0092172D01*
X0037520Y0092035D01*
X0037594Y0091895D01*
X0037665Y0091753D01*
X0037733Y0091610D01*
X0037797Y0091465D01*
X0037857Y0091319D01*
X0037913Y0091171D01*
X0037966Y0091022D01*
X0038015Y0090871D01*
X0038060Y0090719D01*
X0038101Y0090566D01*
X0038139Y0090413D01*
X0038172Y0090258D01*
X0038202Y0090102D01*
X0038228Y0089946D01*
X0038249Y0089789D01*
X0038267Y0089632D01*
X0038281Y0089474D01*
X0038291Y0089316D01*
X0038297Y0089158D01*
X0038299Y0089000D01*
X0038297Y0088842D01*
X0038291Y0088684D01*
X0038281Y0088526D01*
X0038267Y0088368D01*
X0038249Y0088211D01*
X0038228Y0088054D01*
X0038202Y0087898D01*
X0038172Y0087742D01*
X0038139Y0087587D01*
X0038101Y0087434D01*
X0038060Y0087281D01*
X0038015Y0087129D01*
X0037966Y0086978D01*
X0037913Y0086829D01*
X0037857Y0086681D01*
X0037797Y0086535D01*
X0037733Y0086390D01*
X0037665Y0086247D01*
X0037594Y0086105D01*
X0037520Y0085965D01*
X0037442Y0085828D01*
X0037360Y0085692D01*
X0037276Y0085558D01*
X0037187Y0085427D01*
X0037096Y0085298D01*
X0037001Y0085171D01*
X0036904Y0085046D01*
X0036803Y0084924D01*
X0036699Y0084805D01*
X0036592Y0084688D01*
X0036482Y0084574D01*
X0036369Y0084463D01*
X0036254Y0084354D01*
X0036136Y0084249D01*
X0036015Y0084147D01*
X0035892Y0084047D01*
X0035766Y0083951D01*
X0035638Y0083858D01*
X0035508Y0083768D01*
X0035375Y0083682D01*
X0035240Y0083598D01*
X0035104Y0083519D01*
X0034965Y0083442D01*
X0034824Y0083370D01*
X0034682Y0083300D01*
X0034538Y0083235D01*
X0034392Y0083173D01*
X0034245Y0083115D01*
X0034096Y0083060D01*
X0033946Y0083009D01*
X0033795Y0082962D01*
X0033643Y0082919D01*
X0033490Y0082880D01*
X0033335Y0082844D01*
X0033180Y0082813D01*
X0033024Y0082785D01*
X0032868Y0082761D01*
X0032711Y0082741D01*
X0032553Y0082725D01*
X0032396Y0082713D01*
X0032237Y0082705D01*
X0032079Y0082701D01*
X0031921Y0082701D01*
X0031763Y0082705D01*
X0031604Y0082713D01*
X0031447Y0082725D01*
X0031289Y0082741D01*
X0031132Y0082761D01*
X0030976Y0082785D01*
X0030820Y0082813D01*
X0030665Y0082844D01*
X0030510Y0082880D01*
X0030357Y0082919D01*
X0030205Y0082962D01*
X0030054Y0083009D01*
X0029904Y0083060D01*
X0029755Y0083115D01*
X0029608Y0083173D01*
X0029462Y0083235D01*
X0029318Y0083300D01*
X0029176Y0083370D01*
X0029035Y0083442D01*
X0028896Y0083519D01*
X0028760Y0083598D01*
X0028625Y0083682D01*
X0028492Y0083768D01*
X0028362Y0083858D01*
X0028234Y0083951D01*
X0028108Y0084047D01*
X0027985Y0084147D01*
X0027864Y0084249D01*
X0027746Y0084354D01*
X0027631Y0084463D01*
X0027518Y0084574D01*
X0027408Y0084688D01*
X0027301Y0084805D01*
X0027197Y0084924D01*
X0027096Y0085046D01*
X0026999Y0085171D01*
X0026904Y0085298D01*
X0026813Y0085427D01*
X0026724Y0085558D01*
X0026640Y0085692D01*
X0026558Y0085828D01*
X0026480Y0085965D01*
X0026406Y0086105D01*
X0026335Y0086247D01*
X0026267Y0086390D01*
X0026203Y0086535D01*
X0026143Y0086681D01*
X0026087Y0086829D01*
X0026034Y0086978D01*
X0025985Y0087129D01*
X0025940Y0087281D01*
X0025899Y0087434D01*
X0025861Y0087587D01*
X0025828Y0087742D01*
X0025798Y0087898D01*
X0025772Y0088054D01*
X0025751Y0088211D01*
X0025733Y0088368D01*
X0025719Y0088526D01*
X0025709Y0088684D01*
X0025703Y0088842D01*
X0025701Y0089000D01*
X0038201Y0232000D02*
X0038203Y0232158D01*
X0038209Y0232316D01*
X0038219Y0232474D01*
X0038233Y0232632D01*
X0038251Y0232789D01*
X0038272Y0232946D01*
X0038298Y0233102D01*
X0038328Y0233258D01*
X0038361Y0233413D01*
X0038399Y0233566D01*
X0038440Y0233719D01*
X0038485Y0233871D01*
X0038534Y0234022D01*
X0038587Y0234171D01*
X0038643Y0234319D01*
X0038703Y0234465D01*
X0038767Y0234610D01*
X0038835Y0234753D01*
X0038906Y0234895D01*
X0038980Y0235035D01*
X0039058Y0235172D01*
X0039140Y0235308D01*
X0039224Y0235442D01*
X0039313Y0235573D01*
X0039404Y0235702D01*
X0039499Y0235829D01*
X0039596Y0235954D01*
X0039697Y0236076D01*
X0039801Y0236195D01*
X0039908Y0236312D01*
X0040018Y0236426D01*
X0040131Y0236537D01*
X0040246Y0236646D01*
X0040364Y0236751D01*
X0040485Y0236853D01*
X0040608Y0236953D01*
X0040734Y0237049D01*
X0040862Y0237142D01*
X0040992Y0237232D01*
X0041125Y0237318D01*
X0041260Y0237402D01*
X0041396Y0237481D01*
X0041535Y0237558D01*
X0041676Y0237630D01*
X0041818Y0237700D01*
X0041962Y0237765D01*
X0042108Y0237827D01*
X0042255Y0237885D01*
X0042404Y0237940D01*
X0042554Y0237991D01*
X0042705Y0238038D01*
X0042857Y0238081D01*
X0043010Y0238120D01*
X0043165Y0238156D01*
X0043320Y0238187D01*
X0043476Y0238215D01*
X0043632Y0238239D01*
X0043789Y0238259D01*
X0043947Y0238275D01*
X0044104Y0238287D01*
X0044263Y0238295D01*
X0044421Y0238299D01*
X0044579Y0238299D01*
X0044737Y0238295D01*
X0044896Y0238287D01*
X0045053Y0238275D01*
X0045211Y0238259D01*
X0045368Y0238239D01*
X0045524Y0238215D01*
X0045680Y0238187D01*
X0045835Y0238156D01*
X0045990Y0238120D01*
X0046143Y0238081D01*
X0046295Y0238038D01*
X0046446Y0237991D01*
X0046596Y0237940D01*
X0046745Y0237885D01*
X0046892Y0237827D01*
X0047038Y0237765D01*
X0047182Y0237700D01*
X0047324Y0237630D01*
X0047465Y0237558D01*
X0047604Y0237481D01*
X0047740Y0237402D01*
X0047875Y0237318D01*
X0048008Y0237232D01*
X0048138Y0237142D01*
X0048266Y0237049D01*
X0048392Y0236953D01*
X0048515Y0236853D01*
X0048636Y0236751D01*
X0048754Y0236646D01*
X0048869Y0236537D01*
X0048982Y0236426D01*
X0049092Y0236312D01*
X0049199Y0236195D01*
X0049303Y0236076D01*
X0049404Y0235954D01*
X0049501Y0235829D01*
X0049596Y0235702D01*
X0049687Y0235573D01*
X0049776Y0235442D01*
X0049860Y0235308D01*
X0049942Y0235172D01*
X0050020Y0235035D01*
X0050094Y0234895D01*
X0050165Y0234753D01*
X0050233Y0234610D01*
X0050297Y0234465D01*
X0050357Y0234319D01*
X0050413Y0234171D01*
X0050466Y0234022D01*
X0050515Y0233871D01*
X0050560Y0233719D01*
X0050601Y0233566D01*
X0050639Y0233413D01*
X0050672Y0233258D01*
X0050702Y0233102D01*
X0050728Y0232946D01*
X0050749Y0232789D01*
X0050767Y0232632D01*
X0050781Y0232474D01*
X0050791Y0232316D01*
X0050797Y0232158D01*
X0050799Y0232000D01*
X0050797Y0231842D01*
X0050791Y0231684D01*
X0050781Y0231526D01*
X0050767Y0231368D01*
X0050749Y0231211D01*
X0050728Y0231054D01*
X0050702Y0230898D01*
X0050672Y0230742D01*
X0050639Y0230587D01*
X0050601Y0230434D01*
X0050560Y0230281D01*
X0050515Y0230129D01*
X0050466Y0229978D01*
X0050413Y0229829D01*
X0050357Y0229681D01*
X0050297Y0229535D01*
X0050233Y0229390D01*
X0050165Y0229247D01*
X0050094Y0229105D01*
X0050020Y0228965D01*
X0049942Y0228828D01*
X0049860Y0228692D01*
X0049776Y0228558D01*
X0049687Y0228427D01*
X0049596Y0228298D01*
X0049501Y0228171D01*
X0049404Y0228046D01*
X0049303Y0227924D01*
X0049199Y0227805D01*
X0049092Y0227688D01*
X0048982Y0227574D01*
X0048869Y0227463D01*
X0048754Y0227354D01*
X0048636Y0227249D01*
X0048515Y0227147D01*
X0048392Y0227047D01*
X0048266Y0226951D01*
X0048138Y0226858D01*
X0048008Y0226768D01*
X0047875Y0226682D01*
X0047740Y0226598D01*
X0047604Y0226519D01*
X0047465Y0226442D01*
X0047324Y0226370D01*
X0047182Y0226300D01*
X0047038Y0226235D01*
X0046892Y0226173D01*
X0046745Y0226115D01*
X0046596Y0226060D01*
X0046446Y0226009D01*
X0046295Y0225962D01*
X0046143Y0225919D01*
X0045990Y0225880D01*
X0045835Y0225844D01*
X0045680Y0225813D01*
X0045524Y0225785D01*
X0045368Y0225761D01*
X0045211Y0225741D01*
X0045053Y0225725D01*
X0044896Y0225713D01*
X0044737Y0225705D01*
X0044579Y0225701D01*
X0044421Y0225701D01*
X0044263Y0225705D01*
X0044104Y0225713D01*
X0043947Y0225725D01*
X0043789Y0225741D01*
X0043632Y0225761D01*
X0043476Y0225785D01*
X0043320Y0225813D01*
X0043165Y0225844D01*
X0043010Y0225880D01*
X0042857Y0225919D01*
X0042705Y0225962D01*
X0042554Y0226009D01*
X0042404Y0226060D01*
X0042255Y0226115D01*
X0042108Y0226173D01*
X0041962Y0226235D01*
X0041818Y0226300D01*
X0041676Y0226370D01*
X0041535Y0226442D01*
X0041396Y0226519D01*
X0041260Y0226598D01*
X0041125Y0226682D01*
X0040992Y0226768D01*
X0040862Y0226858D01*
X0040734Y0226951D01*
X0040608Y0227047D01*
X0040485Y0227147D01*
X0040364Y0227249D01*
X0040246Y0227354D01*
X0040131Y0227463D01*
X0040018Y0227574D01*
X0039908Y0227688D01*
X0039801Y0227805D01*
X0039697Y0227924D01*
X0039596Y0228046D01*
X0039499Y0228171D01*
X0039404Y0228298D01*
X0039313Y0228427D01*
X0039224Y0228558D01*
X0039140Y0228692D01*
X0039058Y0228828D01*
X0038980Y0228965D01*
X0038906Y0229105D01*
X0038835Y0229247D01*
X0038767Y0229390D01*
X0038703Y0229535D01*
X0038643Y0229681D01*
X0038587Y0229829D01*
X0038534Y0229978D01*
X0038485Y0230129D01*
X0038440Y0230281D01*
X0038399Y0230434D01*
X0038361Y0230587D01*
X0038328Y0230742D01*
X0038298Y0230898D01*
X0038272Y0231054D01*
X0038251Y0231211D01*
X0038233Y0231368D01*
X0038219Y0231526D01*
X0038209Y0231684D01*
X0038203Y0231842D01*
X0038201Y0232000D01*
M02*
