G75*
%MOIN*%
%OFA0B0*%
%FSLAX25Y25*%
%IPPOS*%
%LPD*%
%AMOC8*
5,1,8,0,0,1.08239X$1,22.5*
%
%ADD10C,0.00600*%
D10*
X0095300Y0057354D02*
X0095300Y0059489D01*
X0096368Y0060557D01*
X0096368Y0062732D02*
X0095300Y0063799D01*
X0095300Y0065934D01*
X0096368Y0067002D01*
X0098503Y0067002D01*
X0099570Y0065934D01*
X0099570Y0063799D01*
X0098503Y0062732D01*
X0096368Y0062732D01*
X0100638Y0060557D02*
X0101705Y0059489D01*
X0101705Y0057354D01*
X0100638Y0056286D01*
X0096368Y0056286D01*
X0095300Y0057354D01*
X0095300Y0069177D02*
X0095300Y0072380D01*
X0096368Y0073448D01*
X0098503Y0073448D01*
X0099570Y0072380D01*
X0099570Y0069177D01*
X0093165Y0069177D01*
X0096368Y0075623D02*
X0095300Y0076690D01*
X0095300Y0079893D01*
X0094232Y0079893D02*
X0093165Y0078825D01*
X0093165Y0077758D01*
X0094232Y0079893D02*
X0099570Y0079893D01*
X0099570Y0082068D02*
X0095300Y0082068D01*
X0097435Y0082068D02*
X0099570Y0084203D01*
X0099570Y0085271D01*
X0099570Y0087439D02*
X0099570Y0088507D01*
X0095300Y0088507D01*
X0095300Y0087439D02*
X0095300Y0089575D01*
X0096368Y0091736D02*
X0095300Y0092804D01*
X0095300Y0096007D01*
X0094232Y0096007D02*
X0099570Y0096007D01*
X0099570Y0092804D01*
X0098503Y0091736D01*
X0096368Y0091736D01*
X0093165Y0093872D02*
X0093165Y0094939D01*
X0094232Y0096007D01*
X0095300Y0098182D02*
X0101705Y0098182D01*
X0099570Y0099250D02*
X0099570Y0101385D01*
X0098503Y0102452D01*
X0095300Y0102452D01*
X0096368Y0105695D02*
X0095300Y0106763D01*
X0096368Y0105695D02*
X0100638Y0105695D01*
X0099570Y0104627D02*
X0099570Y0106763D01*
X0099570Y0099250D02*
X0098503Y0098182D01*
X0101705Y0088507D02*
X0102773Y0088507D01*
X0099570Y0075623D02*
X0096368Y0075623D01*
X0095300Y0115370D02*
X0099570Y0119640D01*
X0100638Y0119640D01*
X0101705Y0118573D01*
X0101705Y0116438D01*
X0100638Y0115370D01*
X0095300Y0115370D02*
X0095300Y0119640D01*
X0096368Y0121815D02*
X0095300Y0122883D01*
X0095300Y0125018D01*
X0096368Y0126086D01*
X0100638Y0126086D01*
X0096368Y0121815D01*
X0100638Y0121815D01*
X0101705Y0122883D01*
X0101705Y0125018D01*
X0100638Y0126086D01*
X0099570Y0128261D02*
X0101705Y0130396D01*
X0095300Y0130396D01*
X0095300Y0128261D02*
X0095300Y0132531D01*
X0096368Y0134706D02*
X0095300Y0135774D01*
X0095300Y0137909D01*
X0096368Y0138977D01*
X0098503Y0138977D01*
X0099570Y0137909D01*
X0099570Y0136842D01*
X0098503Y0134706D01*
X0101705Y0134706D01*
X0101705Y0138977D01*
X0101705Y0147597D02*
X0095300Y0147597D01*
X0095300Y0151868D01*
X0095300Y0154043D02*
X0099570Y0154043D01*
X0099570Y0157246D01*
X0098503Y0158313D01*
X0095300Y0158313D01*
X0096368Y0160488D02*
X0095300Y0161556D01*
X0095300Y0164759D01*
X0094232Y0164759D02*
X0099570Y0164759D01*
X0099570Y0161556D01*
X0098503Y0160488D01*
X0096368Y0160488D01*
X0093165Y0162624D02*
X0093165Y0163691D01*
X0094232Y0164759D01*
X0095300Y0166934D02*
X0095300Y0169069D01*
X0095300Y0168002D02*
X0099570Y0168002D01*
X0099570Y0166934D01*
X0101705Y0168002D02*
X0102773Y0168002D01*
X0098503Y0171231D02*
X0099570Y0172298D01*
X0099570Y0174434D01*
X0098503Y0175501D01*
X0097435Y0175501D01*
X0097435Y0171231D01*
X0096368Y0171231D02*
X0098503Y0171231D01*
X0096368Y0171231D02*
X0095300Y0172298D01*
X0095300Y0174434D01*
X0095300Y0177676D02*
X0099570Y0177676D01*
X0099570Y0180879D01*
X0098503Y0181947D01*
X0095300Y0181947D01*
X0096368Y0184122D02*
X0095300Y0185189D01*
X0095300Y0187325D01*
X0097435Y0188392D02*
X0097435Y0184122D01*
X0096368Y0184122D02*
X0098503Y0184122D01*
X0099570Y0185189D01*
X0099570Y0187325D01*
X0098503Y0188392D01*
X0097435Y0188392D01*
X0097435Y0190567D02*
X0099570Y0192703D01*
X0099570Y0193770D01*
X0099570Y0195939D02*
X0099570Y0197006D01*
X0095300Y0197006D01*
X0095300Y0195939D02*
X0095300Y0198074D01*
X0095300Y0200236D02*
X0099570Y0200236D01*
X0099570Y0203438D01*
X0098503Y0204506D01*
X0095300Y0204506D01*
X0096368Y0206681D02*
X0095300Y0207749D01*
X0095300Y0210951D01*
X0094232Y0210951D02*
X0099570Y0210951D01*
X0099570Y0207749D01*
X0098503Y0206681D01*
X0096368Y0206681D01*
X0093165Y0208816D02*
X0093165Y0209884D01*
X0094232Y0210951D01*
X0099570Y0213127D02*
X0101705Y0215262D01*
X0099570Y0217397D01*
X0100638Y0219572D02*
X0101705Y0220640D01*
X0101705Y0222775D01*
X0100638Y0223842D01*
X0099570Y0223842D01*
X0098503Y0222775D01*
X0097435Y0223842D01*
X0096368Y0223842D01*
X0095300Y0222775D01*
X0095300Y0220640D01*
X0096368Y0219572D01*
X0098503Y0221707D02*
X0098503Y0222775D01*
X0101705Y0232463D02*
X0095300Y0232463D01*
X0095300Y0236733D01*
X0095300Y0238909D02*
X0095300Y0243179D01*
X0096368Y0245354D02*
X0095300Y0246422D01*
X0095300Y0248557D01*
X0096368Y0249624D01*
X0096368Y0245354D02*
X0100638Y0245354D01*
X0101705Y0246422D01*
X0101705Y0248557D01*
X0100638Y0249624D01*
X0101705Y0238909D02*
X0095300Y0238909D01*
X0101705Y0197006D02*
X0102773Y0197006D01*
X0099570Y0190567D02*
X0095300Y0190567D01*
X0101705Y0151868D02*
X0101705Y0147597D01*
X0098503Y0147597D02*
X0098503Y0149733D01*
M02*
