%
M48
M72
T01C0.0100
T02C0.0197
T03C0.0236
T04C0.0240
T05C0.0315
T06C0.0400
T07C0.0433
T08C0.1260
%
T01
X5600Y4650
X7000Y4650
X8100Y5200
X8400Y5000
X8600Y4700
X8500Y3250
X8500Y2850
X7900Y2850
X7900Y3250
X9100Y3250
X9100Y2850
X8300Y1350
X12000Y5250
X12200Y6550
X12200Y6950
X11600Y6950
X11600Y6550
X10700Y6650
X10100Y7550
X9200Y8100
X8700Y6650
X11700Y9450
X13950Y7350
X14250Y7050
X15000Y6750
X15000Y8200
X15650Y10050
X15660Y10660
X15580Y11830
X16800Y12740
X17140Y11890
X18500Y12750
X18700Y12430
X19000Y12200
X19800Y12350
X21000Y12100
X21780Y12150
X23080Y12700
X22400Y13600
X23350Y14670
X23610Y15170
X23550Y15880
X23880Y16340
X23550Y16810
X23900Y17200
X23100Y17270
X22500Y17550
X21590Y17310
X20670Y17010
X20190Y17340
X19800Y17350
X19410Y17340
X19020Y17350
X18700Y16680
X19890Y16750
X20780Y15560
X21170Y15450
X21760Y15450
X21970Y15950
X21970Y16350
X20900Y14730
X20590Y14250
X19800Y14200
X19020Y14730
X18630Y14960
X18690Y15560
X17490Y15750
X17400Y16150
X17150Y15050
X17500Y14250
X17130Y13700
X17720Y13250
X18000Y13800
X18800Y14200
X16210Y16140
X15500Y14760
X15900Y14450
X15500Y14150
X15900Y13800
X14100Y14050
X17450Y9650
X18000Y9650
X17750Y9050
X18510Y7790
X18700Y7250
X18900Y6750
X18380Y6050
X20350Y8000
X20100Y8400
X19700Y10100
X22300Y8800
X23350Y8300
X23600Y7550
X23850Y6900
X24900Y7800
X25300Y7070
X26670Y7470
X25710Y8670
X24800Y9000
X24150Y9550
X25700Y9750
X26700Y12710
X24630Y14000
X24300Y14280
X25020Y14700
X25300Y15000
X25600Y14800
X25430Y16340
X24630Y16600
X25770Y17740
X27850Y19150
X28250Y19400
X28850Y20700
X25650Y24410
X24550Y23600
X24250Y24000
X23850Y24400
X23150Y25050
X22750Y24400
X22400Y24000
X22050Y23600
X22200Y25300
X20800Y25500
X19650Y26650
X18360Y25310
X18050Y25000
X17750Y24450
X14020Y24950
X11800Y24950
X11800Y25350
X11200Y25350
X11200Y24950
X10600Y24950
X10600Y25350
X9800Y25500
X10100Y24350
X10100Y23750
X10450Y23450
X11000Y23650
X11300Y23450
X12500Y22750
X12550Y21800
X13250Y21600
X13700Y22500
X11800Y20600
X11800Y20150
X12750Y19750
X11200Y18950
X7650Y23550
X8000Y23850
X7950Y24350
X7500Y24950
X7500Y25350
X6900Y25350
X6900Y24950
X6300Y24950
X6300Y25350
X6500Y23650
X7000Y23550
X8300Y25500
X10703Y26647
X11300Y26650
X8350Y28350
X7120Y30230
X4710Y30240
X3650Y22230
X3650Y18650
X12800Y6950
X12800Y6550
X20950Y6550
X21500Y5850
X21810Y6070
X31010Y12440
X30650Y14700
X24250Y19900
X23840Y19900
X23100Y20440
X22540Y20800
X23380Y21100
X24000Y21000
X24070Y21660
X23700Y21610
X23050Y21900
X23800Y22740
X21630Y20810
X21410Y20420
X20200Y20950
X19200Y19200
X19600Y18550
X21000Y18600
X17950Y18650
X19700Y29650
X17700Y30070
X21720Y30140
T02
X12050Y18150
X12050Y15550
X11400Y13600
X5200Y8400
X5100Y950
T03
X15530Y8060
X17700Y8400
X17670Y5820
X11900Y22150
X15400Y23750
X17000Y23750
X18700Y22350
X26250Y25300
X29600Y25950
X29080Y30680
T04
X11600Y11000
T05
X14200Y9500
X14900Y13250
X16150Y21150
X6450Y18450
X4140Y19060
X2400Y19350
X2400Y20100
X4350Y10800
T06
X2200Y26650
X1200Y26650
X4710Y29160
X5710Y29160
X6710Y29160
X7710Y29160
X8710Y29160
X29650Y24200
X29650Y23200
X29650Y22200
X29650Y21200
X29650Y20200
X29650Y19200
X29650Y18200
X29650Y17200
X29650Y16200
X29650Y15200
X29650Y14200
X29650Y13200
X29650Y12200
X29650Y11200
X29650Y10200
X29650Y9200
X29650Y8200
X29650Y7200
X32200Y7150
X32200Y6150
X32200Y5150
X33200Y5150
X33200Y6150
X33200Y7150
X33200Y8150
X33200Y9150
X32200Y9150
X32200Y8150
X32200Y10650
X32200Y11650
X33200Y11650
X33200Y10650
X33250Y13150
X33250Y14150
X32250Y14150
X32250Y13150
X33100Y15750
X33100Y16750
X33100Y17750
X33100Y19150
X33100Y20150
X32100Y20150
X32100Y19150
X31600Y21500
X31600Y22500
X31600Y23500
X31600Y24500
X31600Y25500
X33100Y25500
X33100Y24500
X33100Y23500
X33100Y22500
X33100Y21500
T07
X27200Y21200
X27200Y20200
X27200Y19200
X27200Y18200
X26200Y18200
X26200Y19200
X26200Y20200
X26200Y21200
X26200Y22200
X27200Y22200
X27200Y23200
X26200Y23200
X26200Y27150
X26200Y28150
X25200Y28150
X25200Y27150
X24200Y27150
X24200Y28150
X23200Y28150
X23200Y27150
X22200Y27150
X22200Y28150
X21200Y28150
X21200Y27150
X20200Y27150
X20200Y28150
X19200Y28150
X19200Y27150
X18200Y27150
X17200Y27150
X17200Y28150
X18200Y28150
X18200Y29150
X17200Y29150
X16200Y29150
X15200Y29150
X14200Y29150
X13200Y29150
X12200Y29150
X11200Y29150
X10200Y29150
X10200Y28150
X11200Y28150
X12200Y28150
X12200Y27150
X13200Y27150
X13200Y28150
X14200Y28150
X14200Y27150
X15200Y27150
X15200Y28150
X16200Y28150
X16200Y27150
X19200Y29150
X20200Y29150
X21200Y29150
X22200Y29150
X23200Y29150
X24200Y29150
X25200Y29150
X26200Y29150
X27200Y29150
X28200Y29150
X28200Y28150
X28200Y27150
X27200Y27150
X27200Y28150
X27200Y17200
X27200Y16200
X27200Y15200
X27200Y14200
X27200Y13200
X26200Y13200
X26200Y14200
X26200Y15200
X26200Y16200
X26200Y17200
X26200Y12200
X26200Y11200
X26200Y10200
X26200Y9200
X26200Y8200
X27200Y8200
X27200Y9200
X27200Y10200
X27200Y11200
X27200Y12200
X27200Y4150
X27200Y3150
X26200Y3150
X26200Y4150
X25200Y4150
X25200Y3150
X24200Y3150
X24200Y4150
X23200Y4150
X23200Y3150
X22200Y3150
X22200Y4150
X21200Y4150
X21200Y3150
X20200Y3150
X20200Y4150
X19200Y4150
X19200Y3150
X18200Y3150
X17200Y3150
X17200Y4150
X18200Y4150
X16200Y4150
X16200Y3150
X15200Y3150
X15200Y4150
X14200Y4150
X14200Y3150
X13200Y3150
X13200Y4150
X12200Y4150
X12200Y3150
X11200Y3150
X10200Y3150
X10200Y2150
X11200Y2150
X12200Y2150
X13200Y2150
X14200Y2150
X15200Y2150
X16200Y2150
X17200Y2150
X18200Y2150
X19200Y2150
X20200Y2150
X21200Y2150
X22200Y2150
X23200Y2150
X24200Y2150
X25200Y2150
X26200Y2150
X27200Y2150
X28200Y2150
X28200Y3150
X28200Y4150
X7489Y6400
X7489Y7400
X7489Y8400
T08
X1700Y2650
X3200Y8900
X4450Y23200
X1700Y28650
X31700Y28650
X31700Y2650
M30
