G75*
%MOIN*%
%OFA0B0*%
%FSLAX24Y24*%
%IPPOS*%
%LPD*%
%AMOC8*
5,1,8,0,0,1.08239X$1,22.5*
%
%ADD10C,0.0100*%
%ADD11C,0.0040*%
%ADD12C,0.0050*%
%ADD13C,0.0060*%
%ADD14C,0.0070*%
%ADD15C,0.0140*%
%ADD16C,0.0080*%
%ADD17C,0.0000*%
%ADD18C,0.0160*%
%ADD19C,0.0030*%
%ADD20R,0.0118X0.0059*%
%ADD21R,0.0118X0.0118*%
%ADD22R,0.0400X0.1100*%
%ADD23R,0.0965X0.0266*%
%ADD24C,0.0008*%
%ADD25C,0.0240*%
%ADD26R,0.0200X0.0200*%
%ADD27C,0.0039*%
%ADD28R,0.1157X0.0291*%
D10*
X000150Y000150D02*
X034200Y000150D01*
X034200Y031150D01*
X000150Y031150D01*
X000150Y000150D01*
X009700Y000420D02*
X009700Y001650D01*
X011700Y001650D02*
X011700Y000400D01*
X015700Y000400D02*
X015700Y001650D01*
X016700Y001650D02*
X016700Y000400D01*
X016700Y004650D02*
X016700Y005600D01*
X021850Y001650D02*
X021850Y000400D01*
X023750Y000400D02*
X023750Y001650D01*
X026700Y001650D02*
X026700Y000400D01*
X028700Y000400D02*
X028700Y001650D01*
X028700Y004650D02*
X028700Y005900D01*
X026750Y005950D02*
X026750Y004700D01*
X033850Y015500D02*
X033850Y016000D01*
X033800Y021250D02*
X033800Y021750D01*
X032300Y021750D02*
X032300Y021250D01*
X030400Y024000D02*
X030400Y024500D01*
X028700Y025400D02*
X028700Y026650D01*
X026700Y026650D02*
X026700Y025400D01*
X024338Y021720D02*
X024340Y021741D01*
X024346Y021760D01*
X024355Y021779D01*
X024367Y021795D01*
X024383Y021809D01*
X024400Y021820D01*
X024419Y021828D01*
X024440Y021832D01*
X024460Y021832D01*
X024481Y021828D01*
X024500Y021820D01*
X024517Y021809D01*
X024533Y021795D01*
X024545Y021779D01*
X024554Y021760D01*
X024560Y021741D01*
X024562Y021720D01*
X024560Y021699D01*
X024554Y021680D01*
X024545Y021661D01*
X024533Y021645D01*
X024517Y021631D01*
X024500Y021620D01*
X024481Y021612D01*
X024460Y021608D01*
X024440Y021608D01*
X024419Y021612D01*
X024400Y021620D01*
X024383Y021631D01*
X024367Y021645D01*
X024355Y021661D01*
X024346Y021680D01*
X024340Y021699D01*
X024338Y021720D01*
X022238Y018000D02*
X022240Y018021D01*
X022246Y018040D01*
X022255Y018059D01*
X022267Y018075D01*
X022283Y018089D01*
X022300Y018100D01*
X022319Y018108D01*
X022340Y018112D01*
X022360Y018112D01*
X022381Y018108D01*
X022400Y018100D01*
X022417Y018089D01*
X022433Y018075D01*
X022445Y018059D01*
X022454Y018040D01*
X022460Y018021D01*
X022462Y018000D01*
X022460Y017979D01*
X022454Y017960D01*
X022445Y017941D01*
X022433Y017925D01*
X022417Y017911D01*
X022400Y017900D01*
X022381Y017892D01*
X022360Y017888D01*
X022340Y017888D01*
X022319Y017892D01*
X022300Y017900D01*
X022283Y017911D01*
X022267Y017925D01*
X022255Y017941D01*
X022246Y017960D01*
X022240Y017979D01*
X022238Y018000D01*
X016700Y025900D02*
X016700Y026650D01*
X016700Y029650D02*
X016700Y031100D01*
X015700Y031100D02*
X015700Y029650D01*
X011700Y029650D02*
X011700Y031100D01*
X009700Y031150D02*
X009700Y029700D01*
X008950Y029850D02*
X008500Y029850D01*
X020700Y029650D02*
X020700Y031100D01*
X023700Y031100D02*
X023700Y029650D01*
X026700Y029650D02*
X026700Y030900D01*
X028700Y030900D02*
X028700Y029650D01*
D11*
X029102Y029303D02*
X029102Y028996D01*
X029179Y028920D01*
X029409Y028920D01*
X029409Y029380D01*
X029179Y029380D01*
X029102Y029303D01*
X029563Y029380D02*
X029563Y028920D01*
X029870Y028920D02*
X029563Y029380D01*
X029870Y029380D02*
X029870Y028920D01*
X030023Y028996D02*
X030100Y028920D01*
X030253Y028920D01*
X030330Y028996D01*
X030330Y029303D01*
X030253Y029380D01*
X030100Y029380D01*
X030023Y029303D01*
X030023Y029150D01*
X030177Y029150D01*
X030103Y028379D02*
X030181Y028303D01*
X030103Y028379D02*
X029950Y028377D01*
X029874Y028300D01*
X029875Y028223D01*
X029952Y028147D01*
X030106Y028149D01*
X030183Y028073D01*
X030184Y027996D01*
X030108Y027919D01*
X029955Y027917D01*
X029877Y027993D01*
X029724Y027991D02*
X029721Y028298D01*
X029643Y028374D01*
X029490Y028373D01*
X029414Y028295D01*
X029259Y028370D02*
X028953Y028367D01*
X029259Y028370D02*
X029264Y027910D01*
X029417Y027988D02*
X029494Y027912D01*
X029648Y027914D01*
X029724Y027991D01*
X029770Y027375D02*
X029540Y027373D01*
X029464Y027295D01*
X029467Y026988D01*
X029544Y026912D01*
X029775Y026915D01*
X029770Y027375D01*
X029924Y027300D02*
X029925Y027223D01*
X030002Y027147D01*
X030156Y027149D01*
X030233Y027073D01*
X030234Y026996D01*
X030158Y026919D01*
X030005Y026917D01*
X029927Y026993D01*
X029924Y027300D02*
X030000Y027377D01*
X030153Y027379D01*
X030231Y027303D01*
X029309Y027370D02*
X029313Y027063D01*
X029161Y026908D01*
X029006Y027060D01*
X029003Y027367D01*
X029005Y027137D02*
X029312Y027140D01*
X025940Y023851D02*
X025940Y023504D01*
X025940Y023678D02*
X025420Y023678D01*
X025593Y023504D01*
X025405Y023041D02*
X025328Y023041D01*
X025021Y023348D01*
X024945Y023348D01*
X024945Y023041D01*
X025021Y022887D02*
X024945Y022811D01*
X024945Y022657D01*
X025021Y022580D01*
X025021Y022427D02*
X024945Y022350D01*
X024945Y022197D01*
X025021Y022120D01*
X025328Y022120D01*
X025405Y022197D01*
X025405Y022350D01*
X025328Y022427D01*
X025405Y022580D02*
X025098Y022887D01*
X025021Y022887D01*
X025405Y022887D02*
X025405Y022580D01*
X024681Y021961D02*
X024681Y020799D01*
X023519Y020799D01*
X023519Y021961D01*
X024681Y021961D01*
X023420Y022530D02*
X023420Y022683D01*
X023343Y022760D01*
X022959Y022760D01*
X023036Y022913D02*
X022959Y022990D01*
X022959Y023143D01*
X023036Y023220D01*
X023343Y023220D01*
X023420Y023143D01*
X023420Y022990D01*
X023343Y022913D01*
X023190Y022990D02*
X023190Y023220D01*
X023190Y022990D02*
X023113Y022913D01*
X023036Y022913D01*
X022959Y022453D02*
X023343Y022453D01*
X023420Y022530D01*
X021915Y022150D02*
X021838Y022227D01*
X021531Y022227D01*
X021455Y022150D01*
X021455Y021996D01*
X021531Y021920D01*
X021608Y021920D01*
X021685Y021996D01*
X021685Y022227D01*
X021915Y022150D02*
X021915Y021996D01*
X021838Y021920D01*
X021915Y021766D02*
X021915Y021459D01*
X021915Y021613D02*
X021455Y021613D01*
X021608Y021459D01*
X021531Y021306D02*
X021455Y021229D01*
X021455Y021076D01*
X021531Y020999D01*
X021838Y020999D01*
X021915Y021076D01*
X021915Y021229D01*
X021838Y021306D01*
X021075Y021001D02*
X021075Y020847D01*
X020998Y020770D01*
X021075Y020617D02*
X020922Y020463D01*
X020922Y020540D02*
X020922Y020310D01*
X021075Y020310D02*
X020615Y020310D01*
X020615Y020540D01*
X020691Y020617D01*
X020845Y020617D01*
X020922Y020540D01*
X020691Y020770D02*
X020615Y020847D01*
X020615Y021001D01*
X020691Y021077D01*
X020768Y021077D01*
X020845Y021001D01*
X020922Y021077D01*
X020998Y021077D01*
X021075Y021001D01*
X020845Y021001D02*
X020845Y020924D01*
X022155Y020450D02*
X022385Y020220D01*
X022385Y020527D01*
X022615Y020450D02*
X022155Y020450D01*
X022231Y020066D02*
X022385Y020066D01*
X022462Y019989D01*
X022462Y019759D01*
X022615Y019759D02*
X022155Y019759D01*
X022155Y019989D01*
X022231Y020066D01*
X022462Y019913D02*
X022615Y020066D01*
X022911Y018327D02*
X022835Y018250D01*
X022835Y018096D01*
X022911Y018020D01*
X022911Y017866D02*
X023065Y017866D01*
X023142Y017789D01*
X023142Y017559D01*
X023295Y017559D02*
X022835Y017559D01*
X022835Y017789D01*
X022911Y017866D01*
X023142Y017713D02*
X023295Y017866D01*
X023295Y018020D02*
X022988Y018327D01*
X022911Y018327D01*
X023295Y018327D02*
X023295Y018020D01*
X023615Y017929D02*
X023615Y017776D01*
X023691Y017699D01*
X023691Y017546D02*
X023845Y017546D01*
X023922Y017469D01*
X023922Y017239D01*
X024075Y017239D02*
X023615Y017239D01*
X023615Y017469D01*
X023691Y017546D01*
X023922Y017392D02*
X024075Y017546D01*
X023998Y017699D02*
X024075Y017776D01*
X024075Y017929D01*
X023998Y018006D01*
X023922Y018006D01*
X023845Y017929D01*
X023845Y017853D01*
X023845Y017929D02*
X023768Y018006D01*
X023691Y018006D01*
X023615Y017929D01*
X023845Y018160D02*
X023615Y018390D01*
X024075Y018390D01*
X023845Y018467D02*
X023845Y018160D01*
X024445Y018236D02*
X024445Y018390D01*
X024521Y018467D01*
X024598Y018467D01*
X024675Y018390D01*
X024752Y018467D01*
X024828Y018467D01*
X024905Y018390D01*
X024905Y018236D01*
X024828Y018160D01*
X024828Y018006D02*
X024905Y017929D01*
X024905Y017776D01*
X024828Y017699D01*
X024905Y017546D02*
X024752Y017392D01*
X024752Y017469D02*
X024752Y017239D01*
X024905Y017239D02*
X024445Y017239D01*
X024445Y017469D01*
X024521Y017546D01*
X024675Y017546D01*
X024752Y017469D01*
X024521Y017699D02*
X024445Y017776D01*
X024445Y017929D01*
X024521Y018006D01*
X024598Y018006D01*
X024675Y017929D01*
X024752Y018006D01*
X024828Y018006D01*
X024675Y017929D02*
X024675Y017853D01*
X024521Y018160D02*
X024445Y018236D01*
X024675Y018313D02*
X024675Y018390D01*
X025145Y018300D02*
X025145Y018070D01*
X025605Y018070D01*
X025452Y018070D02*
X025452Y018300D01*
X025375Y018377D01*
X025221Y018377D01*
X025145Y018300D01*
X025221Y018530D02*
X025145Y018607D01*
X025145Y018761D01*
X025221Y018837D01*
X025298Y018837D01*
X025375Y018761D01*
X025452Y018837D01*
X025528Y018837D01*
X025605Y018761D01*
X025605Y018607D01*
X025528Y018530D01*
X025605Y018377D02*
X025452Y018223D01*
X025375Y018684D02*
X025375Y018761D01*
X025221Y018991D02*
X025145Y019068D01*
X025145Y019221D01*
X025221Y019298D01*
X025298Y019298D01*
X025605Y018991D01*
X025605Y019298D01*
X028253Y022520D02*
X028340Y022607D01*
X028340Y022693D01*
X028253Y022780D01*
X027820Y022780D01*
X027820Y022693D02*
X027820Y022867D01*
X027906Y023036D02*
X027820Y023122D01*
X027820Y023296D01*
X027906Y023383D01*
X027993Y023383D01*
X028080Y023296D01*
X028167Y023383D01*
X028253Y023383D01*
X028340Y023296D01*
X028340Y023122D01*
X028253Y023036D01*
X028080Y023209D02*
X028080Y023296D01*
X019400Y020240D02*
X019400Y020086D01*
X019323Y020010D01*
X019323Y019856D02*
X019400Y019779D01*
X019400Y019626D01*
X019323Y019549D01*
X019016Y019549D01*
X018940Y019626D01*
X018940Y019779D01*
X019016Y019856D01*
X019016Y020010D02*
X018940Y020086D01*
X018940Y020240D01*
X019016Y020317D01*
X019093Y020317D01*
X019170Y020240D01*
X019247Y020317D01*
X019323Y020317D01*
X019400Y020240D01*
X019170Y020240D02*
X019170Y020163D01*
X017571Y018282D02*
X017110Y018282D01*
X017340Y018052D01*
X017340Y018359D01*
X017571Y017898D02*
X017571Y017591D01*
X017571Y017745D02*
X017110Y017745D01*
X017264Y017591D01*
X017110Y017438D02*
X017494Y017438D01*
X017571Y017361D01*
X017571Y017208D01*
X017494Y017131D01*
X017110Y017131D01*
X016707Y017975D02*
X016400Y017975D01*
X016247Y017975D02*
X016093Y018128D01*
X016170Y018128D02*
X015940Y018128D01*
X015940Y017975D02*
X015940Y018435D01*
X016170Y018435D01*
X016247Y018359D01*
X016247Y018205D01*
X016170Y018128D01*
X016400Y018282D02*
X016554Y018435D01*
X016554Y017975D01*
X015297Y016779D02*
X015220Y016855D01*
X015066Y016855D01*
X014990Y016779D01*
X014990Y016702D01*
X015066Y016625D01*
X015297Y016625D01*
X015297Y016472D02*
X015297Y016779D01*
X015297Y016472D02*
X015220Y016395D01*
X015066Y016395D01*
X014990Y016472D01*
X014836Y016472D02*
X014759Y016395D01*
X014606Y016395D01*
X014529Y016472D01*
X014529Y016779D01*
X014606Y016855D01*
X014759Y016855D01*
X014836Y016779D01*
X013917Y017272D02*
X013840Y017195D01*
X013686Y017195D01*
X013610Y017272D01*
X013610Y017348D01*
X013686Y017425D01*
X013840Y017425D01*
X013917Y017348D01*
X013917Y017272D01*
X013840Y017425D02*
X013917Y017502D01*
X013917Y017579D01*
X013840Y017655D01*
X013686Y017655D01*
X013610Y017579D01*
X013610Y017502D01*
X013686Y017425D01*
X013456Y017195D02*
X013149Y017195D01*
X013303Y017195D02*
X013303Y017655D01*
X013149Y017502D01*
X012996Y017579D02*
X012919Y017655D01*
X012766Y017655D01*
X012689Y017579D01*
X012689Y017272D01*
X012766Y017195D01*
X012919Y017195D01*
X012996Y017272D01*
X012839Y018222D02*
X012762Y018222D01*
X012685Y018299D01*
X012608Y018222D01*
X012532Y018222D01*
X012455Y018299D01*
X012455Y018452D01*
X012532Y018529D01*
X012455Y018683D02*
X012455Y018990D01*
X012762Y018683D01*
X012839Y018683D01*
X012915Y018759D01*
X012915Y018913D01*
X012839Y018990D01*
X012839Y019143D02*
X012915Y019220D01*
X012915Y019373D01*
X012839Y019450D01*
X012532Y019450D01*
X012455Y019373D01*
X012455Y019220D01*
X012532Y019143D01*
X012839Y018529D02*
X012915Y018452D01*
X012915Y018299D01*
X012839Y018222D01*
X012685Y018299D02*
X012685Y018376D01*
X012776Y020201D02*
X012776Y020508D01*
X012776Y020355D02*
X013236Y020355D01*
X013083Y020508D01*
X012776Y020662D02*
X012776Y020969D01*
X013236Y020969D01*
X011790Y022759D02*
X011790Y023143D01*
X011714Y023219D01*
X011560Y023219D01*
X011483Y023143D01*
X011483Y022759D01*
X011330Y022836D02*
X011253Y022759D01*
X011100Y022759D01*
X011023Y022836D01*
X011023Y022912D01*
X011100Y022989D01*
X011023Y023066D01*
X011023Y023143D01*
X011100Y023219D01*
X011253Y023219D01*
X011330Y023143D01*
X011176Y022989D02*
X011100Y022989D01*
X012020Y022970D02*
X012020Y024860D01*
X012690Y025530D01*
X012926Y025530D01*
X013674Y025530D02*
X013910Y025530D01*
X014580Y024860D01*
X014580Y022970D01*
X013674Y022970D01*
X012926Y022970D02*
X012020Y022970D01*
X013674Y023089D02*
X013738Y023111D01*
X013801Y023138D01*
X013863Y023168D01*
X013922Y023201D01*
X013980Y023237D01*
X014036Y023277D01*
X014089Y023320D01*
X014140Y023365D01*
X014188Y023413D01*
X014233Y023464D01*
X014276Y023518D01*
X014315Y023574D01*
X014352Y023631D01*
X014385Y023691D01*
X014414Y023753D01*
X014440Y023816D01*
X014463Y023880D01*
X014482Y023946D01*
X014497Y024013D01*
X014508Y024080D01*
X014516Y024148D01*
X014520Y024216D01*
X014520Y024284D01*
X014516Y024352D01*
X014508Y024420D01*
X014497Y024487D01*
X014482Y024554D01*
X014463Y024620D01*
X014440Y024684D01*
X014414Y024747D01*
X014385Y024809D01*
X014352Y024869D01*
X014315Y024926D01*
X014276Y024982D01*
X014233Y025036D01*
X014188Y025087D01*
X014140Y025135D01*
X014089Y025180D01*
X014036Y025223D01*
X013980Y025263D01*
X013922Y025299D01*
X013863Y025332D01*
X013801Y025362D01*
X013738Y025389D01*
X013674Y025411D01*
X012926Y025411D02*
X012862Y025389D01*
X012799Y025362D01*
X012737Y025332D01*
X012678Y025299D01*
X012620Y025263D01*
X012564Y025223D01*
X012511Y025180D01*
X012460Y025135D01*
X012412Y025087D01*
X012367Y025036D01*
X012324Y024982D01*
X012285Y024926D01*
X012248Y024869D01*
X012215Y024809D01*
X012186Y024747D01*
X012160Y024684D01*
X012137Y024620D01*
X012118Y024554D01*
X012103Y024487D01*
X012092Y024420D01*
X012084Y024352D01*
X012080Y024284D01*
X012080Y024216D01*
X012084Y024148D01*
X012092Y024080D01*
X012103Y024013D01*
X012118Y023946D01*
X012137Y023880D01*
X012160Y023816D01*
X012186Y023753D01*
X012215Y023691D01*
X012248Y023631D01*
X012285Y023574D01*
X012324Y023518D01*
X012367Y023464D01*
X012412Y023413D01*
X012460Y023365D01*
X012511Y023320D01*
X012564Y023277D01*
X012620Y023237D01*
X012678Y023201D01*
X012737Y023168D01*
X012799Y023138D01*
X012862Y023111D01*
X012926Y023089D01*
X015050Y022960D02*
X015050Y025240D01*
X017350Y025240D02*
X017350Y022960D01*
X017620Y022949D02*
X017620Y023179D01*
X017696Y023256D01*
X018003Y023256D01*
X018080Y023179D01*
X018080Y022949D01*
X017620Y022949D01*
X017850Y023410D02*
X017850Y023640D01*
X017927Y023717D01*
X018003Y023717D01*
X018080Y023640D01*
X018080Y023486D01*
X018003Y023410D01*
X017850Y023410D01*
X017696Y023563D01*
X017620Y023717D01*
X010377Y026720D02*
X010223Y026720D01*
X010300Y026720D02*
X010300Y027103D01*
X010377Y027180D01*
X010453Y027180D01*
X010530Y027103D01*
X010070Y027103D02*
X009993Y027180D01*
X009839Y027180D01*
X009763Y027103D01*
X009763Y027027D01*
X009839Y026950D01*
X010070Y026950D01*
X010070Y027103D01*
X010070Y026950D02*
X009916Y026796D01*
X009763Y026720D01*
X009610Y026730D02*
X010280Y026060D01*
X010280Y024170D01*
X009374Y024170D01*
X008626Y024170D02*
X007720Y024170D01*
X007720Y026060D01*
X008390Y026730D01*
X008626Y026730D01*
X009374Y026730D02*
X009610Y026730D01*
X009277Y027820D02*
X009123Y027820D01*
X009200Y027820D02*
X009200Y028203D01*
X009277Y028280D01*
X009353Y028280D01*
X009430Y028203D01*
X008970Y028280D02*
X008663Y027973D01*
X008663Y027896D01*
X008739Y027820D01*
X008893Y027820D01*
X008970Y027896D01*
X008970Y028280D02*
X008663Y028280D01*
X007180Y027048D02*
X007180Y026741D01*
X007103Y026665D01*
X006950Y026665D01*
X006873Y026741D01*
X006720Y026818D02*
X006566Y026665D01*
X006566Y027125D01*
X006413Y027125D02*
X006720Y027125D01*
X006873Y027048D02*
X006950Y027125D01*
X007103Y027125D01*
X007180Y027048D01*
X006259Y027048D02*
X006182Y027125D01*
X006029Y027125D01*
X005952Y027048D01*
X005952Y026972D01*
X006029Y026895D01*
X006106Y026895D01*
X006029Y026895D02*
X005952Y026818D01*
X005952Y026741D01*
X006029Y026665D01*
X006182Y026665D01*
X006259Y026741D01*
X005864Y026419D02*
X005710Y026419D01*
X005633Y026343D01*
X005633Y025959D01*
X005480Y026112D02*
X005326Y025959D01*
X005326Y026419D01*
X005173Y026419D02*
X005480Y026419D01*
X005019Y026343D02*
X004943Y026419D01*
X004789Y026419D01*
X004713Y026343D01*
X004713Y026189D01*
X004789Y026112D01*
X004866Y026112D01*
X005019Y026189D01*
X005019Y025959D01*
X004713Y025959D01*
X004667Y025670D02*
X004974Y025670D01*
X004667Y025363D01*
X004667Y025286D01*
X004744Y025210D01*
X004897Y025210D01*
X004974Y025286D01*
X005128Y025286D02*
X005204Y025210D01*
X005358Y025210D01*
X005435Y025286D01*
X005588Y025286D02*
X005588Y025440D01*
X005665Y025517D01*
X005895Y025517D01*
X005895Y025670D02*
X005895Y025210D01*
X005665Y025210D01*
X005588Y025286D01*
X005742Y025517D02*
X005588Y025670D01*
X005435Y025670D02*
X005128Y025363D01*
X005128Y025286D01*
X005128Y025670D02*
X005435Y025670D01*
X005940Y025959D02*
X005940Y026343D01*
X005864Y026419D01*
X005920Y027235D02*
X005690Y027235D01*
X005613Y027311D01*
X005613Y027465D01*
X005690Y027542D01*
X005920Y027542D01*
X005920Y027695D02*
X005920Y027235D01*
X005767Y027542D02*
X005613Y027695D01*
X005460Y027695D02*
X005153Y027695D01*
X005306Y027695D02*
X005306Y027235D01*
X005460Y027388D01*
X004999Y027388D02*
X004922Y027465D01*
X004692Y027465D01*
X004692Y027618D02*
X004692Y027311D01*
X004769Y027235D01*
X004922Y027235D01*
X004999Y027311D01*
X004999Y027388D01*
X004999Y027618D02*
X004922Y027695D01*
X004769Y027695D01*
X004692Y027618D01*
X004315Y026930D02*
X003855Y026930D01*
X004008Y026930D02*
X004008Y026700D01*
X004085Y026623D01*
X004239Y026623D01*
X004315Y026700D01*
X004315Y026930D01*
X004008Y026777D02*
X003855Y026623D01*
X003855Y026470D02*
X004162Y026163D01*
X004239Y026163D01*
X004315Y026239D01*
X004315Y026393D01*
X004239Y026470D01*
X003855Y026470D02*
X003855Y026163D01*
X003932Y026009D02*
X003855Y025932D01*
X003855Y025779D01*
X003932Y025702D01*
X004008Y025702D01*
X004085Y025779D01*
X004085Y025856D01*
X004085Y025779D02*
X004162Y025702D01*
X004239Y025702D01*
X004315Y025779D01*
X004315Y025932D01*
X004239Y026009D01*
X004220Y030260D02*
X004220Y030720D01*
X003913Y030720D01*
X003760Y030720D02*
X003453Y030720D01*
X003299Y030720D02*
X003069Y030720D01*
X002992Y030643D01*
X002992Y030336D01*
X003069Y030260D01*
X003299Y030260D01*
X003299Y030720D01*
X003606Y030490D02*
X003760Y030490D01*
X003760Y030260D02*
X003760Y030720D01*
X003760Y030260D02*
X003453Y030260D01*
X002839Y030413D02*
X002685Y030260D01*
X002685Y030720D01*
X002532Y030720D02*
X002839Y030720D01*
X009374Y026611D02*
X009438Y026589D01*
X009501Y026562D01*
X009563Y026532D01*
X009622Y026499D01*
X009680Y026463D01*
X009736Y026423D01*
X009789Y026380D01*
X009840Y026335D01*
X009888Y026287D01*
X009933Y026236D01*
X009976Y026182D01*
X010015Y026126D01*
X010052Y026069D01*
X010085Y026009D01*
X010114Y025947D01*
X010140Y025884D01*
X010163Y025820D01*
X010182Y025754D01*
X010197Y025687D01*
X010208Y025620D01*
X010216Y025552D01*
X010220Y025484D01*
X010220Y025416D01*
X010216Y025348D01*
X010208Y025280D01*
X010197Y025213D01*
X010182Y025146D01*
X010163Y025080D01*
X010140Y025016D01*
X010114Y024953D01*
X010085Y024891D01*
X010052Y024831D01*
X010015Y024774D01*
X009976Y024718D01*
X009933Y024664D01*
X009888Y024613D01*
X009840Y024565D01*
X009789Y024520D01*
X009736Y024477D01*
X009680Y024437D01*
X009622Y024401D01*
X009563Y024368D01*
X009501Y024338D01*
X009438Y024311D01*
X009374Y024289D01*
X008626Y024289D02*
X008562Y024311D01*
X008499Y024338D01*
X008437Y024368D01*
X008378Y024401D01*
X008320Y024437D01*
X008264Y024477D01*
X008211Y024520D01*
X008160Y024565D01*
X008112Y024613D01*
X008067Y024664D01*
X008024Y024718D01*
X007985Y024774D01*
X007948Y024831D01*
X007915Y024891D01*
X007886Y024953D01*
X007860Y025016D01*
X007837Y025080D01*
X007818Y025146D01*
X007803Y025213D01*
X007792Y025280D01*
X007784Y025348D01*
X007780Y025416D01*
X007780Y025484D01*
X007784Y025552D01*
X007792Y025620D01*
X007803Y025687D01*
X007818Y025754D01*
X007837Y025820D01*
X007860Y025884D01*
X007886Y025947D01*
X007915Y026009D01*
X007948Y026069D01*
X007985Y026126D01*
X008024Y026182D01*
X008067Y026236D01*
X008112Y026287D01*
X008160Y026335D01*
X008211Y026380D01*
X008264Y026423D01*
X008320Y026463D01*
X008378Y026499D01*
X008437Y026532D01*
X008499Y026562D01*
X008562Y026589D01*
X008626Y026611D01*
X003280Y019670D02*
X002820Y019670D01*
X002820Y019440D01*
X002897Y019363D01*
X003204Y019363D01*
X003280Y019440D01*
X003280Y019670D01*
X003127Y019210D02*
X003280Y019056D01*
X002820Y019056D01*
X002820Y018903D02*
X002820Y019210D01*
X007097Y014730D02*
X007020Y014653D01*
X007020Y014500D01*
X007097Y014423D01*
X007097Y014270D02*
X007020Y014193D01*
X007020Y014039D01*
X007097Y013963D01*
X007250Y013963D01*
X007327Y014039D01*
X007327Y014116D01*
X007250Y014270D01*
X007480Y014270D01*
X007480Y013963D01*
X007404Y014423D02*
X007480Y014500D01*
X007480Y014653D01*
X007404Y014730D01*
X007097Y014730D01*
X007047Y011830D02*
X006970Y011753D01*
X006970Y011600D01*
X007047Y011523D01*
X007200Y011370D02*
X007200Y011063D01*
X006970Y011139D02*
X007430Y011139D01*
X007200Y011370D01*
X007354Y011523D02*
X007430Y011600D01*
X007430Y011753D01*
X007354Y011830D01*
X007047Y011830D01*
X006164Y010660D02*
X005780Y010660D01*
X005704Y010583D01*
X005704Y010430D01*
X005780Y010353D01*
X006164Y010353D01*
X006010Y010200D02*
X006164Y010046D01*
X005704Y010046D01*
X005704Y009893D02*
X005704Y010200D01*
X002884Y010589D02*
X002884Y010743D01*
X002807Y010820D01*
X002884Y010973D02*
X002500Y010973D01*
X002423Y011050D01*
X002423Y011203D01*
X002500Y011280D01*
X002884Y011280D01*
X002423Y010820D02*
X002730Y010513D01*
X002807Y010513D01*
X002884Y010589D01*
X002423Y010513D02*
X002423Y010820D01*
X002090Y007300D02*
X004370Y007300D01*
X004370Y005000D02*
X002090Y005000D01*
X002950Y004830D02*
X002950Y004370D01*
X003180Y004370D01*
X003257Y004447D01*
X003257Y004754D01*
X003180Y004830D01*
X002950Y004830D01*
X003410Y004754D02*
X003487Y004830D01*
X003641Y004830D01*
X003717Y004754D01*
X003717Y004677D01*
X003410Y004370D01*
X003717Y004370D01*
X005020Y004430D02*
X005926Y004430D01*
X006674Y004430D02*
X007580Y004430D01*
X007580Y002540D01*
X006910Y001870D01*
X006674Y001870D01*
X005926Y001870D02*
X005690Y001870D01*
X005020Y002540D01*
X005020Y004430D01*
X006674Y004311D02*
X006738Y004289D01*
X006801Y004262D01*
X006863Y004232D01*
X006922Y004199D01*
X006980Y004163D01*
X007036Y004123D01*
X007089Y004080D01*
X007140Y004035D01*
X007188Y003987D01*
X007233Y003936D01*
X007276Y003882D01*
X007315Y003826D01*
X007352Y003769D01*
X007385Y003709D01*
X007414Y003647D01*
X007440Y003584D01*
X007463Y003520D01*
X007482Y003454D01*
X007497Y003387D01*
X007508Y003320D01*
X007516Y003252D01*
X007520Y003184D01*
X007520Y003116D01*
X007516Y003048D01*
X007508Y002980D01*
X007497Y002913D01*
X007482Y002846D01*
X007463Y002780D01*
X007440Y002716D01*
X007414Y002653D01*
X007385Y002591D01*
X007352Y002531D01*
X007315Y002474D01*
X007276Y002418D01*
X007233Y002364D01*
X007188Y002313D01*
X007140Y002265D01*
X007089Y002220D01*
X007036Y002177D01*
X006980Y002137D01*
X006922Y002101D01*
X006863Y002068D01*
X006801Y002038D01*
X006738Y002011D01*
X006674Y001989D01*
X006790Y001005D02*
X006560Y000775D01*
X006867Y000775D01*
X006790Y000545D02*
X006790Y001005D01*
X006253Y001005D02*
X006253Y000545D01*
X006406Y000545D02*
X006099Y000545D01*
X005946Y000622D02*
X005869Y000545D01*
X005716Y000545D01*
X005639Y000622D01*
X005639Y000929D01*
X005716Y001005D01*
X005869Y001005D01*
X005946Y000929D01*
X006099Y000852D02*
X006253Y001005D01*
X005359Y001710D02*
X005282Y001634D01*
X005129Y001634D01*
X005052Y001710D01*
X005052Y001864D02*
X005205Y001941D01*
X005282Y001941D01*
X005359Y001864D01*
X005359Y001710D01*
X005052Y001864D02*
X005052Y002094D01*
X005359Y002094D01*
X004898Y001634D02*
X004591Y001634D01*
X004745Y001634D02*
X004745Y002094D01*
X004591Y001941D01*
X004438Y002017D02*
X004361Y002094D01*
X004208Y002094D01*
X004131Y002017D01*
X004131Y001710D01*
X004208Y001634D01*
X004361Y001634D01*
X004438Y001710D01*
X005926Y001989D02*
X005862Y002011D01*
X005799Y002038D01*
X005737Y002068D01*
X005678Y002101D01*
X005620Y002137D01*
X005564Y002177D01*
X005511Y002220D01*
X005460Y002265D01*
X005412Y002313D01*
X005367Y002364D01*
X005324Y002418D01*
X005285Y002474D01*
X005248Y002531D01*
X005215Y002591D01*
X005186Y002653D01*
X005160Y002716D01*
X005137Y002780D01*
X005118Y002846D01*
X005103Y002913D01*
X005092Y002980D01*
X005084Y003048D01*
X005080Y003116D01*
X005080Y003184D01*
X005084Y003252D01*
X005092Y003320D01*
X005103Y003387D01*
X005118Y003454D01*
X005137Y003520D01*
X005160Y003584D01*
X005186Y003647D01*
X005215Y003709D01*
X005248Y003769D01*
X005285Y003826D01*
X005324Y003882D01*
X005367Y003936D01*
X005412Y003987D01*
X005460Y004035D01*
X005511Y004080D01*
X005564Y004123D01*
X005620Y004163D01*
X005678Y004199D01*
X005737Y004232D01*
X005799Y004262D01*
X005862Y004289D01*
X005926Y004311D01*
X008420Y005040D02*
X008420Y006930D01*
X009326Y006930D01*
X010074Y006930D02*
X010980Y006930D01*
X010980Y005040D01*
X010310Y004370D01*
X010074Y004370D01*
X010349Y004097D02*
X010426Y004020D01*
X010503Y004020D01*
X010579Y004097D01*
X010579Y004480D01*
X010503Y004480D02*
X010656Y004480D01*
X010810Y004327D02*
X010963Y004480D01*
X010963Y004020D01*
X010810Y004020D02*
X011117Y004020D01*
X009326Y004370D02*
X009090Y004370D01*
X008420Y005040D01*
X010074Y004489D02*
X010138Y004511D01*
X010201Y004538D01*
X010263Y004568D01*
X010322Y004601D01*
X010380Y004637D01*
X010436Y004677D01*
X010489Y004720D01*
X010540Y004765D01*
X010588Y004813D01*
X010633Y004864D01*
X010676Y004918D01*
X010715Y004974D01*
X010752Y005031D01*
X010785Y005091D01*
X010814Y005153D01*
X010840Y005216D01*
X010863Y005280D01*
X010882Y005346D01*
X010897Y005413D01*
X010908Y005480D01*
X010916Y005548D01*
X010920Y005616D01*
X010920Y005684D01*
X010916Y005752D01*
X010908Y005820D01*
X010897Y005887D01*
X010882Y005954D01*
X010863Y006020D01*
X010840Y006084D01*
X010814Y006147D01*
X010785Y006209D01*
X010752Y006269D01*
X010715Y006326D01*
X010676Y006382D01*
X010633Y006436D01*
X010588Y006487D01*
X010540Y006535D01*
X010489Y006580D01*
X010436Y006623D01*
X010380Y006663D01*
X010322Y006699D01*
X010263Y006732D01*
X010201Y006762D01*
X010138Y006789D01*
X010074Y006811D01*
X010965Y007137D02*
X010965Y007290D01*
X011041Y007367D01*
X011118Y007520D02*
X010965Y007674D01*
X011425Y007674D01*
X011425Y007827D02*
X011425Y007520D01*
X011348Y007367D02*
X011425Y007290D01*
X011425Y007137D01*
X011348Y007060D01*
X011041Y007060D01*
X010965Y007137D01*
X010502Y007824D02*
X010502Y007900D01*
X010809Y008207D01*
X010809Y008284D01*
X010502Y008284D01*
X010195Y008284D02*
X010041Y008131D01*
X009888Y008207D02*
X009811Y008284D01*
X009658Y008284D01*
X009581Y008207D01*
X009581Y007900D01*
X009658Y007824D01*
X009811Y007824D01*
X009888Y007900D01*
X010041Y007824D02*
X010348Y007824D01*
X010195Y007824D02*
X010195Y008284D01*
X010965Y008288D02*
X011041Y008134D01*
X011195Y007981D01*
X011195Y008211D01*
X011272Y008288D01*
X011348Y008288D01*
X011425Y008211D01*
X011425Y008058D01*
X011348Y007981D01*
X011195Y007981D01*
X011999Y008247D02*
X011999Y008554D01*
X012076Y008630D01*
X012229Y008630D01*
X012306Y008554D01*
X012460Y008554D02*
X012536Y008630D01*
X012690Y008630D01*
X012767Y008554D01*
X012767Y008477D01*
X012460Y008170D01*
X012767Y008170D01*
X012306Y008247D02*
X012229Y008170D01*
X012076Y008170D01*
X011999Y008247D01*
X010940Y009395D02*
X010786Y009395D01*
X010710Y009472D01*
X010710Y009625D02*
X010863Y009702D01*
X010940Y009702D01*
X011017Y009625D01*
X011017Y009472D01*
X010940Y009395D01*
X010710Y009625D02*
X010710Y009855D01*
X011017Y009855D01*
X010556Y009779D02*
X010556Y009702D01*
X010249Y009395D01*
X010556Y009395D01*
X010556Y009779D02*
X010479Y009855D01*
X010326Y009855D01*
X010249Y009779D01*
X010096Y009779D02*
X010019Y009855D01*
X009866Y009855D01*
X009789Y009779D01*
X009789Y009472D01*
X009866Y009395D01*
X010019Y009395D01*
X010096Y009472D01*
X012859Y006170D02*
X012859Y005786D01*
X012936Y005709D01*
X013090Y005709D01*
X013166Y005786D01*
X013166Y006170D01*
X013320Y006170D02*
X013320Y005940D01*
X013473Y006016D01*
X013550Y006016D01*
X013627Y005940D01*
X013627Y005786D01*
X013550Y005709D01*
X013397Y005709D01*
X013320Y005786D01*
X013320Y006170D02*
X013627Y006170D01*
X015100Y006310D02*
X015100Y008590D01*
X015649Y009270D02*
X015879Y009270D01*
X015956Y009347D01*
X015956Y009654D01*
X015879Y009730D01*
X015649Y009730D01*
X015649Y009270D01*
X016110Y009500D02*
X016417Y009500D01*
X016340Y009270D02*
X016340Y009730D01*
X016110Y009500D01*
X017400Y008590D02*
X017400Y006310D01*
X020316Y010795D02*
X020239Y010872D01*
X020239Y011179D01*
X020316Y011255D01*
X020469Y011255D01*
X020546Y011179D01*
X020699Y011102D02*
X020853Y011255D01*
X020853Y010795D01*
X021006Y010795D02*
X020699Y010795D01*
X020546Y010872D02*
X020469Y010795D01*
X020316Y010795D01*
X021160Y010795D02*
X021467Y010795D01*
X021313Y010795D02*
X021313Y011255D01*
X021160Y011102D01*
X023556Y014505D02*
X023709Y014505D01*
X023786Y014582D01*
X023939Y014505D02*
X024246Y014505D01*
X024093Y014505D02*
X024093Y014965D01*
X023939Y014812D01*
X023786Y014889D02*
X023709Y014965D01*
X023556Y014965D01*
X023479Y014889D01*
X023479Y014582D01*
X023556Y014505D01*
X024400Y014582D02*
X024707Y014889D01*
X024707Y014582D01*
X024630Y014505D01*
X024476Y014505D01*
X024400Y014582D01*
X024400Y014889D01*
X024476Y014965D01*
X024630Y014965D01*
X024707Y014889D01*
X028296Y007583D02*
X028210Y007496D01*
X028210Y007322D01*
X028296Y007236D01*
X028296Y007067D02*
X028383Y007067D01*
X028470Y006980D01*
X028557Y007067D01*
X028643Y007067D01*
X028730Y006980D01*
X028730Y006807D01*
X028643Y006720D01*
X028470Y006893D02*
X028470Y006980D01*
X028296Y007067D02*
X028210Y006980D01*
X028210Y006807D01*
X028296Y006720D01*
X028730Y007236D02*
X028383Y007583D01*
X028296Y007583D01*
X028730Y007583D02*
X028730Y007236D01*
X029092Y005330D02*
X029246Y005330D01*
X029169Y005330D02*
X029169Y004947D01*
X029092Y004870D01*
X029016Y004870D01*
X028939Y004947D01*
X029399Y004870D02*
X029706Y005177D01*
X029706Y005254D01*
X029629Y005330D01*
X029476Y005330D01*
X029399Y005254D01*
X029399Y004870D02*
X029706Y004870D01*
X029860Y004947D02*
X030167Y005254D01*
X030167Y004947D01*
X030090Y004870D01*
X029936Y004870D01*
X029860Y004947D01*
X029860Y005254D01*
X029936Y005330D01*
X030090Y005330D01*
X030167Y005254D01*
X031020Y005240D02*
X031096Y005317D01*
X031173Y005317D01*
X031250Y005240D01*
X031250Y005086D01*
X031173Y005010D01*
X031096Y005010D01*
X031020Y005086D01*
X031020Y005240D01*
X031250Y005240D02*
X031327Y005317D01*
X031403Y005317D01*
X031480Y005240D01*
X031480Y005086D01*
X031403Y005010D01*
X031327Y005010D01*
X031250Y005086D01*
X031020Y004856D02*
X031020Y004703D01*
X031020Y004779D02*
X031403Y004779D01*
X031480Y004703D01*
X031480Y004626D01*
X031403Y004549D01*
X030194Y004190D02*
X030197Y003883D01*
X030195Y004113D02*
X029888Y004110D01*
X029887Y004187D02*
X030039Y004342D01*
X030194Y004190D01*
X029887Y004187D02*
X029891Y003880D01*
X029736Y003955D02*
X029733Y004262D01*
X029656Y004338D01*
X029425Y004335D01*
X029430Y003875D01*
X029660Y003877D01*
X029736Y003955D01*
X029276Y003950D02*
X029200Y003873D01*
X029047Y003871D01*
X028969Y003947D01*
X029044Y004101D02*
X029198Y004103D01*
X029275Y004027D01*
X029276Y003950D01*
X029044Y004101D02*
X028967Y004177D01*
X028966Y004254D01*
X029042Y004331D01*
X029195Y004333D01*
X029273Y004257D01*
X029145Y003333D02*
X028992Y003331D01*
X028916Y003254D01*
X028917Y003177D01*
X028994Y003101D01*
X029148Y003103D01*
X029225Y003027D01*
X029226Y002950D01*
X029150Y002873D01*
X028997Y002871D01*
X028919Y002947D01*
X029223Y003257D02*
X029145Y003333D01*
X029376Y003259D02*
X029379Y002952D01*
X029457Y002876D01*
X029610Y002877D01*
X029686Y002955D01*
X029841Y002880D02*
X030147Y002883D01*
X029841Y002880D02*
X029836Y003340D01*
X029683Y003262D02*
X029606Y003338D01*
X029452Y003336D01*
X029376Y003259D01*
X029330Y002280D02*
X029637Y001820D01*
X029637Y002280D01*
X029791Y002280D02*
X030021Y002280D01*
X030098Y002204D01*
X030098Y001897D01*
X030021Y001820D01*
X029791Y001820D01*
X029791Y002280D01*
X029330Y002280D02*
X029330Y001820D01*
X029177Y001897D02*
X029177Y002050D01*
X029023Y002050D01*
X028870Y001897D02*
X028947Y001820D01*
X029100Y001820D01*
X029177Y001897D01*
X029177Y002204D02*
X029100Y002280D01*
X028947Y002280D01*
X028870Y002204D01*
X028870Y001897D01*
X016548Y012690D02*
X016241Y012690D01*
X016394Y012690D02*
X016394Y013150D01*
X016241Y012997D01*
X016087Y012690D02*
X015780Y012690D01*
X015934Y012690D02*
X015934Y013150D01*
X015780Y012997D01*
X015627Y013150D02*
X015627Y012767D01*
X015550Y012690D01*
X015397Y012690D01*
X015320Y012767D01*
X015320Y013150D01*
X015388Y015155D02*
X015081Y015155D01*
X015388Y015462D01*
X015388Y015539D01*
X015311Y015615D01*
X015158Y015615D01*
X015081Y015539D01*
X014774Y015615D02*
X014774Y015155D01*
X014927Y015155D02*
X014620Y015155D01*
X014467Y015232D02*
X014390Y015155D01*
X014237Y015155D01*
X014160Y015232D01*
X014160Y015539D01*
X014237Y015615D01*
X014390Y015615D01*
X014467Y015539D01*
X014620Y015462D02*
X014774Y015615D01*
X013290Y014530D02*
X013290Y014070D01*
X013367Y014300D02*
X013060Y014300D01*
X013290Y014530D01*
X012906Y014454D02*
X012906Y014377D01*
X012599Y014070D01*
X012906Y014070D01*
X012446Y014147D02*
X012369Y014070D01*
X012216Y014070D01*
X012139Y014147D01*
X012139Y014454D01*
X012216Y014530D01*
X012369Y014530D01*
X012446Y014454D01*
X012599Y014454D02*
X012676Y014530D01*
X012829Y014530D01*
X012906Y014454D01*
X009326Y006811D02*
X009262Y006789D01*
X009199Y006762D01*
X009137Y006732D01*
X009078Y006699D01*
X009020Y006663D01*
X008964Y006623D01*
X008911Y006580D01*
X008860Y006535D01*
X008812Y006487D01*
X008767Y006436D01*
X008724Y006382D01*
X008685Y006326D01*
X008648Y006269D01*
X008615Y006209D01*
X008586Y006147D01*
X008560Y006084D01*
X008537Y006020D01*
X008518Y005954D01*
X008503Y005887D01*
X008492Y005820D01*
X008484Y005752D01*
X008480Y005684D01*
X008480Y005616D01*
X008484Y005548D01*
X008492Y005480D01*
X008503Y005413D01*
X008518Y005346D01*
X008537Y005280D01*
X008560Y005216D01*
X008586Y005153D01*
X008615Y005091D01*
X008648Y005031D01*
X008685Y004974D01*
X008724Y004918D01*
X008767Y004864D01*
X008812Y004813D01*
X008860Y004765D01*
X008911Y004720D01*
X008964Y004677D01*
X009020Y004637D01*
X009078Y004601D01*
X009137Y004568D01*
X009199Y004538D01*
X009262Y004511D01*
X009326Y004489D01*
X008800Y001041D02*
X008570Y000811D01*
X008877Y000811D01*
X008800Y000581D02*
X008800Y001041D01*
X008417Y001041D02*
X008417Y000657D01*
X008340Y000581D01*
X008186Y000581D01*
X008110Y000657D01*
X008110Y001041D01*
D12*
X009700Y001650D02*
X011700Y001650D01*
X011700Y003650D01*
X009700Y003650D01*
X009700Y001650D01*
X010068Y001132D02*
X010475Y001132D01*
X010170Y001132D02*
X010170Y000725D01*
X010068Y000725D02*
X009864Y000929D01*
X010068Y001132D01*
X010068Y000725D02*
X010475Y000725D01*
X010914Y000725D02*
X010914Y001030D01*
X011016Y001132D01*
X011118Y001132D01*
X011220Y001030D01*
X011220Y000725D01*
X011525Y000725D02*
X011525Y001030D01*
X011423Y001132D01*
X011321Y001132D01*
X011220Y001030D01*
X011525Y000725D02*
X010914Y000725D01*
X011914Y000929D02*
X012525Y000929D01*
X012525Y001132D02*
X012525Y000725D01*
X012864Y000827D02*
X012864Y001030D01*
X012966Y001132D01*
X013068Y001132D01*
X013475Y000725D01*
X013475Y001132D01*
X013964Y001030D02*
X013964Y000827D01*
X014066Y000725D01*
X014270Y000929D02*
X014270Y001030D01*
X014371Y001132D01*
X014473Y001132D01*
X014575Y001030D01*
X014575Y000827D01*
X014473Y000725D01*
X014270Y001030D02*
X014168Y001132D01*
X014066Y001132D01*
X013964Y001030D01*
X014914Y001030D02*
X015220Y000725D01*
X015220Y001132D01*
X015525Y001030D02*
X014914Y001030D01*
X015864Y001033D02*
X016475Y001033D01*
X016475Y001440D01*
X016170Y001236D02*
X016170Y001033D01*
X015864Y001033D02*
X015864Y001440D01*
X016914Y001030D02*
X016914Y000827D01*
X017016Y000725D01*
X017118Y000725D01*
X017220Y000827D01*
X017220Y001132D01*
X017423Y001132D02*
X017016Y001132D01*
X016914Y001030D01*
X017423Y001132D02*
X017525Y001030D01*
X017525Y000827D01*
X017423Y000725D01*
X017864Y000629D02*
X018068Y000425D01*
X017864Y000629D02*
X018475Y000629D01*
X018475Y000832D02*
X018475Y000425D01*
X018864Y000629D02*
X019475Y000629D01*
X019475Y000832D02*
X019475Y000425D01*
X019068Y000425D02*
X018864Y000629D01*
X019068Y001033D02*
X018864Y001236D01*
X019475Y001236D01*
X019475Y001033D02*
X019475Y001440D01*
X019864Y001338D02*
X019864Y001134D01*
X019966Y001033D01*
X019864Y001338D02*
X019966Y001440D01*
X020068Y001440D01*
X020475Y001033D01*
X020475Y001440D01*
X020964Y001338D02*
X020964Y001134D01*
X021066Y001033D01*
X021270Y001236D02*
X021270Y001338D01*
X021371Y001440D01*
X021473Y001440D01*
X021575Y001338D01*
X021575Y001134D01*
X021473Y001033D01*
X021575Y000832D02*
X021575Y000425D01*
X021575Y000629D02*
X020964Y000629D01*
X021168Y000425D01*
X020475Y000425D02*
X020475Y000832D01*
X020475Y000629D02*
X019864Y000629D01*
X020068Y000425D01*
X020964Y001338D02*
X021066Y001440D01*
X021168Y001440D01*
X021270Y001338D01*
X022014Y001338D02*
X022320Y001033D01*
X022320Y001440D01*
X022625Y001338D02*
X022014Y001338D01*
X022014Y000629D02*
X022625Y000629D01*
X022625Y000832D02*
X022625Y000425D01*
X022914Y000629D02*
X023525Y000629D01*
X023525Y000832D02*
X023525Y000425D01*
X023914Y000527D02*
X023914Y000730D01*
X024016Y000832D01*
X024118Y000832D01*
X024525Y000425D01*
X024525Y000832D01*
X024423Y001033D02*
X024525Y001134D01*
X024525Y001338D01*
X024423Y001440D01*
X024321Y001440D01*
X024220Y001338D01*
X024220Y001236D01*
X024220Y001338D02*
X024118Y001440D01*
X024016Y001440D01*
X023914Y001338D01*
X023914Y001134D01*
X024016Y001033D01*
X023525Y001134D02*
X023525Y001338D01*
X023423Y001440D01*
X023220Y001440D01*
X023118Y001338D01*
X023118Y001236D01*
X023220Y001033D01*
X022914Y001033D01*
X022914Y001440D01*
X023423Y001033D02*
X023525Y001134D01*
X023914Y000527D02*
X024016Y000425D01*
X023118Y000425D02*
X022914Y000629D01*
X022218Y000425D02*
X022014Y000629D01*
X024864Y000730D02*
X024864Y000527D01*
X024966Y000425D01*
X024864Y000730D02*
X024966Y000832D01*
X025068Y000832D01*
X025475Y000425D01*
X025475Y000832D01*
X025814Y000730D02*
X025814Y000527D01*
X025916Y000425D01*
X025814Y000730D02*
X025916Y000832D01*
X026018Y000832D01*
X026425Y000425D01*
X026425Y000832D01*
X026323Y001033D02*
X026425Y001134D01*
X026425Y001338D01*
X026323Y001440D01*
X026120Y001440D01*
X026018Y001338D01*
X026018Y001236D01*
X026120Y001033D01*
X025814Y001033D01*
X025814Y001440D01*
X025475Y001338D02*
X024864Y001338D01*
X025170Y001033D01*
X025170Y001440D01*
X026804Y001226D02*
X027008Y001226D01*
X026906Y001226D02*
X026906Y000615D01*
X026804Y000615D02*
X027008Y000615D01*
X027210Y000615D02*
X027617Y001022D01*
X027617Y001124D01*
X027515Y001226D01*
X027311Y001226D01*
X027210Y001124D01*
X027817Y001124D02*
X027817Y000717D01*
X027919Y000615D01*
X028123Y000615D01*
X028224Y000717D01*
X028224Y001124D02*
X028123Y001226D01*
X027919Y001226D01*
X027817Y001124D01*
X027617Y000615D02*
X027210Y000615D01*
X028700Y001650D02*
X011700Y001650D01*
X011700Y004650D01*
X028700Y004650D01*
X028700Y001650D01*
X028323Y004915D02*
X028119Y004915D01*
X028017Y005017D01*
X028017Y005424D01*
X028119Y005526D01*
X028323Y005526D01*
X028424Y005424D01*
X028424Y005017D02*
X028323Y004915D01*
X027817Y004915D02*
X027410Y004915D01*
X027817Y005322D01*
X027817Y005424D01*
X027715Y005526D01*
X027511Y005526D01*
X027410Y005424D01*
X027208Y005526D02*
X027004Y005526D01*
X027106Y005526D02*
X027106Y004915D01*
X027004Y004915D02*
X027208Y004915D01*
X031035Y006225D02*
X031035Y006400D01*
X031093Y006459D01*
X031327Y006459D01*
X031385Y006400D01*
X031385Y006225D01*
X031035Y006225D01*
X031035Y006593D02*
X031385Y006593D01*
X031385Y006827D01*
X031385Y006962D02*
X031035Y006962D01*
X031035Y007137D01*
X031093Y007195D01*
X031151Y007195D01*
X031210Y007137D01*
X031210Y006962D01*
X031210Y007137D02*
X031268Y007195D01*
X031327Y007195D01*
X031385Y007137D01*
X031385Y006962D01*
X031210Y006710D02*
X031210Y006593D01*
X031035Y006593D02*
X031035Y006827D01*
X031035Y007330D02*
X031327Y007330D01*
X031385Y007388D01*
X031385Y007505D01*
X031327Y007563D01*
X031035Y007563D01*
X031093Y007698D02*
X031327Y007698D01*
X031385Y007757D01*
X031385Y007873D01*
X031327Y007932D01*
X031210Y007932D01*
X031210Y007815D01*
X031093Y007698D02*
X031035Y007757D01*
X031035Y007873D01*
X031093Y007932D01*
X030985Y010535D02*
X030985Y010710D01*
X031043Y010769D01*
X031160Y010769D01*
X031218Y010710D01*
X031218Y010535D01*
X031335Y010535D02*
X030985Y010535D01*
X030755Y010578D02*
X030755Y010637D01*
X030697Y010695D01*
X030405Y010695D01*
X030405Y010637D02*
X030405Y010754D01*
X030521Y010888D02*
X030405Y011005D01*
X030755Y011005D01*
X030755Y010888D02*
X030755Y011122D01*
X030697Y011257D02*
X030755Y011315D01*
X030755Y011432D01*
X030697Y011490D01*
X030580Y011490D01*
X030521Y011432D01*
X030521Y011373D01*
X030580Y011257D01*
X030405Y011257D01*
X030405Y011490D01*
X030985Y011447D02*
X031043Y011505D01*
X031160Y011505D01*
X031218Y011447D01*
X031218Y011272D01*
X031218Y011388D02*
X031335Y011505D01*
X031335Y011272D02*
X030985Y011272D01*
X030985Y011447D01*
X030985Y011137D02*
X031335Y011137D01*
X031218Y011020D01*
X031335Y010903D01*
X030985Y010903D01*
X030755Y010578D02*
X030697Y010520D01*
X031074Y012721D02*
X031366Y012724D01*
X031424Y012783D01*
X031423Y012900D01*
X031364Y012958D01*
X031072Y012955D01*
X031187Y013091D02*
X031069Y013206D01*
X031185Y013324D01*
X031418Y013327D01*
X031417Y013461D02*
X031067Y013458D01*
X031065Y013633D01*
X031123Y013692D01*
X031239Y013693D01*
X031298Y013635D01*
X031300Y013460D01*
X031299Y013577D02*
X031415Y013695D01*
X031412Y013946D02*
X031062Y013943D01*
X031060Y014059D02*
X031063Y013826D01*
X030775Y013932D02*
X030425Y013932D01*
X030600Y013757D01*
X030600Y013990D01*
X030775Y013622D02*
X030775Y013388D01*
X030775Y013505D02*
X030425Y013505D01*
X030541Y013388D01*
X030425Y013254D02*
X030425Y013137D01*
X030425Y013195D02*
X030717Y013195D01*
X030775Y013137D01*
X030775Y013078D01*
X030717Y013020D01*
X031187Y013091D02*
X031421Y013093D01*
X031246Y013091D02*
X031243Y013325D01*
X031117Y014195D02*
X031058Y014253D01*
X031057Y014369D01*
X031115Y014428D01*
X031351Y014197D01*
X031409Y014256D01*
X031407Y014373D01*
X031348Y014431D01*
X031115Y014428D01*
X031117Y014195D02*
X031351Y014197D01*
X031925Y015925D02*
X031925Y016159D01*
X031925Y016293D02*
X032275Y016293D01*
X032275Y016527D01*
X032217Y016662D02*
X032275Y016720D01*
X032275Y016837D01*
X032217Y016895D01*
X031983Y016895D01*
X031925Y016837D01*
X031925Y016720D01*
X031983Y016662D01*
X032217Y016662D01*
X032275Y017030D02*
X031925Y017030D01*
X031925Y017263D02*
X032275Y017263D01*
X032158Y017147D01*
X032275Y017030D01*
X031555Y017040D02*
X031497Y016982D01*
X031555Y017040D02*
X031555Y017157D01*
X031497Y017215D01*
X031438Y017215D01*
X031380Y017157D01*
X031380Y017098D01*
X031380Y017157D02*
X031321Y017215D01*
X031263Y017215D01*
X031205Y017157D01*
X031205Y017040D01*
X031263Y016982D01*
X031205Y016730D02*
X031555Y016730D01*
X031555Y016613D02*
X031555Y016847D01*
X031321Y016613D02*
X031205Y016730D01*
X031205Y016479D02*
X031205Y016362D01*
X031205Y016420D02*
X031497Y016420D01*
X031555Y016362D01*
X031555Y016303D01*
X031497Y016245D01*
X031925Y015925D02*
X032275Y015925D01*
X032100Y015925D02*
X032100Y016042D01*
X031217Y018825D02*
X031275Y018883D01*
X031275Y019000D01*
X031217Y019059D01*
X030925Y019059D01*
X031041Y019193D02*
X030925Y019310D01*
X031041Y019427D01*
X031275Y019427D01*
X031275Y019562D02*
X030925Y019562D01*
X030925Y019737D01*
X030983Y019795D01*
X031100Y019795D01*
X031158Y019737D01*
X031158Y019562D01*
X031158Y019678D02*
X031275Y019795D01*
X031275Y020047D02*
X030925Y020047D01*
X030925Y020163D02*
X030925Y019930D01*
X030675Y020040D02*
X030675Y019807D01*
X030441Y020040D01*
X030383Y020040D01*
X030325Y019982D01*
X030325Y019865D01*
X030383Y019807D01*
X030325Y019555D02*
X030675Y019555D01*
X030675Y019438D02*
X030675Y019672D01*
X030441Y019438D02*
X030325Y019555D01*
X030325Y019304D02*
X030325Y019187D01*
X030325Y019245D02*
X030617Y019245D01*
X030675Y019187D01*
X030675Y019128D01*
X030617Y019070D01*
X030925Y018825D02*
X031217Y018825D01*
X031275Y019193D02*
X031041Y019193D01*
X031100Y019193D02*
X031100Y019427D01*
X031041Y020298D02*
X030925Y020415D01*
X031275Y020415D01*
X031275Y020298D02*
X031275Y020532D01*
X030780Y020995D02*
X030855Y021070D01*
X030855Y021145D01*
X030780Y021220D01*
X030405Y021220D01*
X030405Y021145D02*
X030405Y021295D01*
X030630Y021455D02*
X030405Y021681D01*
X030855Y021681D01*
X030630Y021756D02*
X030630Y021455D01*
X028740Y023654D02*
X028815Y023729D01*
X028815Y023804D01*
X028740Y023879D01*
X028365Y023879D01*
X028365Y023804D02*
X028365Y023954D01*
X028515Y024114D02*
X028365Y024264D01*
X028815Y024264D01*
X028815Y024114D02*
X028815Y024414D01*
X028740Y024575D02*
X028815Y024650D01*
X028815Y024800D01*
X028740Y024875D01*
X028665Y024875D01*
X028590Y024800D01*
X028590Y024575D01*
X028740Y024575D01*
X028590Y024575D02*
X028440Y024725D01*
X028365Y024875D01*
X028323Y025814D02*
X028323Y026425D01*
X028425Y026425D02*
X028221Y026425D01*
X028020Y026425D02*
X027613Y026018D01*
X027613Y025916D01*
X027715Y025814D01*
X027918Y025814D01*
X028020Y025916D01*
X028221Y025814D02*
X028425Y025814D01*
X028020Y026425D02*
X027613Y026425D01*
X027412Y026323D02*
X027310Y026425D01*
X027107Y026425D01*
X027005Y026323D01*
X027412Y026323D02*
X027412Y025916D01*
X027310Y025814D01*
X027107Y025814D01*
X027005Y025916D01*
X028700Y026650D02*
X011700Y026650D01*
X011700Y029650D01*
X028700Y029650D01*
X028700Y026650D01*
X030667Y026758D02*
X030666Y026874D01*
X030666Y026816D02*
X031016Y026820D01*
X031016Y026878D02*
X031017Y026761D01*
X030843Y026625D02*
X030902Y026567D01*
X030904Y026392D01*
X031021Y026393D02*
X030671Y026389D01*
X030669Y026565D01*
X030727Y026623D01*
X030843Y026625D01*
X030723Y027004D02*
X030664Y027062D01*
X030662Y027178D01*
X030720Y027237D01*
X030778Y027238D01*
X031014Y027007D01*
X031012Y027240D01*
X032063Y027120D02*
X032413Y027124D01*
X032412Y027240D02*
X032414Y027007D01*
X032416Y026878D02*
X032417Y026761D01*
X032416Y026820D02*
X032066Y026816D01*
X032067Y026758D02*
X032066Y026874D01*
X032181Y027004D02*
X032063Y027120D01*
X032127Y026623D02*
X032243Y026625D01*
X032302Y026567D01*
X032304Y026392D01*
X032421Y026393D02*
X032071Y026389D01*
X032069Y026565D01*
X032127Y026623D01*
X032130Y026255D02*
X032073Y026196D01*
X032074Y026079D01*
X032133Y026022D01*
X032191Y026022D01*
X032249Y026081D01*
X032248Y026198D01*
X032306Y026257D01*
X032364Y026258D01*
X032423Y026200D01*
X032424Y026083D01*
X032366Y026024D01*
X031024Y026083D02*
X030966Y026024D01*
X031024Y026083D02*
X031023Y026200D01*
X030964Y026258D01*
X030906Y026257D01*
X030848Y026198D01*
X030849Y026081D01*
X030791Y026022D01*
X030733Y026022D01*
X030674Y026079D01*
X030673Y026196D01*
X030730Y026255D01*
X028475Y030014D02*
X028271Y030014D01*
X028373Y030014D02*
X028373Y030625D01*
X028475Y030625D02*
X028271Y030625D01*
X028070Y030625D02*
X027663Y030218D01*
X027663Y030116D01*
X027765Y030014D01*
X027968Y030014D01*
X028070Y030116D01*
X028070Y030625D02*
X027663Y030625D01*
X027462Y030523D02*
X027462Y030116D01*
X027360Y030014D01*
X027157Y030014D01*
X027055Y030116D01*
X027055Y030523D02*
X027157Y030625D01*
X027360Y030625D01*
X027462Y030523D01*
X026475Y030604D02*
X026373Y030503D01*
X026271Y030503D01*
X026170Y030604D01*
X026170Y030808D01*
X026271Y030910D01*
X026373Y030910D01*
X026475Y030808D01*
X026475Y030604D01*
X026475Y030302D02*
X026475Y029895D01*
X026068Y030302D01*
X025966Y030302D01*
X025864Y030200D01*
X025864Y029997D01*
X025966Y029895D01*
X025475Y029895D02*
X025475Y030302D01*
X025475Y030503D02*
X025373Y030503D01*
X024966Y030910D01*
X024864Y030910D01*
X024864Y030503D01*
X024966Y030302D02*
X024864Y030200D01*
X024864Y029997D01*
X024966Y029895D01*
X024575Y029895D02*
X024575Y030302D01*
X024473Y030503D02*
X024270Y030503D01*
X024270Y030808D01*
X024371Y030910D01*
X024473Y030910D01*
X024575Y030808D01*
X024575Y030604D01*
X024473Y030503D01*
X024270Y030503D02*
X024066Y030706D01*
X023964Y030910D01*
X023525Y030910D02*
X023525Y030503D01*
X023118Y030910D01*
X023016Y030910D01*
X022914Y030808D01*
X022914Y030604D01*
X023016Y030503D01*
X023016Y030302D02*
X022914Y030200D01*
X022914Y029997D01*
X023016Y029895D01*
X023016Y030302D02*
X023118Y030302D01*
X023525Y029895D01*
X023525Y030302D01*
X023964Y030200D02*
X023964Y029997D01*
X024066Y029895D01*
X023964Y030200D02*
X024066Y030302D01*
X024168Y030302D01*
X024575Y029895D01*
X024966Y030302D02*
X025068Y030302D01*
X025475Y029895D01*
X025966Y030503D02*
X026068Y030503D01*
X026170Y030604D01*
X026170Y030808D02*
X026068Y030910D01*
X025966Y030910D01*
X025864Y030808D01*
X025864Y030604D01*
X025966Y030503D01*
X022525Y030503D02*
X022525Y030910D01*
X022525Y030706D02*
X021914Y030706D01*
X022118Y030503D01*
X022118Y030302D02*
X022016Y030302D01*
X021914Y030200D01*
X021914Y029997D01*
X022016Y029895D01*
X022118Y030302D02*
X022525Y029895D01*
X022525Y030302D01*
X021575Y030302D02*
X021575Y029895D01*
X021168Y030302D01*
X021066Y030302D01*
X020964Y030200D01*
X020964Y029997D01*
X021066Y029895D01*
X020475Y029895D02*
X020475Y030302D01*
X020475Y030099D02*
X019864Y030099D01*
X020068Y029895D01*
X020068Y030503D02*
X020170Y030604D01*
X020170Y030910D01*
X020373Y030910D02*
X019966Y030910D01*
X019864Y030808D01*
X019864Y030604D01*
X019966Y030503D01*
X020068Y030503D01*
X020373Y030503D02*
X020475Y030604D01*
X020475Y030808D01*
X020373Y030910D01*
X020964Y030808D02*
X020964Y030604D01*
X021066Y030503D01*
X021473Y030503D01*
X021066Y030910D01*
X021473Y030910D01*
X021575Y030808D01*
X021575Y030604D01*
X021473Y030503D01*
X021066Y030910D02*
X020964Y030808D01*
X019425Y030808D02*
X019425Y030604D01*
X019323Y030503D01*
X019221Y030503D01*
X019120Y030604D01*
X019120Y030808D01*
X019221Y030910D01*
X019323Y030910D01*
X019425Y030808D01*
X019120Y030808D02*
X019018Y030910D01*
X018916Y030910D01*
X018814Y030808D01*
X018814Y030604D01*
X018916Y030503D01*
X019018Y030503D01*
X019120Y030604D01*
X019425Y030302D02*
X019425Y029895D01*
X019425Y030099D02*
X018814Y030099D01*
X019018Y029895D01*
X018475Y029895D02*
X018475Y030302D01*
X018475Y030503D02*
X018373Y030503D01*
X017966Y030910D01*
X017864Y030910D01*
X017864Y030503D01*
X017525Y030604D02*
X017525Y030808D01*
X017423Y030910D01*
X017321Y030910D01*
X017220Y030808D01*
X017220Y030503D01*
X017423Y030503D01*
X017525Y030604D01*
X017525Y030302D02*
X017525Y029895D01*
X017525Y030099D02*
X016914Y030099D01*
X017118Y029895D01*
X016525Y030095D02*
X016525Y030502D01*
X016220Y030299D02*
X016220Y030095D01*
X016525Y030095D02*
X015914Y030095D01*
X015914Y030502D01*
X015525Y030400D02*
X015525Y030197D01*
X015423Y030095D01*
X015321Y030095D01*
X015220Y030197D01*
X015220Y030400D01*
X015321Y030502D01*
X015423Y030502D01*
X015525Y030400D01*
X015220Y030400D02*
X015118Y030502D01*
X015016Y030502D01*
X014914Y030400D01*
X014914Y030197D01*
X015016Y030095D01*
X015118Y030095D01*
X015220Y030197D01*
X014475Y030095D02*
X014373Y030095D01*
X013966Y030502D01*
X013864Y030502D01*
X013864Y030095D01*
X013475Y030197D02*
X013475Y030400D01*
X013373Y030502D01*
X013271Y030502D01*
X013170Y030400D01*
X013170Y030095D01*
X013373Y030095D01*
X013475Y030197D01*
X013170Y030095D02*
X012966Y030299D01*
X012864Y030502D01*
X012525Y030400D02*
X012525Y030197D01*
X012423Y030095D01*
X012220Y030095D02*
X012118Y030299D01*
X012118Y030400D01*
X012220Y030502D01*
X012423Y030502D01*
X012525Y030400D01*
X012220Y030095D02*
X011914Y030095D01*
X011914Y030502D01*
X011525Y030400D02*
X011525Y030095D01*
X010914Y030095D01*
X010914Y030400D01*
X011016Y030502D01*
X011423Y030502D01*
X011525Y030400D01*
X011700Y029650D02*
X011700Y027650D01*
X009700Y027650D01*
X009700Y029650D01*
X011700Y029650D01*
X010525Y030197D02*
X010525Y030400D01*
X010423Y030502D01*
X010525Y030197D02*
X010423Y030095D01*
X010016Y030095D01*
X009914Y030197D01*
X009914Y030400D01*
X010016Y030502D01*
X013831Y026475D02*
X013729Y026373D01*
X013729Y025966D01*
X013831Y025864D01*
X014035Y025864D01*
X014136Y025966D01*
X014136Y026373D01*
X014035Y026475D01*
X013831Y026475D01*
X014337Y026271D02*
X014337Y025864D01*
X014744Y025864D02*
X014744Y026271D01*
X014541Y026475D01*
X014337Y026271D01*
X014945Y026170D02*
X014945Y025966D01*
X015047Y025864D01*
X015352Y025864D01*
X015352Y026475D01*
X015553Y026475D02*
X015960Y026475D01*
X015960Y025864D01*
X015553Y025864D01*
X015756Y026170D02*
X015960Y026170D01*
X016160Y026271D02*
X016160Y026373D01*
X016262Y026475D01*
X016466Y026475D01*
X016567Y026373D01*
X016466Y026170D02*
X016262Y026170D01*
X016160Y026271D01*
X016160Y025966D02*
X016262Y025864D01*
X016466Y025864D01*
X016567Y025966D01*
X016567Y026068D01*
X016466Y026170D01*
X015352Y026271D02*
X015047Y026271D01*
X014945Y026170D01*
X015148Y026271D02*
X014945Y026475D01*
X018068Y029895D02*
X017864Y030099D01*
X018475Y030099D01*
X017220Y030503D02*
X017016Y030706D01*
X016914Y030910D01*
X010412Y024540D02*
X010414Y024558D01*
X010420Y024574D01*
X010429Y024589D01*
X010442Y024602D01*
X010457Y024611D01*
X010473Y024617D01*
X010491Y024619D01*
X010509Y024617D01*
X010525Y024611D01*
X010540Y024602D01*
X010553Y024589D01*
X010562Y024574D01*
X010568Y024558D01*
X010570Y024540D01*
X010568Y024522D01*
X010562Y024506D01*
X010553Y024491D01*
X010540Y024478D01*
X010525Y024469D01*
X010509Y024463D01*
X010491Y024461D01*
X010473Y024463D01*
X010457Y024469D01*
X010442Y024478D01*
X010429Y024491D01*
X010420Y024506D01*
X010414Y024522D01*
X010412Y024540D01*
X010580Y023630D02*
X010580Y022292D01*
X010580Y023630D02*
X005620Y023630D01*
X005620Y022331D01*
X006112Y024540D02*
X006114Y024558D01*
X006120Y024574D01*
X006129Y024589D01*
X006142Y024602D01*
X006157Y024611D01*
X006173Y024617D01*
X006191Y024619D01*
X006209Y024617D01*
X006225Y024611D01*
X006240Y024602D01*
X006253Y024589D01*
X006262Y024574D01*
X006268Y024558D01*
X006270Y024540D01*
X006268Y024522D01*
X006262Y024506D01*
X006253Y024491D01*
X006240Y024478D01*
X006225Y024469D01*
X006209Y024463D01*
X006191Y024461D01*
X006173Y024463D01*
X006157Y024469D01*
X006142Y024478D01*
X006129Y024491D01*
X006120Y024506D01*
X006114Y024522D01*
X006112Y024540D01*
X003645Y026984D02*
X003645Y027285D01*
X003420Y027285D01*
X003495Y027134D01*
X003495Y027059D01*
X003420Y026984D01*
X003270Y026984D01*
X003195Y027059D01*
X003195Y027210D01*
X003270Y027285D01*
X003270Y027520D02*
X003645Y027520D01*
X003645Y027595D02*
X003645Y027445D01*
X003270Y027520D02*
X003195Y027595D01*
X003195Y027670D01*
X003270Y027745D01*
X003964Y027915D02*
X003964Y027990D01*
X004265Y028290D01*
X004265Y028365D01*
X004500Y028290D02*
X004500Y027915D01*
X004575Y027915D02*
X004425Y027915D01*
X004265Y027915D02*
X003964Y027915D01*
X004500Y028290D02*
X004575Y028365D01*
X004650Y028365D01*
X004725Y028290D01*
X001375Y020345D02*
X000825Y020345D01*
X001008Y020345D02*
X001008Y020070D01*
X001100Y019978D01*
X001284Y019978D01*
X001375Y020070D01*
X001375Y020345D01*
X001375Y019793D02*
X000825Y019793D01*
X001008Y019609D01*
X000825Y019426D01*
X001375Y019426D01*
X001375Y019240D02*
X001375Y018965D01*
X001284Y018873D01*
X001100Y018873D01*
X001008Y018965D01*
X001008Y019240D01*
X000825Y019240D02*
X001375Y019240D01*
X001008Y019057D02*
X000825Y018873D01*
X000825Y018135D02*
X000825Y017952D01*
X000825Y018043D02*
X001375Y018043D01*
X001375Y017952D02*
X001375Y018135D01*
X001375Y017767D02*
X000825Y017400D01*
X001375Y017400D01*
X001375Y017767D02*
X000825Y017767D01*
X005620Y018670D02*
X010580Y018670D01*
X010580Y019969D01*
X005620Y019969D02*
X005620Y018670D01*
X005314Y009664D02*
X008276Y009664D01*
X008276Y005136D01*
X005324Y005136D01*
X005314Y005136D02*
X005314Y009664D01*
X008276Y009664D02*
X008286Y009664D01*
X008257Y005569D02*
X007863Y005176D01*
X009130Y003660D02*
X009132Y003678D01*
X009138Y003694D01*
X009147Y003709D01*
X009160Y003722D01*
X009175Y003731D01*
X009191Y003737D01*
X009209Y003739D01*
X009227Y003737D01*
X009243Y003731D01*
X009258Y003722D01*
X009271Y003709D01*
X009280Y003694D01*
X009286Y003678D01*
X009288Y003660D01*
X009286Y003642D01*
X009280Y003626D01*
X009271Y003611D01*
X009258Y003598D01*
X009243Y003589D01*
X009227Y003583D01*
X009209Y003581D01*
X009191Y003583D01*
X009175Y003589D01*
X009160Y003598D01*
X009147Y003611D01*
X009138Y003626D01*
X009132Y003642D01*
X009130Y003660D01*
X011914Y000929D02*
X012118Y000725D01*
X012864Y000827D02*
X012966Y000725D01*
X013434Y004825D02*
X013333Y004927D01*
X013434Y004825D02*
X013638Y004825D01*
X013740Y004927D01*
X013740Y005029D01*
X013638Y005130D01*
X013434Y005130D01*
X013333Y005232D01*
X013333Y005334D01*
X013434Y005436D01*
X013638Y005436D01*
X013740Y005334D01*
X013940Y005436D02*
X013940Y004825D01*
X014347Y004825D01*
X014548Y004825D02*
X014548Y005436D01*
X014853Y005436D01*
X014955Y005334D01*
X014955Y005130D01*
X014853Y005029D01*
X014548Y005029D01*
X014752Y005029D02*
X014955Y004825D01*
X015156Y005029D02*
X015359Y004825D01*
X015563Y005029D01*
X015563Y005436D01*
X015764Y005334D02*
X015764Y004927D01*
X015865Y004825D01*
X016069Y004825D01*
X016171Y004927D01*
X016171Y005334D01*
X016069Y005436D01*
X015865Y005436D01*
X015764Y005334D01*
X015156Y005436D02*
X015156Y005029D01*
X014347Y005436D02*
X013940Y005436D01*
X013940Y005130D02*
X014144Y005130D01*
X012830Y007360D02*
X012832Y007378D01*
X012838Y007394D01*
X012847Y007409D01*
X012860Y007422D01*
X012875Y007431D01*
X012891Y007437D01*
X012909Y007439D01*
X012927Y007437D01*
X012943Y007431D01*
X012958Y007422D01*
X012971Y007409D01*
X012980Y007394D01*
X012986Y007378D01*
X012988Y007360D01*
X012986Y007342D01*
X012980Y007326D01*
X012971Y007311D01*
X012958Y007298D01*
X012943Y007289D01*
X012927Y007283D01*
X012909Y007281D01*
X012891Y007283D01*
X012875Y007289D01*
X012860Y007298D01*
X012847Y007311D01*
X012838Y007326D01*
X012832Y007342D01*
X012830Y007360D01*
X017966Y001440D02*
X018373Y001033D01*
X018475Y001134D01*
X018475Y001338D01*
X018373Y001440D01*
X017966Y001440D01*
X017864Y001338D01*
X017864Y001134D01*
X017966Y001033D01*
X018373Y001033D01*
D13*
X020251Y004666D02*
X020358Y004666D01*
X020465Y004773D01*
X020465Y005307D01*
X020145Y005307D01*
X020038Y005200D01*
X020038Y004987D01*
X020145Y004880D01*
X020465Y004880D01*
X020682Y004880D02*
X021109Y005521D01*
X021327Y005521D02*
X021647Y005521D01*
X021754Y005414D01*
X021754Y004987D01*
X021647Y004880D01*
X021327Y004880D01*
X021327Y005521D01*
X021972Y005307D02*
X022078Y005307D01*
X022078Y004880D01*
X021972Y004880D02*
X022185Y004880D01*
X022401Y004987D02*
X022401Y005200D01*
X022508Y005307D01*
X022828Y005307D01*
X022828Y004773D01*
X022722Y004666D01*
X022615Y004666D01*
X022508Y004880D02*
X022828Y004880D01*
X023046Y004880D02*
X023259Y004880D01*
X023153Y004880D02*
X023153Y005307D01*
X023046Y005307D01*
X023153Y005521D02*
X023153Y005627D01*
X023475Y005307D02*
X023689Y005307D01*
X023582Y005414D02*
X023582Y004987D01*
X023689Y004880D01*
X023905Y004987D02*
X024012Y005094D01*
X024332Y005094D01*
X024332Y005200D02*
X024332Y004880D01*
X024012Y004880D01*
X023905Y004987D01*
X024012Y005307D02*
X024225Y005307D01*
X024332Y005200D01*
X024550Y004880D02*
X024763Y004880D01*
X024657Y004880D02*
X024657Y005521D01*
X024550Y005521D01*
X025624Y005521D02*
X025838Y005521D01*
X025731Y005521D02*
X025731Y004880D01*
X025624Y004880D02*
X025838Y004880D01*
X026054Y004987D02*
X026160Y004880D01*
X026374Y004880D01*
X026481Y004987D01*
X026481Y005414D01*
X026374Y005521D01*
X026160Y005521D01*
X026054Y005414D01*
X026054Y004987D01*
X022508Y004880D02*
X022401Y004987D01*
X022078Y005521D02*
X022078Y005627D01*
X019820Y005200D02*
X019820Y004987D01*
X019714Y004880D01*
X019500Y004880D01*
X019393Y004987D01*
X019393Y005200D01*
X019500Y005307D01*
X019714Y005307D01*
X019820Y005200D01*
X019177Y004880D02*
X018964Y004880D01*
X019070Y004880D02*
X019070Y005521D01*
X018964Y005521D01*
X018746Y005200D02*
X018746Y004880D01*
X018426Y004880D01*
X018319Y004987D01*
X018426Y005094D01*
X018746Y005094D01*
X018746Y005200D02*
X018639Y005307D01*
X018426Y005307D01*
X018102Y005200D02*
X018102Y004880D01*
X018102Y005200D02*
X017995Y005307D01*
X017675Y005307D01*
X017675Y004880D01*
X017457Y004880D02*
X017457Y005307D01*
X017244Y005521D01*
X017030Y005307D01*
X017030Y004880D01*
X017030Y005200D02*
X017457Y005200D01*
X011536Y005332D02*
X011536Y005568D01*
X011064Y005568D02*
X011064Y005332D01*
X010868Y008664D02*
X010632Y008664D01*
X010632Y009136D02*
X010868Y009136D01*
X016112Y015144D02*
X016348Y015144D01*
X016348Y015616D02*
X016112Y015616D01*
X016112Y016464D02*
X016348Y016464D01*
X016348Y016936D02*
X016112Y016936D01*
X016082Y017264D02*
X016318Y017264D01*
X016318Y017736D02*
X016082Y017736D01*
X014968Y017736D02*
X014732Y017736D01*
X014732Y017264D02*
X014968Y017264D01*
X012036Y019182D02*
X012036Y019418D01*
X011564Y019418D02*
X011564Y019182D01*
X005208Y024554D02*
X004972Y024554D01*
X004972Y025026D02*
X005208Y025026D01*
X004286Y024972D02*
X004286Y025208D01*
X003814Y025208D02*
X003814Y024972D01*
X006482Y027680D02*
X006409Y027753D01*
X006409Y027900D01*
X006482Y027973D01*
X006702Y027973D01*
X006702Y028120D02*
X006702Y027680D01*
X006482Y027680D01*
X006869Y027753D02*
X006942Y027680D01*
X007089Y027680D01*
X007163Y027753D01*
X007163Y027826D01*
X007089Y027900D01*
X006942Y027900D01*
X006869Y027973D01*
X006869Y028047D01*
X006942Y028120D01*
X007089Y028120D01*
X007163Y028047D01*
X007329Y028047D02*
X007403Y028120D01*
X007550Y028120D01*
X007623Y028047D01*
X007623Y027753D01*
X007550Y027680D01*
X007403Y027680D01*
X007329Y027753D01*
X007783Y027680D02*
X007930Y027680D01*
X007857Y027680D02*
X007857Y028120D01*
X007930Y028120D02*
X007783Y028120D01*
X007922Y027396D02*
X008158Y027396D01*
X008158Y026924D02*
X007922Y026924D01*
X005768Y027964D02*
X005532Y027964D01*
X005532Y028436D02*
X005768Y028436D01*
X012982Y026466D02*
X013218Y026466D01*
X013218Y025994D02*
X012982Y025994D01*
X017664Y025786D02*
X017771Y025679D01*
X017984Y025679D01*
X018091Y025786D01*
X018091Y026213D01*
X017984Y026320D01*
X017771Y026320D01*
X017664Y026213D01*
X017664Y025786D01*
X018307Y025679D02*
X018521Y025679D01*
X018414Y025679D02*
X018414Y026320D01*
X018521Y026320D02*
X018307Y026320D01*
X018737Y026320D02*
X018950Y026320D01*
X018843Y026320D02*
X018843Y025679D01*
X018950Y025679D01*
X019168Y026000D02*
X019168Y026320D01*
X019488Y026320D01*
X019595Y026213D01*
X019488Y026106D01*
X019168Y026106D01*
X019168Y026000D02*
X019275Y025893D01*
X019488Y025893D01*
X019811Y025893D02*
X020025Y025893D01*
X019918Y025786D02*
X019918Y026213D01*
X019811Y026320D01*
X020241Y026320D02*
X020454Y026320D01*
X020347Y026320D02*
X020347Y025893D01*
X020454Y025893D01*
X020672Y025893D02*
X020992Y025893D01*
X021099Y026000D01*
X021099Y026213D01*
X020992Y026320D01*
X020672Y026320D01*
X020672Y026427D02*
X020672Y025893D01*
X020347Y025679D02*
X020347Y025573D01*
X020672Y026427D02*
X020778Y026534D01*
X020885Y026534D01*
X021315Y026320D02*
X021528Y026320D01*
X021422Y026320D02*
X021422Y025893D01*
X021528Y025893D01*
X021422Y025679D02*
X021422Y025573D01*
X021746Y025786D02*
X021853Y025679D01*
X022173Y025679D01*
X022173Y026320D01*
X021853Y026320D01*
X021746Y026213D01*
X021746Y025786D01*
X022391Y025679D02*
X022818Y026320D01*
X023035Y026320D02*
X023355Y026320D01*
X023462Y026213D01*
X023462Y026000D01*
X023355Y025893D01*
X023035Y025893D01*
X023035Y026427D01*
X023142Y026534D01*
X023249Y026534D01*
X023680Y026213D02*
X023680Y026000D01*
X023786Y025893D01*
X024000Y025893D01*
X024107Y026000D01*
X024107Y026213D01*
X024000Y026320D01*
X023786Y026320D01*
X023680Y026213D01*
X024323Y026320D02*
X024536Y026320D01*
X024430Y026320D02*
X024430Y025679D01*
X024536Y025679D01*
X024754Y026000D02*
X024754Y026320D01*
X025074Y026320D01*
X025181Y026213D01*
X025074Y026106D01*
X024754Y026106D01*
X024754Y026000D02*
X024861Y025893D01*
X025074Y025893D01*
X025398Y026000D02*
X025398Y026320D01*
X025398Y026000D02*
X025505Y025893D01*
X025825Y025893D01*
X025825Y026320D01*
X026043Y026320D02*
X026043Y025893D01*
X026256Y025679D01*
X026470Y025893D01*
X026470Y026320D01*
X026470Y026000D02*
X026043Y026000D01*
X025386Y021468D02*
X025386Y021232D01*
X024914Y021232D02*
X024914Y021468D01*
X024914Y020068D02*
X024914Y019832D01*
X025386Y019832D02*
X025386Y020068D01*
X024536Y019268D02*
X024536Y019032D01*
X024064Y019032D02*
X024064Y019268D01*
X023886Y019268D02*
X023886Y019032D01*
X023414Y019032D02*
X023414Y019268D01*
X023236Y019268D02*
X023236Y019032D01*
X022764Y019032D02*
X022764Y019268D01*
X022556Y019268D02*
X022556Y019032D01*
X022084Y019032D02*
X022084Y019268D01*
X021896Y019268D02*
X021896Y019032D01*
X021424Y019032D02*
X021424Y019268D01*
X021096Y019532D02*
X021096Y019768D01*
X020624Y019768D02*
X020624Y019532D01*
X024682Y015986D02*
X024918Y015986D01*
X024918Y015514D02*
X024682Y015514D01*
X020036Y011468D02*
X020036Y011232D01*
X019564Y011232D02*
X019564Y011468D01*
X007518Y001686D02*
X007282Y001686D01*
X007282Y001214D02*
X007518Y001214D01*
X031700Y004900D02*
X031700Y005400D01*
X031950Y005650D01*
X033450Y005650D01*
X033700Y005900D01*
X033700Y006400D01*
X033450Y006650D01*
X031950Y006650D01*
X031700Y006900D01*
X031700Y007400D01*
X031950Y007650D01*
X033450Y007650D01*
X033700Y007900D01*
X033700Y008400D01*
X033450Y008650D01*
X033700Y008900D01*
X033700Y009400D01*
X033450Y009650D01*
X031950Y009650D01*
X031700Y009400D01*
X031700Y008900D01*
X031950Y008650D01*
X033450Y008650D01*
X033450Y007650D02*
X033700Y007400D01*
X033700Y006900D01*
X033450Y006650D01*
X033450Y005650D02*
X033700Y005400D01*
X033700Y004900D01*
X033450Y004650D01*
X031950Y004650D01*
X031700Y004900D01*
X031950Y005650D02*
X031700Y005900D01*
X031700Y006400D01*
X031950Y006650D01*
X031950Y007650D02*
X031700Y007900D01*
X031700Y008400D01*
X031950Y008650D01*
X033327Y026200D02*
X033400Y026273D01*
X033400Y026347D01*
X033327Y026420D01*
X032960Y026420D01*
X032960Y026347D02*
X032960Y026494D01*
X033106Y026660D02*
X032960Y026807D01*
X033400Y026807D01*
X033400Y026660D02*
X033400Y026954D01*
X033400Y027121D02*
X033400Y027414D01*
X033400Y027268D02*
X032960Y027268D01*
X033106Y027121D01*
D14*
X001375Y016616D02*
X000544Y016616D01*
X000960Y016201D01*
X000960Y016755D01*
X000821Y015926D02*
X001375Y015649D01*
X000821Y015372D01*
X001375Y014268D02*
X001375Y013715D01*
X001375Y013440D02*
X000821Y012886D01*
X000544Y012611D02*
X001375Y012611D01*
X001375Y012886D02*
X000821Y013440D01*
X000821Y013715D02*
X000544Y013992D01*
X001375Y013992D01*
X000544Y012611D02*
X000821Y012334D01*
X000544Y012057D01*
X001375Y012057D01*
X001237Y011782D02*
X001375Y011644D01*
X001375Y011367D01*
X001237Y011229D01*
X000683Y011229D01*
X000544Y011367D01*
X000544Y011644D01*
X000683Y011782D01*
X000683Y010954D02*
X000960Y010954D01*
X001098Y010815D01*
X001098Y010400D01*
X001098Y010677D02*
X001375Y010954D01*
X001375Y010400D02*
X000544Y010400D01*
X000544Y010815D01*
X000683Y010954D01*
X000683Y009296D02*
X000821Y009296D01*
X000960Y009158D01*
X001098Y009296D01*
X001237Y009296D01*
X001375Y009158D01*
X001375Y008881D01*
X001237Y008742D01*
X000960Y009019D02*
X000960Y009158D01*
X000683Y009296D02*
X000544Y009158D01*
X000544Y008881D01*
X000683Y008742D01*
X000821Y008468D02*
X000544Y008191D01*
X000821Y007914D01*
X000544Y007639D02*
X000544Y007085D01*
X001375Y007085D01*
X001375Y007639D01*
X000960Y007362D02*
X000960Y007085D01*
D15*
X001200Y020820D02*
X001200Y021394D01*
D16*
X001900Y021150D02*
X002514Y021150D01*
X002207Y021457D02*
X002207Y020843D01*
X003408Y021057D02*
X003408Y020246D01*
X004432Y020246D02*
X004432Y021057D01*
X007396Y018572D02*
X009916Y018572D01*
X010743Y017784D01*
X010743Y017154D01*
X010743Y016406D02*
X010743Y015894D01*
X009916Y015068D01*
X007396Y015068D01*
X007396Y016406D01*
X007396Y017194D02*
X007396Y018572D01*
X006551Y015744D02*
X006551Y011796D01*
X007742Y010492D02*
X007742Y013602D01*
X008648Y014508D01*
X009356Y014508D01*
X010144Y014508D02*
X010852Y014508D01*
X011758Y013602D01*
X011758Y010492D01*
X010144Y010492D01*
X009356Y010492D02*
X007742Y010492D01*
X008485Y009084D02*
X008328Y008927D01*
X008328Y008494D01*
X008485Y009084D02*
X009115Y009084D01*
X009272Y008927D01*
X009272Y008494D01*
X009272Y007706D02*
X009272Y007116D01*
X008328Y007116D01*
X008328Y007706D01*
X011615Y007219D02*
X011615Y006293D01*
X012785Y006293D01*
X012785Y007219D01*
X011615Y007219D01*
X012900Y010010D02*
X012900Y012590D01*
X014300Y012590D01*
X014300Y010010D01*
X012900Y010010D01*
X015856Y007653D02*
X016644Y007653D01*
X016250Y007113D01*
X015856Y007653D01*
X015856Y007113D02*
X016644Y007113D01*
X018370Y013721D02*
X022227Y013721D01*
X022227Y017397D01*
X022045Y017579D01*
X018370Y017579D01*
X018370Y013721D01*
X029150Y013950D02*
X029150Y014450D01*
X029400Y014700D01*
X029150Y014950D01*
X029150Y015450D01*
X029400Y015700D01*
X029150Y015950D01*
X029150Y016450D01*
X029400Y016700D01*
X029150Y016950D01*
X029150Y017450D01*
X029400Y017700D01*
X029150Y017950D01*
X029150Y018450D01*
X029400Y018700D01*
X029150Y018950D01*
X029150Y019450D01*
X029400Y019700D01*
X029150Y019950D01*
X029150Y020450D01*
X029400Y020700D01*
X029150Y020950D01*
X029150Y021450D01*
X029400Y021700D01*
X029150Y021950D01*
X029150Y022450D01*
X029400Y022700D01*
X029150Y022950D01*
X029150Y023450D01*
X029400Y023700D01*
X029150Y023950D01*
X029150Y024450D01*
X029400Y024700D01*
X029900Y024700D01*
X030150Y024450D01*
X030150Y023950D01*
X029900Y023700D01*
X030150Y023450D01*
X030150Y022950D01*
X029900Y022700D01*
X030150Y022450D01*
X030150Y021950D01*
X029900Y021700D01*
X030150Y021450D01*
X030150Y020950D01*
X029900Y020700D01*
X030150Y020450D01*
X030150Y019950D01*
X029900Y019700D01*
X030150Y019450D01*
X030150Y018950D01*
X029900Y018700D01*
X030150Y018450D01*
X030150Y017950D01*
X029900Y017700D01*
X030150Y017450D01*
X030150Y016950D01*
X029900Y016700D01*
X030150Y016450D01*
X030150Y015950D01*
X029900Y015700D01*
X030150Y015450D01*
X030150Y014950D01*
X029900Y014700D01*
X030150Y014450D01*
X030150Y013950D01*
X029900Y013700D01*
X030150Y013450D01*
X030150Y012950D01*
X029900Y012700D01*
X030150Y012450D01*
X030150Y011950D01*
X029900Y011700D01*
X030150Y011450D01*
X030150Y010950D01*
X029900Y010700D01*
X030150Y010450D01*
X030150Y009950D01*
X029900Y009700D01*
X030150Y009450D01*
X030150Y008950D01*
X029900Y008700D01*
X030150Y008450D01*
X030150Y007950D01*
X029900Y007700D01*
X030150Y007450D01*
X030150Y006950D01*
X029900Y006700D01*
X029400Y006700D01*
X029150Y006950D01*
X029150Y007450D01*
X029400Y007700D01*
X029150Y007950D01*
X029150Y008450D01*
X029400Y008700D01*
X029150Y008950D01*
X029150Y009450D01*
X029400Y009700D01*
X029150Y009950D01*
X029150Y010450D01*
X029400Y010700D01*
X029150Y010950D01*
X029150Y011450D01*
X029400Y011700D01*
X029150Y011950D01*
X029150Y012450D01*
X029400Y012700D01*
X029150Y012950D01*
X029150Y013450D01*
X029400Y013700D01*
X029150Y013950D01*
X031568Y011900D02*
X031568Y011400D01*
X031700Y011400D02*
X031700Y011900D01*
X031950Y012150D01*
X033450Y012150D01*
X033700Y011900D01*
X033700Y011400D01*
X033450Y011150D01*
X031950Y011150D01*
X031700Y010900D01*
X031700Y010400D01*
X031950Y010150D01*
X033450Y010150D01*
X033700Y010400D01*
X033700Y010900D01*
X033450Y011150D01*
X031950Y011150D02*
X031700Y011400D01*
X032000Y012650D02*
X033500Y012650D01*
X033750Y012900D01*
X033750Y013400D01*
X033500Y013650D01*
X032000Y013650D01*
X031750Y013400D01*
X031750Y012900D01*
X032000Y012650D01*
X032000Y013650D02*
X031750Y013900D01*
X031750Y014400D01*
X032000Y014650D01*
X033500Y014650D01*
X033750Y014400D01*
X033750Y013900D01*
X033500Y013650D01*
X033350Y015250D02*
X032850Y015250D01*
X032600Y015500D01*
X032600Y016000D01*
X032850Y016250D01*
X032600Y016500D01*
X032600Y017000D01*
X032850Y017250D01*
X032600Y017500D01*
X032600Y018000D01*
X032850Y018250D01*
X033350Y018250D01*
X033600Y018000D01*
X033600Y017500D01*
X033350Y017250D01*
X033600Y017000D01*
X033600Y016500D01*
X033350Y016250D01*
X033600Y016000D01*
X033600Y015500D01*
X033350Y015250D01*
X031618Y014400D02*
X031618Y013900D01*
X031850Y018650D02*
X033350Y018650D01*
X033600Y018900D01*
X033600Y019400D01*
X033350Y019650D01*
X031850Y019650D01*
X031600Y019400D01*
X031600Y018900D01*
X031850Y018650D01*
X031850Y019650D02*
X031600Y019900D01*
X031600Y020400D01*
X031850Y020650D01*
X033350Y020650D01*
X033600Y020400D01*
X033600Y019900D01*
X033350Y019650D01*
X033350Y021000D02*
X032850Y021000D01*
X032600Y021250D01*
X032600Y021750D01*
X032850Y022000D01*
X032600Y022250D01*
X032600Y022750D01*
X032850Y023000D01*
X032600Y023250D01*
X032600Y023750D01*
X032850Y024000D01*
X032600Y024250D01*
X032600Y024750D01*
X032850Y025000D01*
X032600Y025250D01*
X032600Y025750D01*
X032850Y026000D01*
X033350Y026000D01*
X033600Y025750D01*
X033600Y025250D01*
X033350Y025000D01*
X033600Y024750D01*
X033600Y024250D01*
X033350Y024000D01*
X033600Y023750D01*
X033600Y023250D01*
X033350Y023000D01*
X033600Y022750D01*
X033600Y022250D01*
X033350Y022000D01*
X033600Y021750D01*
X033600Y021250D01*
X033350Y021000D01*
X032100Y021250D02*
X032100Y021750D01*
X031850Y022000D01*
X032100Y022250D01*
X032100Y022750D01*
X031850Y023000D01*
X032100Y023250D01*
X032100Y023750D01*
X031850Y024000D01*
X032100Y024250D01*
X032100Y024750D01*
X031850Y025000D01*
X032100Y025250D01*
X032100Y025750D01*
X031850Y026000D01*
X031350Y026000D01*
X031100Y025750D01*
X031100Y025250D01*
X031350Y025000D01*
X031100Y024750D01*
X031100Y024250D01*
X031350Y024000D01*
X031100Y023750D01*
X031100Y023250D01*
X031350Y023000D01*
X031100Y022750D01*
X031100Y022250D01*
X031350Y022000D01*
X031100Y021750D01*
X031100Y021250D01*
X031350Y021000D01*
X031850Y021000D01*
X032100Y021250D01*
X031468Y020400D02*
X031468Y019900D01*
X016594Y023897D02*
X015806Y023897D01*
X016200Y024437D01*
X016594Y023897D01*
X016594Y024437D02*
X015806Y024437D01*
X011785Y024681D02*
X010615Y024681D01*
X010615Y025607D01*
X011785Y025607D01*
X011785Y024681D01*
X007485Y024681D02*
X006315Y024681D01*
X006315Y025607D01*
X007485Y025607D01*
X007485Y024681D01*
X007460Y028660D02*
X007960Y028660D01*
X008210Y028910D01*
X008460Y028660D01*
X008960Y028660D01*
X009210Y028910D01*
X009210Y029410D01*
X008960Y029660D01*
X008460Y029660D01*
X008210Y029410D01*
X007960Y029660D01*
X007460Y029660D01*
X007210Y029410D01*
X006960Y029660D01*
X006460Y029660D01*
X006210Y029410D01*
X005960Y029660D01*
X005460Y029660D01*
X005210Y029410D01*
X004960Y029660D01*
X004460Y029660D01*
X004210Y029410D01*
X004210Y028910D01*
X004460Y028660D01*
X004960Y028660D01*
X005210Y028910D01*
X005460Y028660D01*
X005960Y028660D01*
X006210Y028910D01*
X006460Y028660D01*
X006960Y028660D01*
X007210Y028910D01*
X007460Y028660D01*
X002700Y026900D02*
X002700Y026400D01*
X002450Y026150D01*
X001950Y026150D01*
X001700Y026400D01*
X001450Y026150D01*
X000950Y026150D01*
X000700Y026400D01*
X000700Y026900D01*
X000950Y027150D01*
X001450Y027150D01*
X001700Y026900D01*
X001950Y027150D01*
X002450Y027150D01*
X002700Y026900D01*
X002049Y015744D02*
X006551Y015744D01*
X002049Y015744D02*
X002049Y011835D01*
X003027Y006544D02*
X003027Y005756D01*
X003567Y006150D01*
X003027Y006544D01*
X003567Y006544D02*
X003567Y005756D01*
X007915Y003519D02*
X007915Y002593D01*
X009085Y002593D01*
X009085Y003519D01*
X007915Y003519D01*
X033950Y004900D02*
X033950Y005400D01*
D17*
X003820Y023200D02*
X003822Y023250D01*
X003828Y023300D01*
X003838Y023349D01*
X003852Y023397D01*
X003869Y023444D01*
X003890Y023489D01*
X003915Y023533D01*
X003943Y023574D01*
X003975Y023613D01*
X004009Y023650D01*
X004046Y023684D01*
X004086Y023714D01*
X004128Y023741D01*
X004172Y023765D01*
X004218Y023786D01*
X004265Y023802D01*
X004313Y023815D01*
X004363Y023824D01*
X004412Y023829D01*
X004463Y023830D01*
X004513Y023827D01*
X004562Y023820D01*
X004611Y023809D01*
X004659Y023794D01*
X004705Y023776D01*
X004750Y023754D01*
X004793Y023728D01*
X004834Y023699D01*
X004873Y023667D01*
X004909Y023632D01*
X004941Y023594D01*
X004971Y023554D01*
X004998Y023511D01*
X005021Y023467D01*
X005040Y023421D01*
X005056Y023373D01*
X005068Y023324D01*
X005076Y023275D01*
X005080Y023225D01*
X005080Y023175D01*
X005076Y023125D01*
X005068Y023076D01*
X005056Y023027D01*
X005040Y022979D01*
X005021Y022933D01*
X004998Y022889D01*
X004971Y022846D01*
X004941Y022806D01*
X004909Y022768D01*
X004873Y022733D01*
X004834Y022701D01*
X004793Y022672D01*
X004750Y022646D01*
X004705Y022624D01*
X004659Y022606D01*
X004611Y022591D01*
X004562Y022580D01*
X004513Y022573D01*
X004463Y022570D01*
X004412Y022571D01*
X004363Y022576D01*
X004313Y022585D01*
X004265Y022598D01*
X004218Y022614D01*
X004172Y022635D01*
X004128Y022659D01*
X004086Y022686D01*
X004046Y022716D01*
X004009Y022750D01*
X003975Y022787D01*
X003943Y022826D01*
X003915Y022867D01*
X003890Y022911D01*
X003869Y022956D01*
X003852Y023003D01*
X003838Y023051D01*
X003828Y023100D01*
X003822Y023150D01*
X003820Y023200D01*
X002570Y008900D02*
X002572Y008950D01*
X002578Y009000D01*
X002588Y009049D01*
X002602Y009097D01*
X002619Y009144D01*
X002640Y009189D01*
X002665Y009233D01*
X002693Y009274D01*
X002725Y009313D01*
X002759Y009350D01*
X002796Y009384D01*
X002836Y009414D01*
X002878Y009441D01*
X002922Y009465D01*
X002968Y009486D01*
X003015Y009502D01*
X003063Y009515D01*
X003113Y009524D01*
X003162Y009529D01*
X003213Y009530D01*
X003263Y009527D01*
X003312Y009520D01*
X003361Y009509D01*
X003409Y009494D01*
X003455Y009476D01*
X003500Y009454D01*
X003543Y009428D01*
X003584Y009399D01*
X003623Y009367D01*
X003659Y009332D01*
X003691Y009294D01*
X003721Y009254D01*
X003748Y009211D01*
X003771Y009167D01*
X003790Y009121D01*
X003806Y009073D01*
X003818Y009024D01*
X003826Y008975D01*
X003830Y008925D01*
X003830Y008875D01*
X003826Y008825D01*
X003818Y008776D01*
X003806Y008727D01*
X003790Y008679D01*
X003771Y008633D01*
X003748Y008589D01*
X003721Y008546D01*
X003691Y008506D01*
X003659Y008468D01*
X003623Y008433D01*
X003584Y008401D01*
X003543Y008372D01*
X003500Y008346D01*
X003455Y008324D01*
X003409Y008306D01*
X003361Y008291D01*
X003312Y008280D01*
X003263Y008273D01*
X003213Y008270D01*
X003162Y008271D01*
X003113Y008276D01*
X003063Y008285D01*
X003015Y008298D01*
X002968Y008314D01*
X002922Y008335D01*
X002878Y008359D01*
X002836Y008386D01*
X002796Y008416D01*
X002759Y008450D01*
X002725Y008487D01*
X002693Y008526D01*
X002665Y008567D01*
X002640Y008611D01*
X002619Y008656D01*
X002602Y008703D01*
X002588Y008751D01*
X002578Y008800D01*
X002572Y008850D01*
X002570Y008900D01*
D18*
X003200Y021650D02*
X000200Y021650D01*
X000200Y026650D01*
X000700Y026650D01*
X002700Y026650D02*
X003200Y026650D01*
X003200Y021650D01*
D19*
X008859Y027171D02*
X008982Y027233D01*
X009106Y027356D01*
X008921Y027356D01*
X008859Y027418D01*
X008859Y027480D01*
X008921Y027541D01*
X009044Y027541D01*
X009106Y027480D01*
X009106Y027356D01*
X009227Y027233D02*
X009289Y027171D01*
X009412Y027171D01*
X009474Y027233D01*
X009474Y027480D01*
X009412Y027541D01*
X009289Y027541D01*
X009227Y027480D01*
X011870Y026021D02*
X011870Y025960D01*
X012117Y025960D01*
X012238Y026021D02*
X012300Y025960D01*
X012423Y025960D01*
X012485Y026021D01*
X012485Y026268D01*
X012423Y026330D01*
X012300Y026330D01*
X012238Y026268D01*
X012117Y026268D02*
X012117Y026330D01*
X012117Y026268D02*
X011870Y026021D01*
X014321Y022641D02*
X014444Y022641D01*
X014506Y022580D01*
X014506Y022518D01*
X014444Y022456D01*
X014321Y022456D01*
X014259Y022518D01*
X014259Y022580D01*
X014321Y022641D01*
X014321Y022456D02*
X014259Y022394D01*
X014259Y022333D01*
X014321Y022271D01*
X014444Y022271D01*
X014506Y022333D01*
X014506Y022394D01*
X014444Y022456D01*
X014627Y022333D02*
X014689Y022271D01*
X014812Y022271D01*
X014874Y022333D01*
X014874Y022580D01*
X014812Y022641D01*
X014689Y022641D01*
X014627Y022580D01*
X023780Y012227D02*
X023748Y011909D01*
X023641Y011875D01*
X023541Y011824D01*
X023294Y012026D01*
X023124Y011856D01*
X023326Y011609D01*
X023275Y011509D01*
X023241Y011402D01*
X022923Y011370D01*
X022923Y011130D01*
X023241Y011098D01*
X023275Y010991D01*
X023326Y010891D01*
X023124Y010644D01*
X023294Y010474D01*
X023541Y010676D01*
X023641Y010625D01*
X023782Y010966D01*
X023729Y010994D01*
X023682Y011032D01*
X023644Y011079D01*
X023616Y011132D01*
X023598Y011190D01*
X023592Y011250D01*
X023599Y011313D01*
X023618Y011373D01*
X023649Y011428D01*
X023691Y011475D01*
X023741Y011513D01*
X023798Y011540D01*
X023860Y011555D01*
X023923Y011557D01*
X023985Y011546D01*
X024044Y011522D01*
X024096Y011487D01*
X024140Y011442D01*
X024175Y011389D01*
X024197Y011330D01*
X024207Y011267D01*
X024204Y011204D01*
X024188Y011143D01*
X024160Y011086D01*
X024122Y011037D01*
X024540Y011037D01*
X024531Y011009D02*
X024088Y011009D01*
X024073Y010996D02*
X024018Y010966D01*
X024159Y010625D01*
X024259Y010676D01*
X024506Y010474D01*
X024676Y010644D01*
X024474Y010891D01*
X024525Y010991D01*
X024559Y011098D01*
X024877Y011130D01*
X024877Y011370D01*
X024559Y011402D01*
X024525Y011509D01*
X024474Y011609D01*
X024676Y011856D01*
X024506Y012026D01*
X024259Y011824D01*
X024159Y011875D01*
X024052Y011909D01*
X024020Y012227D01*
X023780Y012227D01*
X023778Y012206D02*
X024022Y012206D01*
X024025Y012177D02*
X023775Y012177D01*
X023772Y012149D02*
X024028Y012149D01*
X024031Y012120D02*
X023769Y012120D01*
X023766Y012092D02*
X024034Y012092D01*
X024037Y012063D02*
X023763Y012063D01*
X023761Y012035D02*
X024039Y012035D01*
X024042Y012006D02*
X023758Y012006D01*
X023755Y011978D02*
X024045Y011978D01*
X024048Y011949D02*
X023752Y011949D01*
X023749Y011921D02*
X024051Y011921D01*
X024106Y011892D02*
X023694Y011892D01*
X023619Y011864D02*
X024181Y011864D01*
X024237Y011835D02*
X023563Y011835D01*
X023528Y011835D02*
X023141Y011835D01*
X023132Y011864D02*
X023493Y011864D01*
X023458Y011892D02*
X023161Y011892D01*
X023189Y011921D02*
X023423Y011921D01*
X023388Y011949D02*
X023218Y011949D01*
X023246Y011978D02*
X023353Y011978D01*
X023318Y012006D02*
X023275Y012006D01*
X023165Y011807D02*
X024635Y011807D01*
X024659Y011835D02*
X024272Y011835D01*
X024307Y011864D02*
X024668Y011864D01*
X024639Y011892D02*
X024342Y011892D01*
X024377Y011921D02*
X024611Y011921D01*
X024582Y011949D02*
X024412Y011949D01*
X024447Y011978D02*
X024554Y011978D01*
X024525Y012006D02*
X024482Y012006D01*
X024612Y011778D02*
X023188Y011778D01*
X023211Y011750D02*
X024589Y011750D01*
X024566Y011721D02*
X023234Y011721D01*
X023258Y011693D02*
X024542Y011693D01*
X024519Y011664D02*
X023281Y011664D01*
X023304Y011636D02*
X024496Y011636D01*
X024475Y011607D02*
X023325Y011607D01*
X023311Y011579D02*
X024489Y011579D01*
X024504Y011550D02*
X023960Y011550D01*
X024044Y011522D02*
X024519Y011522D01*
X024530Y011493D02*
X024087Y011493D01*
X024118Y011465D02*
X024539Y011465D01*
X024548Y011436D02*
X024144Y011436D01*
X024162Y011408D02*
X024558Y011408D01*
X024787Y011379D02*
X024178Y011379D01*
X024189Y011351D02*
X024877Y011351D01*
X024877Y011322D02*
X024198Y011322D01*
X024203Y011294D02*
X024877Y011294D01*
X024877Y011265D02*
X024207Y011265D01*
X024206Y011237D02*
X024877Y011237D01*
X024877Y011208D02*
X024204Y011208D01*
X024198Y011180D02*
X024877Y011180D01*
X024877Y011151D02*
X024190Y011151D01*
X024178Y011123D02*
X024804Y011123D01*
X024558Y011094D02*
X024164Y011094D01*
X024144Y011066D02*
X024549Y011066D01*
X024520Y010980D02*
X024044Y010980D01*
X024073Y010996D02*
X024122Y011037D01*
X024024Y010952D02*
X024505Y010952D01*
X024490Y010923D02*
X024035Y010923D01*
X024047Y010895D02*
X024475Y010895D01*
X024495Y010866D02*
X024059Y010866D01*
X024071Y010838D02*
X024518Y010838D01*
X024541Y010809D02*
X024083Y010809D01*
X024094Y010781D02*
X024564Y010781D01*
X024587Y010752D02*
X024106Y010752D01*
X024118Y010724D02*
X024611Y010724D01*
X024634Y010695D02*
X024130Y010695D01*
X024142Y010667D02*
X024240Y010667D01*
X024270Y010667D02*
X024657Y010667D01*
X024670Y010638D02*
X024305Y010638D01*
X024340Y010610D02*
X024641Y010610D01*
X024613Y010581D02*
X024375Y010581D01*
X024410Y010553D02*
X024584Y010553D01*
X024556Y010524D02*
X024445Y010524D01*
X024480Y010496D02*
X024527Y010496D01*
X024185Y010638D02*
X024153Y010638D01*
X023717Y010809D02*
X023259Y010809D01*
X023236Y010781D02*
X023706Y010781D01*
X023694Y010752D02*
X023213Y010752D01*
X023189Y010724D02*
X023682Y010724D01*
X023670Y010695D02*
X023166Y010695D01*
X023143Y010667D02*
X023530Y010667D01*
X023560Y010667D02*
X023658Y010667D01*
X023647Y010638D02*
X023615Y010638D01*
X023495Y010638D02*
X023130Y010638D01*
X023159Y010610D02*
X023460Y010610D01*
X023425Y010581D02*
X023187Y010581D01*
X023216Y010553D02*
X023390Y010553D01*
X023355Y010524D02*
X023244Y010524D01*
X023273Y010496D02*
X023320Y010496D01*
X023282Y010838D02*
X023729Y010838D01*
X023741Y010866D02*
X023305Y010866D01*
X023325Y010895D02*
X023753Y010895D01*
X023765Y010923D02*
X023310Y010923D01*
X023295Y010952D02*
X023776Y010952D01*
X023756Y010980D02*
X023280Y010980D01*
X023269Y011009D02*
X023712Y011009D01*
X023679Y011037D02*
X023260Y011037D01*
X023251Y011066D02*
X023655Y011066D01*
X023636Y011094D02*
X023242Y011094D01*
X022996Y011123D02*
X023621Y011123D01*
X023610Y011151D02*
X022923Y011151D01*
X022923Y011180D02*
X023601Y011180D01*
X023597Y011208D02*
X022923Y011208D01*
X022923Y011237D02*
X023594Y011237D01*
X023594Y011265D02*
X022923Y011265D01*
X022923Y011294D02*
X023597Y011294D01*
X023602Y011322D02*
X022923Y011322D01*
X022923Y011351D02*
X023611Y011351D01*
X023622Y011379D02*
X023013Y011379D01*
X023242Y011408D02*
X023638Y011408D01*
X023656Y011436D02*
X023252Y011436D01*
X023261Y011465D02*
X023681Y011465D01*
X023714Y011493D02*
X023270Y011493D01*
X023281Y011522D02*
X023759Y011522D01*
X023839Y011550D02*
X023296Y011550D01*
X009144Y009271D02*
X008897Y009271D01*
X009020Y009271D02*
X009020Y009642D01*
X008897Y009518D01*
X008775Y009580D02*
X008714Y009642D01*
X008590Y009642D01*
X008528Y009580D01*
X008528Y009333D01*
X008590Y009271D01*
X008714Y009271D01*
X008775Y009333D01*
D20*
X005841Y029864D03*
X005841Y030336D03*
D21*
X005841Y030100D03*
D22*
X005643Y016294D03*
X004985Y016294D03*
X004300Y016294D03*
X003643Y016294D03*
X002950Y016294D03*
D23*
X003920Y020936D03*
D24*
X010757Y017125D02*
X010686Y017111D01*
X010687Y017112D02*
X010669Y017190D01*
X010648Y017267D01*
X010624Y017344D01*
X010595Y017419D01*
X010563Y017492D01*
X010528Y017564D01*
X010489Y017634D01*
X010447Y017702D01*
X010402Y017768D01*
X010354Y017832D01*
X010302Y017893D01*
X010248Y017952D01*
X010191Y018009D01*
X010131Y018062D01*
X010069Y018112D01*
X010005Y018160D01*
X009938Y018204D01*
X009869Y018245D01*
X009799Y018283D01*
X009726Y018317D01*
X009652Y018348D01*
X009577Y018375D01*
X009500Y018399D01*
X009423Y018419D01*
X009344Y018435D01*
X009265Y018448D01*
X009186Y018456D01*
X009106Y018461D01*
X009026Y018462D01*
X008946Y018459D01*
X008866Y018452D01*
X008786Y018442D01*
X008708Y018427D01*
X008630Y018409D01*
X008553Y018388D01*
X008477Y018362D01*
X008402Y018333D01*
X008329Y018300D01*
X008257Y018264D01*
X008188Y018225D01*
X008120Y018182D01*
X008054Y018136D01*
X007991Y018087D01*
X007930Y018035D01*
X007872Y017980D01*
X007816Y017923D01*
X007763Y017862D01*
X007713Y017800D01*
X007667Y017735D01*
X007623Y017668D01*
X007582Y017599D01*
X007545Y017528D01*
X007512Y017455D01*
X007482Y017381D01*
X007455Y017305D01*
X007432Y017228D01*
X007413Y017150D01*
X007343Y017165D01*
X007343Y017166D01*
X007363Y017246D01*
X007386Y017324D01*
X007413Y017402D01*
X007443Y017478D01*
X007478Y017553D01*
X007515Y017626D01*
X007556Y017697D01*
X007601Y017766D01*
X007648Y017833D01*
X007699Y017897D01*
X007752Y017960D01*
X007809Y018019D01*
X007868Y018076D01*
X007930Y018130D01*
X007994Y018181D01*
X008061Y018229D01*
X008130Y018274D01*
X008201Y018315D01*
X008273Y018353D01*
X008348Y018388D01*
X008424Y018419D01*
X008501Y018447D01*
X008580Y018470D01*
X008659Y018491D01*
X008740Y018507D01*
X008821Y018519D01*
X008902Y018528D01*
X008984Y018533D01*
X009067Y018534D01*
X009149Y018531D01*
X009230Y018524D01*
X009312Y018514D01*
X009393Y018499D01*
X009473Y018481D01*
X009552Y018459D01*
X009630Y018433D01*
X009706Y018404D01*
X009782Y018371D01*
X009855Y018335D01*
X009927Y018295D01*
X009997Y018252D01*
X010065Y018206D01*
X010130Y018156D01*
X010193Y018103D01*
X010254Y018048D01*
X010312Y017990D01*
X010367Y017929D01*
X010419Y017865D01*
X010468Y017800D01*
X010514Y017732D01*
X010557Y017661D01*
X010596Y017589D01*
X010632Y017516D01*
X010664Y017440D01*
X010693Y017363D01*
X010718Y017285D01*
X010740Y017206D01*
X010757Y017126D01*
X010751Y017124D01*
X010733Y017206D01*
X010711Y017286D01*
X010685Y017365D01*
X010656Y017443D01*
X010623Y017519D01*
X010586Y017594D01*
X010546Y017667D01*
X010502Y017737D01*
X010455Y017806D01*
X010405Y017872D01*
X010351Y017936D01*
X010295Y017997D01*
X010235Y018056D01*
X010173Y018111D01*
X010109Y018164D01*
X010042Y018213D01*
X009973Y018259D01*
X009901Y018302D01*
X009828Y018341D01*
X009753Y018377D01*
X009676Y018409D01*
X009598Y018437D01*
X009518Y018462D01*
X009438Y018482D01*
X009356Y018499D01*
X009274Y018512D01*
X009191Y018521D01*
X009108Y018526D01*
X009025Y018527D01*
X008942Y018524D01*
X008859Y018517D01*
X008776Y018506D01*
X008694Y018491D01*
X008613Y018472D01*
X008533Y018450D01*
X008454Y018423D01*
X008377Y018393D01*
X008301Y018359D01*
X008227Y018322D01*
X008154Y018281D01*
X008084Y018236D01*
X008016Y018188D01*
X007950Y018137D01*
X007887Y018083D01*
X007826Y018026D01*
X007768Y017967D01*
X007713Y017904D01*
X007662Y017839D01*
X007613Y017771D01*
X007568Y017702D01*
X007526Y017630D01*
X007487Y017556D01*
X007452Y017481D01*
X007421Y017403D01*
X007393Y017325D01*
X007370Y017245D01*
X007350Y017164D01*
X007357Y017163D01*
X007376Y017243D01*
X007400Y017323D01*
X007427Y017401D01*
X007459Y017478D01*
X007493Y017553D01*
X007532Y017626D01*
X007573Y017698D01*
X007619Y017768D01*
X007667Y017835D01*
X007719Y017900D01*
X007773Y017962D01*
X007831Y018021D01*
X007891Y018078D01*
X007954Y018132D01*
X008020Y018183D01*
X008088Y018230D01*
X008158Y018275D01*
X008230Y018315D01*
X008304Y018353D01*
X008380Y018386D01*
X008457Y018417D01*
X008535Y018443D01*
X008615Y018465D01*
X008696Y018484D01*
X008777Y018499D01*
X008860Y018510D01*
X008942Y018517D01*
X009025Y018520D01*
X009108Y018519D01*
X009190Y018514D01*
X009273Y018505D01*
X009355Y018492D01*
X009436Y018475D01*
X009516Y018455D01*
X009595Y018430D01*
X009673Y018402D01*
X009750Y018370D01*
X009825Y018335D01*
X009898Y018296D01*
X009969Y018253D01*
X010038Y018207D01*
X010105Y018158D01*
X010169Y018106D01*
X010231Y018051D01*
X010290Y017993D01*
X010346Y017932D01*
X010399Y017868D01*
X010449Y017802D01*
X010496Y017734D01*
X010539Y017663D01*
X010580Y017591D01*
X010616Y017516D01*
X010649Y017440D01*
X010678Y017363D01*
X010704Y017284D01*
X010726Y017204D01*
X010744Y017123D01*
X010737Y017122D01*
X010719Y017202D01*
X010697Y017282D01*
X010672Y017360D01*
X010643Y017438D01*
X010610Y017513D01*
X010573Y017587D01*
X010533Y017660D01*
X010490Y017730D01*
X010443Y017798D01*
X010394Y017864D01*
X010341Y017927D01*
X010285Y017988D01*
X010226Y018046D01*
X010164Y018101D01*
X010100Y018153D01*
X010034Y018202D01*
X009965Y018247D01*
X009894Y018290D01*
X009822Y018329D01*
X009747Y018364D01*
X009671Y018396D01*
X009593Y018424D01*
X009514Y018448D01*
X009434Y018469D01*
X009354Y018485D01*
X009272Y018498D01*
X009190Y018507D01*
X009108Y018512D01*
X009025Y018513D01*
X008943Y018510D01*
X008860Y018503D01*
X008778Y018492D01*
X008697Y018477D01*
X008617Y018459D01*
X008537Y018436D01*
X008459Y018410D01*
X008382Y018380D01*
X008307Y018346D01*
X008233Y018309D01*
X008161Y018269D01*
X008092Y018225D01*
X008024Y018177D01*
X007959Y018127D01*
X007896Y018073D01*
X007836Y018016D01*
X007779Y017957D01*
X007724Y017895D01*
X007673Y017831D01*
X007624Y017764D01*
X007579Y017694D01*
X007538Y017623D01*
X007500Y017550D01*
X007465Y017475D01*
X007434Y017399D01*
X007407Y017321D01*
X007383Y017242D01*
X007363Y017161D01*
X007370Y017160D01*
X007390Y017240D01*
X007413Y017318D01*
X007441Y017396D01*
X007471Y017472D01*
X007506Y017547D01*
X007544Y017620D01*
X007585Y017691D01*
X007630Y017760D01*
X007678Y017826D01*
X007729Y017891D01*
X007784Y017952D01*
X007841Y018012D01*
X007901Y018068D01*
X007963Y018121D01*
X008028Y018172D01*
X008095Y018219D01*
X008165Y018263D01*
X008237Y018303D01*
X008310Y018340D01*
X008385Y018374D01*
X008462Y018403D01*
X008540Y018430D01*
X008619Y018452D01*
X008699Y018470D01*
X008780Y018485D01*
X008861Y018496D01*
X008943Y018503D01*
X009025Y018506D01*
X009107Y018505D01*
X009189Y018500D01*
X009271Y018491D01*
X009352Y018478D01*
X009433Y018462D01*
X009512Y018441D01*
X009591Y018417D01*
X009668Y018389D01*
X009744Y018358D01*
X009818Y018322D01*
X009891Y018284D01*
X009961Y018241D01*
X010030Y018196D01*
X010096Y018147D01*
X010160Y018095D01*
X010221Y018041D01*
X010280Y017983D01*
X010335Y017922D01*
X010388Y017859D01*
X010438Y017794D01*
X010484Y017726D01*
X010527Y017656D01*
X010567Y017584D01*
X010603Y017510D01*
X010636Y017435D01*
X010665Y017358D01*
X010691Y017280D01*
X010712Y017201D01*
X010730Y017120D01*
X010723Y017119D01*
X010705Y017199D01*
X010684Y017278D01*
X010659Y017356D01*
X010630Y017432D01*
X010597Y017507D01*
X010561Y017581D01*
X010521Y017653D01*
X010478Y017722D01*
X010432Y017790D01*
X010383Y017855D01*
X010330Y017918D01*
X010275Y017978D01*
X010216Y018035D01*
X010155Y018090D01*
X010092Y018142D01*
X010026Y018190D01*
X009958Y018236D01*
X009887Y018278D01*
X009815Y018316D01*
X009741Y018351D01*
X009666Y018383D01*
X009589Y018411D01*
X009510Y018435D01*
X009431Y018455D01*
X009351Y018472D01*
X009270Y018484D01*
X009189Y018493D01*
X009107Y018498D01*
X009025Y018499D01*
X008943Y018496D01*
X008862Y018489D01*
X008781Y018478D01*
X008700Y018464D01*
X008620Y018445D01*
X008542Y018423D01*
X008464Y018397D01*
X008388Y018367D01*
X008313Y018334D01*
X008240Y018297D01*
X008169Y018257D01*
X008099Y018213D01*
X008032Y018166D01*
X007968Y018116D01*
X007905Y018063D01*
X007846Y018007D01*
X007789Y017948D01*
X007735Y017886D01*
X007684Y017822D01*
X007636Y017756D01*
X007591Y017687D01*
X007550Y017616D01*
X007512Y017544D01*
X007478Y017469D01*
X007447Y017394D01*
X007420Y017316D01*
X007397Y017238D01*
X007377Y017158D01*
X007384Y017157D01*
X007403Y017236D01*
X007427Y017314D01*
X007454Y017391D01*
X007484Y017467D01*
X007519Y017541D01*
X007556Y017613D01*
X007597Y017683D01*
X007642Y017752D01*
X007689Y017818D01*
X007740Y017882D01*
X007794Y017943D01*
X007851Y018002D01*
X007910Y018057D01*
X007972Y018110D01*
X008036Y018160D01*
X008103Y018207D01*
X008172Y018251D01*
X008243Y018291D01*
X008316Y018327D01*
X008390Y018361D01*
X008466Y018390D01*
X008544Y018416D01*
X008622Y018438D01*
X008702Y018457D01*
X008782Y018471D01*
X008863Y018482D01*
X008944Y018489D01*
X009025Y018492D01*
X009107Y018491D01*
X009188Y018486D01*
X009269Y018477D01*
X009350Y018465D01*
X009430Y018448D01*
X009509Y018428D01*
X009586Y018404D01*
X009663Y018376D01*
X009738Y018345D01*
X009812Y018310D01*
X009884Y018271D01*
X009954Y018230D01*
X010022Y018184D01*
X010087Y018136D01*
X010151Y018085D01*
X010211Y018030D01*
X010270Y017973D01*
X010325Y017913D01*
X010377Y017851D01*
X010426Y017786D01*
X010472Y017718D01*
X010515Y017649D01*
X010555Y017578D01*
X010591Y017505D01*
X010623Y017430D01*
X010652Y017354D01*
X010677Y017276D01*
X010699Y017197D01*
X010716Y017118D01*
X010709Y017116D01*
X010692Y017196D01*
X010670Y017274D01*
X010645Y017351D01*
X010617Y017427D01*
X010584Y017502D01*
X010549Y017574D01*
X010509Y017646D01*
X010467Y017715D01*
X010421Y017782D01*
X010372Y017846D01*
X010320Y017909D01*
X010265Y017968D01*
X010207Y018025D01*
X010146Y018079D01*
X010083Y018131D01*
X010018Y018179D01*
X009950Y018224D01*
X009880Y018265D01*
X009809Y018304D01*
X009736Y018338D01*
X009661Y018370D01*
X009584Y018397D01*
X009507Y018421D01*
X009428Y018441D01*
X009349Y018458D01*
X009268Y018470D01*
X009188Y018479D01*
X009107Y018484D01*
X009025Y018485D01*
X008944Y018482D01*
X008863Y018475D01*
X008783Y018464D01*
X008703Y018450D01*
X008624Y018432D01*
X008546Y018409D01*
X008469Y018384D01*
X008393Y018354D01*
X008319Y018321D01*
X008246Y018285D01*
X008176Y018245D01*
X008107Y018201D01*
X008041Y018155D01*
X007976Y018105D01*
X007915Y018052D01*
X007856Y017997D01*
X007799Y017938D01*
X007746Y017877D01*
X007695Y017814D01*
X007648Y017748D01*
X007603Y017680D01*
X007562Y017610D01*
X007525Y017538D01*
X007491Y017464D01*
X007460Y017389D01*
X007433Y017312D01*
X007410Y017234D01*
X007391Y017155D01*
X007398Y017154D01*
X007417Y017232D01*
X007440Y017310D01*
X007467Y017386D01*
X007497Y017461D01*
X007531Y017535D01*
X007568Y017606D01*
X007609Y017676D01*
X007653Y017744D01*
X007701Y017809D01*
X007751Y017873D01*
X007804Y017933D01*
X007860Y017992D01*
X007919Y018047D01*
X007981Y018100D01*
X008045Y018149D01*
X008111Y018195D01*
X008179Y018239D01*
X008250Y018278D01*
X008322Y018315D01*
X008396Y018348D01*
X008471Y018377D01*
X008548Y018403D01*
X008626Y018425D01*
X008704Y018443D01*
X008784Y018458D01*
X008864Y018468D01*
X008945Y018475D01*
X009025Y018478D01*
X009106Y018477D01*
X009187Y018472D01*
X009267Y018463D01*
X009347Y018451D01*
X009426Y018435D01*
X009505Y018414D01*
X009582Y018391D01*
X009658Y018363D01*
X009733Y018332D01*
X009806Y018297D01*
X009877Y018259D01*
X009946Y018218D01*
X010014Y018173D01*
X010079Y018125D01*
X010142Y018074D01*
X010202Y018020D01*
X010259Y017963D01*
X010314Y017904D01*
X010366Y017842D01*
X010415Y017778D01*
X010461Y017711D01*
X010503Y017642D01*
X010542Y017571D01*
X010578Y017499D01*
X010610Y017425D01*
X010639Y017349D01*
X010664Y017272D01*
X010685Y017194D01*
X010702Y017115D01*
X010696Y017114D01*
X010678Y017192D01*
X010657Y017270D01*
X010632Y017347D01*
X010604Y017422D01*
X010572Y017496D01*
X010536Y017568D01*
X010497Y017638D01*
X010455Y017707D01*
X010409Y017773D01*
X010361Y017838D01*
X010309Y017899D01*
X010254Y017959D01*
X010197Y018015D01*
X010137Y018069D01*
X010075Y018120D01*
X010010Y018167D01*
X009943Y018212D01*
X009874Y018253D01*
X009803Y018291D01*
X009730Y018326D01*
X009656Y018357D01*
X009580Y018384D01*
X009503Y018408D01*
X009425Y018428D01*
X009346Y018444D01*
X009266Y018456D01*
X009186Y018465D01*
X009106Y018470D01*
X009026Y018471D01*
X008945Y018468D01*
X008865Y018461D01*
X008785Y018451D01*
X008706Y018436D01*
X008627Y018418D01*
X008550Y018396D01*
X008474Y018371D01*
X008398Y018341D01*
X008325Y018309D01*
X008253Y018272D01*
X008183Y018233D01*
X008115Y018190D01*
X008049Y018143D01*
X007985Y018094D01*
X007924Y018042D01*
X007865Y017987D01*
X007809Y017929D01*
X007756Y017868D01*
X007706Y017805D01*
X007659Y017740D01*
X007615Y017672D01*
X007575Y017603D01*
X007537Y017531D01*
X007504Y017458D01*
X007473Y017384D01*
X007447Y017308D01*
X007424Y017231D01*
X007405Y017152D01*
X007411Y017151D01*
X007431Y017229D01*
X007453Y017306D01*
X007480Y017381D01*
X007510Y017456D01*
X007544Y017528D01*
X007581Y017600D01*
X007621Y017669D01*
X007665Y017736D01*
X007712Y017801D01*
X007762Y017864D01*
X007815Y017924D01*
X007870Y017982D01*
X007929Y018037D01*
X007990Y018089D01*
X008053Y018138D01*
X008119Y018184D01*
X008187Y018227D01*
X008256Y018266D01*
X008328Y018302D01*
X008401Y018335D01*
X008476Y018364D01*
X008552Y018389D01*
X008629Y018411D01*
X008707Y018429D01*
X008786Y018444D01*
X008866Y018454D01*
X008945Y018461D01*
X009026Y018464D01*
X009106Y018463D01*
X009186Y018458D01*
X009266Y018450D01*
X009345Y018437D01*
X009423Y018421D01*
X009501Y018401D01*
X009578Y018377D01*
X009653Y018350D01*
X009727Y018319D01*
X009799Y018285D01*
X009870Y018247D01*
X009939Y018206D01*
X010006Y018162D01*
X010070Y018114D01*
X010133Y018063D01*
X010192Y018010D01*
X010249Y017954D01*
X010304Y017895D01*
X010355Y017833D01*
X010404Y017769D01*
X010449Y017703D01*
X010491Y017635D01*
X010530Y017565D01*
X010565Y017493D01*
X010597Y017419D01*
X010626Y017344D01*
X010650Y017268D01*
X010671Y017191D01*
X010689Y017112D01*
X007383Y016394D02*
X007453Y016411D01*
X007452Y016410D02*
X007473Y016332D01*
X007497Y016255D01*
X007524Y016180D01*
X007556Y016105D01*
X007591Y016033D01*
X007629Y015962D01*
X007671Y015893D01*
X007716Y015826D01*
X007765Y015762D01*
X007816Y015700D01*
X007870Y015640D01*
X007928Y015584D01*
X007988Y015530D01*
X008050Y015479D01*
X008115Y015431D01*
X008182Y015387D01*
X008251Y015345D01*
X008323Y015308D01*
X008396Y015273D01*
X008470Y015243D01*
X008546Y015216D01*
X008623Y015192D01*
X008701Y015173D01*
X008780Y015157D01*
X008860Y015145D01*
X008940Y015137D01*
X009021Y015134D01*
X009101Y015133D01*
X009182Y015137D01*
X009262Y015145D01*
X009342Y015157D01*
X009421Y015172D01*
X009499Y015192D01*
X009576Y015215D01*
X009652Y015242D01*
X009727Y015273D01*
X009800Y015307D01*
X009871Y015344D01*
X009940Y015386D01*
X010007Y015430D01*
X010072Y015478D01*
X010135Y015529D01*
X010195Y015582D01*
X010252Y015639D01*
X010307Y015698D01*
X010358Y015760D01*
X010407Y015825D01*
X010452Y015891D01*
X010494Y015960D01*
X010533Y016031D01*
X010568Y016104D01*
X010599Y016178D01*
X010627Y016253D01*
X010651Y016330D01*
X010671Y016408D01*
X010688Y016487D01*
X010758Y016475D01*
X010759Y016474D01*
X010742Y016393D01*
X010721Y016313D01*
X010696Y016235D01*
X010668Y016157D01*
X010636Y016081D01*
X010601Y016006D01*
X010562Y015933D01*
X010519Y015863D01*
X010473Y015794D01*
X010424Y015727D01*
X010372Y015663D01*
X010316Y015602D01*
X010258Y015543D01*
X010197Y015487D01*
X010134Y015434D01*
X010068Y015385D01*
X010000Y015338D01*
X009929Y015295D01*
X009857Y015255D01*
X009783Y015219D01*
X009707Y015186D01*
X009629Y015157D01*
X009551Y015132D01*
X009471Y015110D01*
X009390Y015093D01*
X009309Y015079D01*
X009227Y015069D01*
X009144Y015063D01*
X009062Y015061D01*
X008979Y015063D01*
X008897Y015069D01*
X008815Y015079D01*
X008733Y015093D01*
X008653Y015110D01*
X008573Y015132D01*
X008494Y015157D01*
X008417Y015186D01*
X008341Y015219D01*
X008267Y015255D01*
X008194Y015295D01*
X008124Y015338D01*
X008056Y015385D01*
X007990Y015435D01*
X007926Y015488D01*
X007865Y015544D01*
X007807Y015602D01*
X007752Y015664D01*
X007700Y015728D01*
X007651Y015794D01*
X007605Y015863D01*
X007562Y015934D01*
X007523Y016007D01*
X007488Y016081D01*
X007456Y016157D01*
X007427Y016235D01*
X007403Y016314D01*
X007382Y016394D01*
X007389Y016396D01*
X007410Y016316D01*
X007434Y016237D01*
X007462Y016160D01*
X007494Y016084D01*
X007529Y016010D01*
X007568Y015937D01*
X007611Y015867D01*
X007656Y015798D01*
X007705Y015732D01*
X007757Y015668D01*
X007812Y015607D01*
X007870Y015549D01*
X007931Y015493D01*
X007994Y015440D01*
X008060Y015391D01*
X008128Y015344D01*
X008198Y015301D01*
X008270Y015262D01*
X008344Y015225D01*
X008419Y015193D01*
X008496Y015164D01*
X008575Y015139D01*
X008654Y015117D01*
X008735Y015099D01*
X008816Y015086D01*
X008897Y015076D01*
X008979Y015070D01*
X009062Y015068D01*
X009144Y015070D01*
X009226Y015076D01*
X009308Y015086D01*
X009389Y015099D01*
X009469Y015117D01*
X009549Y015138D01*
X009627Y015164D01*
X009704Y015193D01*
X009780Y015225D01*
X009854Y015261D01*
X009926Y015301D01*
X009996Y015344D01*
X010064Y015390D01*
X010130Y015440D01*
X010193Y015493D01*
X010253Y015548D01*
X010311Y015607D01*
X010366Y015668D01*
X010418Y015732D01*
X010467Y015798D01*
X010513Y015866D01*
X010555Y015937D01*
X010594Y016009D01*
X010630Y016084D01*
X010662Y016159D01*
X010690Y016237D01*
X010714Y016315D01*
X010735Y016395D01*
X010752Y016476D01*
X010745Y016477D01*
X010728Y016397D01*
X010708Y016317D01*
X010683Y016239D01*
X010655Y016162D01*
X010623Y016086D01*
X010588Y016012D01*
X010549Y015940D01*
X010507Y015870D01*
X010462Y015802D01*
X010413Y015736D01*
X010361Y015672D01*
X010306Y015612D01*
X010249Y015553D01*
X010188Y015498D01*
X010125Y015445D01*
X010060Y015396D01*
X009992Y015350D01*
X009922Y015307D01*
X009850Y015267D01*
X009777Y015231D01*
X009702Y015199D01*
X009625Y015170D01*
X009547Y015145D01*
X009468Y015124D01*
X009388Y015106D01*
X009307Y015093D01*
X009225Y015083D01*
X009144Y015077D01*
X009062Y015075D01*
X008980Y015077D01*
X008898Y015083D01*
X008817Y015093D01*
X008736Y015106D01*
X008656Y015124D01*
X008577Y015145D01*
X008499Y015170D01*
X008422Y015199D01*
X008347Y015232D01*
X008273Y015268D01*
X008201Y015307D01*
X008131Y015350D01*
X008064Y015396D01*
X007998Y015446D01*
X007935Y015498D01*
X007875Y015554D01*
X007817Y015612D01*
X007763Y015673D01*
X007711Y015736D01*
X007662Y015802D01*
X007617Y015870D01*
X007574Y015941D01*
X007536Y016013D01*
X007500Y016087D01*
X007469Y016162D01*
X007441Y016239D01*
X007416Y016318D01*
X007396Y016397D01*
X007403Y016399D01*
X007423Y016320D01*
X007447Y016242D01*
X007475Y016165D01*
X007507Y016090D01*
X007542Y016016D01*
X007580Y015944D01*
X007622Y015874D01*
X007668Y015806D01*
X007716Y015741D01*
X007768Y015677D01*
X007823Y015617D01*
X007880Y015559D01*
X007940Y015503D01*
X008003Y015451D01*
X008068Y015402D01*
X008135Y015356D01*
X008205Y015313D01*
X008276Y015274D01*
X008350Y015238D01*
X008425Y015206D01*
X008501Y015177D01*
X008579Y015152D01*
X008657Y015131D01*
X008737Y015113D01*
X008818Y015100D01*
X008899Y015090D01*
X008980Y015084D01*
X009062Y015082D01*
X009143Y015084D01*
X009225Y015090D01*
X009306Y015100D01*
X009386Y015113D01*
X009466Y015131D01*
X009545Y015152D01*
X009623Y015177D01*
X009699Y015206D01*
X009774Y015238D01*
X009847Y015274D01*
X009919Y015313D01*
X009988Y015356D01*
X010056Y015402D01*
X010121Y015451D01*
X010184Y015503D01*
X010244Y015558D01*
X010301Y015616D01*
X010356Y015677D01*
X010407Y015740D01*
X010456Y015806D01*
X010501Y015874D01*
X010543Y015944D01*
X010582Y016016D01*
X010617Y016089D01*
X010649Y016165D01*
X010677Y016241D01*
X010701Y016319D01*
X010721Y016398D01*
X010738Y016478D01*
X010731Y016479D01*
X010714Y016400D01*
X010694Y016321D01*
X010670Y016243D01*
X010642Y016167D01*
X010611Y016092D01*
X010576Y016019D01*
X010537Y015947D01*
X010495Y015877D01*
X010450Y015810D01*
X010402Y015745D01*
X010350Y015682D01*
X010296Y015621D01*
X010239Y015563D01*
X010179Y015508D01*
X010117Y015456D01*
X010052Y015407D01*
X009984Y015362D01*
X009915Y015319D01*
X009844Y015280D01*
X009771Y015244D01*
X009696Y015212D01*
X009620Y015183D01*
X009543Y015159D01*
X009464Y015137D01*
X009385Y015120D01*
X009305Y015106D01*
X009224Y015097D01*
X009143Y015091D01*
X009062Y015089D01*
X008980Y015091D01*
X008899Y015097D01*
X008819Y015107D01*
X008739Y015120D01*
X008659Y015138D01*
X008581Y015159D01*
X008503Y015184D01*
X008427Y015212D01*
X008353Y015244D01*
X008280Y015280D01*
X008208Y015319D01*
X008139Y015362D01*
X008072Y015408D01*
X008007Y015457D01*
X007945Y015509D01*
X007885Y015564D01*
X007828Y015621D01*
X007773Y015682D01*
X007722Y015745D01*
X007674Y015810D01*
X007628Y015878D01*
X007587Y015948D01*
X007548Y016019D01*
X007513Y016093D01*
X007482Y016168D01*
X007454Y016244D01*
X007430Y016322D01*
X007409Y016400D01*
X007416Y016402D01*
X007437Y016323D01*
X007461Y016246D01*
X007488Y016170D01*
X007520Y016095D01*
X007554Y016022D01*
X007593Y015951D01*
X007634Y015882D01*
X007679Y015814D01*
X007727Y015749D01*
X007779Y015686D01*
X007833Y015626D01*
X007890Y015569D01*
X007949Y015514D01*
X008011Y015462D01*
X008076Y015413D01*
X008143Y015368D01*
X008212Y015325D01*
X008283Y015286D01*
X008356Y015251D01*
X008430Y015219D01*
X008506Y015190D01*
X008583Y015165D01*
X008661Y015144D01*
X008740Y015127D01*
X008820Y015113D01*
X008900Y015104D01*
X008981Y015098D01*
X009062Y015096D01*
X009143Y015098D01*
X009223Y015104D01*
X009304Y015113D01*
X009384Y015127D01*
X009463Y015144D01*
X009541Y015165D01*
X009618Y015190D01*
X009694Y015218D01*
X009768Y015251D01*
X009841Y015286D01*
X009912Y015325D01*
X009981Y015367D01*
X010048Y015413D01*
X010112Y015462D01*
X010174Y015514D01*
X010234Y015568D01*
X010291Y015626D01*
X010345Y015686D01*
X010396Y015749D01*
X010444Y015814D01*
X010489Y015881D01*
X010531Y015951D01*
X010569Y016022D01*
X010604Y016095D01*
X010636Y016170D01*
X010663Y016246D01*
X010687Y016323D01*
X010708Y016401D01*
X010724Y016481D01*
X010717Y016482D01*
X010701Y016403D01*
X010681Y016325D01*
X010657Y016248D01*
X010629Y016172D01*
X010598Y016098D01*
X010563Y016025D01*
X010525Y015954D01*
X010483Y015885D01*
X010439Y015818D01*
X010391Y015753D01*
X010340Y015691D01*
X010286Y015631D01*
X010229Y015573D01*
X010170Y015519D01*
X010108Y015467D01*
X010043Y015419D01*
X009977Y015373D01*
X009908Y015331D01*
X009838Y015292D01*
X009765Y015257D01*
X009691Y015225D01*
X009616Y015197D01*
X009539Y015172D01*
X009461Y015151D01*
X009382Y015134D01*
X009303Y015120D01*
X009223Y015111D01*
X009142Y015105D01*
X009062Y015103D01*
X008981Y015105D01*
X008901Y015111D01*
X008821Y015120D01*
X008741Y015134D01*
X008662Y015151D01*
X008585Y015172D01*
X008508Y015197D01*
X008432Y015225D01*
X008358Y015257D01*
X008286Y015293D01*
X008215Y015331D01*
X008147Y015374D01*
X008080Y015419D01*
X008016Y015468D01*
X007954Y015519D01*
X007895Y015574D01*
X007838Y015631D01*
X007784Y015691D01*
X007733Y015753D01*
X007685Y015818D01*
X007640Y015885D01*
X007599Y015954D01*
X007561Y016026D01*
X007526Y016098D01*
X007495Y016173D01*
X007467Y016248D01*
X007443Y016325D01*
X007423Y016403D01*
X007430Y016405D01*
X007450Y016327D01*
X007474Y016251D01*
X007501Y016175D01*
X007532Y016101D01*
X007567Y016029D01*
X007605Y015958D01*
X007646Y015889D01*
X007691Y015822D01*
X007738Y015758D01*
X007789Y015696D01*
X007843Y015636D01*
X007899Y015579D01*
X007959Y015525D01*
X008020Y015473D01*
X008084Y015425D01*
X008151Y015380D01*
X008219Y015337D01*
X008289Y015299D01*
X008361Y015263D01*
X008435Y015232D01*
X008510Y015203D01*
X008587Y015179D01*
X008664Y015158D01*
X008743Y015141D01*
X008822Y015127D01*
X008901Y015118D01*
X008981Y015112D01*
X009062Y015110D01*
X009142Y015112D01*
X009222Y015118D01*
X009302Y015127D01*
X009381Y015141D01*
X009459Y015158D01*
X009537Y015179D01*
X009613Y015203D01*
X009688Y015231D01*
X009762Y015263D01*
X009834Y015299D01*
X009905Y015337D01*
X009973Y015379D01*
X010039Y015424D01*
X010103Y015473D01*
X010165Y015524D01*
X010224Y015578D01*
X010281Y015636D01*
X010334Y015695D01*
X010385Y015757D01*
X010433Y015822D01*
X010478Y015889D01*
X010519Y015958D01*
X010557Y016028D01*
X010591Y016101D01*
X010623Y016175D01*
X010650Y016250D01*
X010674Y016327D01*
X010694Y016404D01*
X010710Y016483D01*
X010704Y016484D01*
X010687Y016406D01*
X010667Y016329D01*
X010643Y016252D01*
X010616Y016177D01*
X010585Y016104D01*
X010551Y016031D01*
X010513Y015961D01*
X010472Y015892D01*
X010427Y015826D01*
X010380Y015762D01*
X010329Y015700D01*
X010276Y015640D01*
X010219Y015584D01*
X010161Y015529D01*
X010099Y015478D01*
X010035Y015430D01*
X009969Y015385D01*
X009901Y015343D01*
X009831Y015305D01*
X009759Y015270D01*
X009686Y015238D01*
X009611Y015210D01*
X009535Y015185D01*
X009458Y015165D01*
X009380Y015147D01*
X009301Y015134D01*
X009221Y015125D01*
X009142Y015119D01*
X009062Y015117D01*
X008982Y015119D01*
X008902Y015125D01*
X008823Y015134D01*
X008744Y015148D01*
X008666Y015165D01*
X008589Y015186D01*
X008513Y015210D01*
X008438Y015238D01*
X008364Y015270D01*
X008293Y015305D01*
X008222Y015344D01*
X008154Y015385D01*
X008088Y015430D01*
X008025Y015479D01*
X007963Y015530D01*
X007904Y015584D01*
X007848Y015641D01*
X007795Y015700D01*
X007744Y015762D01*
X007696Y015826D01*
X007652Y015893D01*
X007611Y015961D01*
X007573Y016032D01*
X007539Y016104D01*
X007508Y016178D01*
X007480Y016253D01*
X007457Y016329D01*
X007437Y016407D01*
X007444Y016408D01*
X007463Y016331D01*
X007487Y016255D01*
X007514Y016180D01*
X007545Y016107D01*
X007579Y016035D01*
X007617Y015965D01*
X007658Y015897D01*
X007702Y015830D01*
X007750Y015766D01*
X007800Y015705D01*
X007853Y015645D01*
X007909Y015589D01*
X007968Y015535D01*
X008029Y015484D01*
X008092Y015436D01*
X008158Y015391D01*
X008226Y015350D01*
X008296Y015311D01*
X008367Y015276D01*
X008440Y015245D01*
X008515Y015217D01*
X008591Y015192D01*
X008667Y015172D01*
X008745Y015154D01*
X008824Y015141D01*
X008903Y015132D01*
X008982Y015126D01*
X009062Y015124D01*
X009141Y015126D01*
X009221Y015132D01*
X009300Y015141D01*
X009378Y015154D01*
X009456Y015171D01*
X009533Y015192D01*
X009609Y015216D01*
X009683Y015244D01*
X009756Y015276D01*
X009828Y015311D01*
X009898Y015349D01*
X009965Y015391D01*
X010031Y015436D01*
X010095Y015484D01*
X010156Y015535D01*
X010215Y015589D01*
X010271Y015645D01*
X010324Y015704D01*
X010374Y015766D01*
X010422Y015830D01*
X010466Y015896D01*
X010507Y015964D01*
X010544Y016035D01*
X010579Y016106D01*
X010609Y016180D01*
X010637Y016255D01*
X010660Y016331D01*
X010680Y016408D01*
X010697Y016486D01*
X010690Y016487D01*
X010673Y016408D01*
X010653Y016330D01*
X010629Y016253D01*
X010601Y016177D01*
X010569Y016103D01*
X010534Y016030D01*
X010496Y015959D01*
X010454Y015890D01*
X010408Y015824D01*
X010360Y015759D01*
X010308Y015697D01*
X010254Y015638D01*
X010196Y015581D01*
X010136Y015527D01*
X010074Y015476D01*
X010009Y015428D01*
X009941Y015384D01*
X009872Y015343D01*
X009801Y015305D01*
X009728Y015271D01*
X009653Y015240D01*
X009577Y015213D01*
X009500Y015190D01*
X009421Y015170D01*
X009342Y015155D01*
X009262Y015143D01*
X009182Y015135D01*
X009101Y015131D01*
X009021Y015132D01*
X008940Y015135D01*
X008860Y015143D01*
X008780Y015155D01*
X008701Y015171D01*
X008623Y015190D01*
X008545Y015214D01*
X008469Y015241D01*
X008395Y015271D01*
X008322Y015306D01*
X008250Y015344D01*
X008181Y015385D01*
X008114Y015430D01*
X008049Y015477D01*
X007986Y015528D01*
X007926Y015582D01*
X007869Y015639D01*
X007814Y015699D01*
X007763Y015761D01*
X007714Y015825D01*
X007669Y015892D01*
X007627Y015961D01*
X007589Y016032D01*
X007554Y016104D01*
X007522Y016179D01*
X007495Y016255D01*
X007471Y016332D01*
X007450Y016410D01*
X010154Y010556D02*
X010140Y010627D01*
X010140Y010626D02*
X010225Y010646D01*
X010309Y010669D01*
X010392Y010697D01*
X010473Y010728D01*
X010553Y010763D01*
X010631Y010801D01*
X010708Y010843D01*
X010782Y010888D01*
X010854Y010937D01*
X010924Y010989D01*
X010992Y011044D01*
X011057Y011102D01*
X011119Y011163D01*
X011179Y011226D01*
X011235Y011292D01*
X011288Y011361D01*
X011339Y011432D01*
X011386Y011506D01*
X011429Y011581D01*
X011469Y011659D01*
X011506Y011738D01*
X011539Y011818D01*
X011568Y011900D01*
X011593Y011984D01*
X011615Y012068D01*
X011632Y012153D01*
X011646Y012239D01*
X011656Y012326D01*
X011662Y012413D01*
X011664Y012500D01*
X011662Y012587D01*
X011656Y012674D01*
X011646Y012761D01*
X011632Y012847D01*
X011615Y012932D01*
X011593Y013016D01*
X011568Y013100D01*
X011539Y013182D01*
X011506Y013262D01*
X011469Y013341D01*
X011429Y013419D01*
X011386Y013494D01*
X011339Y013568D01*
X011288Y013639D01*
X011235Y013708D01*
X011179Y013774D01*
X011119Y013837D01*
X011057Y013898D01*
X010992Y013956D01*
X010924Y014011D01*
X010854Y014063D01*
X010782Y014112D01*
X010708Y014157D01*
X010631Y014199D01*
X010553Y014237D01*
X010473Y014272D01*
X010392Y014303D01*
X010309Y014331D01*
X010225Y014354D01*
X010140Y014374D01*
X010154Y014444D01*
X010155Y014444D01*
X010240Y014425D01*
X010324Y014401D01*
X010408Y014374D01*
X010489Y014343D01*
X010570Y014309D01*
X010649Y014271D01*
X010726Y014230D01*
X010801Y014185D01*
X010874Y014137D01*
X010945Y014086D01*
X011014Y014032D01*
X011080Y013975D01*
X011144Y013915D01*
X011205Y013852D01*
X011263Y013787D01*
X011318Y013719D01*
X011370Y013649D01*
X011419Y013576D01*
X011465Y013502D01*
X011507Y013425D01*
X011546Y013347D01*
X011582Y013267D01*
X011614Y013185D01*
X011642Y013103D01*
X011667Y013019D01*
X011688Y012934D01*
X011705Y012848D01*
X011719Y012762D01*
X011728Y012675D01*
X011734Y012587D01*
X011736Y012500D01*
X011734Y012413D01*
X011728Y012325D01*
X011719Y012238D01*
X011705Y012152D01*
X011688Y012066D01*
X011667Y011981D01*
X011642Y011897D01*
X011614Y011815D01*
X011582Y011733D01*
X011546Y011653D01*
X011507Y011575D01*
X011465Y011498D01*
X011419Y011424D01*
X011370Y011351D01*
X011318Y011281D01*
X011263Y011213D01*
X011205Y011148D01*
X011144Y011085D01*
X011080Y011025D01*
X011014Y010968D01*
X010945Y010914D01*
X010874Y010863D01*
X010801Y010815D01*
X010726Y010770D01*
X010649Y010729D01*
X010570Y010691D01*
X010489Y010657D01*
X010408Y010626D01*
X010324Y010599D01*
X010240Y010575D01*
X010155Y010556D01*
X010154Y010563D01*
X010240Y010583D01*
X010325Y010606D01*
X010409Y010634D01*
X010492Y010665D01*
X010574Y010700D01*
X010653Y010739D01*
X010731Y010781D01*
X010807Y010827D01*
X010881Y010876D01*
X010952Y010928D01*
X011022Y010984D01*
X011088Y011042D01*
X011152Y011103D01*
X011213Y011168D01*
X011271Y011234D01*
X011326Y011304D01*
X011378Y011375D01*
X011427Y011449D01*
X011472Y011526D01*
X011514Y011604D01*
X011553Y011683D01*
X011587Y011765D01*
X011618Y011848D01*
X011646Y011932D01*
X011669Y012018D01*
X011689Y012104D01*
X011705Y012191D01*
X011717Y012279D01*
X011725Y012367D01*
X011729Y012456D01*
X011729Y012544D01*
X011725Y012633D01*
X011717Y012721D01*
X011705Y012809D01*
X011689Y012896D01*
X011669Y012982D01*
X011646Y013068D01*
X011618Y013152D01*
X011587Y013235D01*
X011553Y013317D01*
X011514Y013396D01*
X011472Y013474D01*
X011427Y013551D01*
X011378Y013625D01*
X011326Y013696D01*
X011271Y013766D01*
X011213Y013832D01*
X011152Y013897D01*
X011088Y013958D01*
X011022Y014016D01*
X010952Y014072D01*
X010881Y014124D01*
X010807Y014173D01*
X010731Y014219D01*
X010653Y014261D01*
X010574Y014300D01*
X010492Y014335D01*
X010409Y014366D01*
X010325Y014394D01*
X010240Y014417D01*
X010154Y014437D01*
X010152Y014431D01*
X010238Y014411D01*
X010323Y014387D01*
X010407Y014359D01*
X010490Y014328D01*
X010571Y014293D01*
X010650Y014255D01*
X010728Y014213D01*
X010803Y014167D01*
X010877Y014118D01*
X010948Y014066D01*
X011017Y014011D01*
X011083Y013953D01*
X011147Y013892D01*
X011208Y013828D01*
X011266Y013761D01*
X011321Y013692D01*
X011373Y013621D01*
X011421Y013547D01*
X011466Y013471D01*
X011508Y013393D01*
X011546Y013314D01*
X011581Y013232D01*
X011612Y013150D01*
X011639Y013066D01*
X011663Y012981D01*
X011682Y012895D01*
X011698Y012808D01*
X011710Y012720D01*
X011718Y012632D01*
X011722Y012544D01*
X011722Y012456D01*
X011718Y012368D01*
X011710Y012280D01*
X011698Y012192D01*
X011682Y012105D01*
X011663Y012019D01*
X011639Y011934D01*
X011612Y011850D01*
X011581Y011768D01*
X011546Y011686D01*
X011508Y011607D01*
X011466Y011529D01*
X011421Y011453D01*
X011373Y011379D01*
X011321Y011308D01*
X011266Y011239D01*
X011208Y011172D01*
X011147Y011108D01*
X011083Y011047D01*
X011017Y010989D01*
X010948Y010934D01*
X010877Y010882D01*
X010803Y010833D01*
X010728Y010787D01*
X010650Y010745D01*
X010571Y010707D01*
X010490Y010672D01*
X010407Y010641D01*
X010323Y010613D01*
X010238Y010589D01*
X010152Y010569D01*
X010151Y010576D01*
X010236Y010596D01*
X010321Y010620D01*
X010405Y010647D01*
X010487Y010678D01*
X010568Y010713D01*
X010647Y010752D01*
X010724Y010794D01*
X010800Y010839D01*
X010873Y010887D01*
X010944Y010939D01*
X011013Y010994D01*
X011079Y011052D01*
X011142Y011113D01*
X011203Y011177D01*
X011261Y011243D01*
X011315Y011312D01*
X011367Y011383D01*
X011415Y011457D01*
X011460Y011532D01*
X011502Y011610D01*
X011540Y011689D01*
X011574Y011770D01*
X011605Y011853D01*
X011632Y011936D01*
X011656Y012021D01*
X011675Y012107D01*
X011691Y012193D01*
X011703Y012281D01*
X011711Y012368D01*
X011715Y012456D01*
X011715Y012544D01*
X011711Y012632D01*
X011703Y012719D01*
X011691Y012807D01*
X011675Y012893D01*
X011656Y012979D01*
X011632Y013064D01*
X011605Y013147D01*
X011574Y013230D01*
X011540Y013311D01*
X011502Y013390D01*
X011460Y013468D01*
X011415Y013543D01*
X011367Y013617D01*
X011315Y013688D01*
X011261Y013757D01*
X011203Y013823D01*
X011142Y013887D01*
X011079Y013948D01*
X011013Y014006D01*
X010944Y014061D01*
X010873Y014113D01*
X010800Y014161D01*
X010724Y014206D01*
X010647Y014248D01*
X010568Y014287D01*
X010487Y014322D01*
X010405Y014353D01*
X010321Y014380D01*
X010236Y014404D01*
X010151Y014424D01*
X010149Y014417D01*
X010235Y014397D01*
X010319Y014373D01*
X010402Y014346D01*
X010484Y014315D01*
X010565Y014280D01*
X010644Y014242D01*
X010721Y014200D01*
X010796Y014155D01*
X010869Y014107D01*
X010940Y014055D01*
X011008Y014000D01*
X011074Y013942D01*
X011137Y013882D01*
X011198Y013818D01*
X011255Y013752D01*
X011310Y013684D01*
X011361Y013613D01*
X011409Y013539D01*
X011454Y013464D01*
X011496Y013387D01*
X011534Y013308D01*
X011568Y013227D01*
X011599Y013145D01*
X011626Y013062D01*
X011649Y012977D01*
X011668Y012892D01*
X011684Y012806D01*
X011696Y012719D01*
X011704Y012631D01*
X011708Y012544D01*
X011708Y012456D01*
X011704Y012369D01*
X011696Y012281D01*
X011684Y012194D01*
X011668Y012108D01*
X011649Y012023D01*
X011626Y011938D01*
X011599Y011855D01*
X011568Y011773D01*
X011534Y011692D01*
X011496Y011613D01*
X011454Y011536D01*
X011409Y011461D01*
X011361Y011387D01*
X011310Y011316D01*
X011255Y011248D01*
X011198Y011182D01*
X011137Y011118D01*
X011074Y011058D01*
X011008Y011000D01*
X010940Y010945D01*
X010869Y010893D01*
X010796Y010845D01*
X010721Y010800D01*
X010644Y010758D01*
X010565Y010720D01*
X010484Y010685D01*
X010402Y010654D01*
X010319Y010627D01*
X010235Y010603D01*
X010149Y010583D01*
X010148Y010590D01*
X010233Y010610D01*
X010317Y010633D01*
X010400Y010660D01*
X010482Y010691D01*
X010562Y010726D01*
X010641Y010764D01*
X010717Y010806D01*
X010792Y010851D01*
X010865Y010899D01*
X010935Y010950D01*
X011004Y011005D01*
X011069Y011063D01*
X011132Y011123D01*
X011193Y011186D01*
X011250Y011252D01*
X011304Y011321D01*
X011355Y011391D01*
X011403Y011464D01*
X011448Y011539D01*
X011489Y011616D01*
X011527Y011695D01*
X011561Y011775D01*
X011592Y011857D01*
X011619Y011940D01*
X011642Y012024D01*
X011662Y012110D01*
X011677Y012196D01*
X011689Y012282D01*
X011697Y012369D01*
X011701Y012456D01*
X011701Y012544D01*
X011697Y012631D01*
X011689Y012718D01*
X011677Y012804D01*
X011662Y012890D01*
X011642Y012976D01*
X011619Y013060D01*
X011592Y013143D01*
X011561Y013225D01*
X011527Y013305D01*
X011489Y013384D01*
X011448Y013461D01*
X011403Y013536D01*
X011355Y013609D01*
X011304Y013679D01*
X011250Y013748D01*
X011193Y013814D01*
X011132Y013877D01*
X011069Y013937D01*
X011004Y013995D01*
X010935Y014050D01*
X010865Y014101D01*
X010792Y014149D01*
X010717Y014194D01*
X010641Y014236D01*
X010562Y014274D01*
X010482Y014309D01*
X010400Y014340D01*
X010317Y014367D01*
X010233Y014390D01*
X010148Y014410D01*
X010146Y014403D01*
X010231Y014383D01*
X010315Y014360D01*
X010398Y014333D01*
X010479Y014302D01*
X010559Y014268D01*
X010637Y014230D01*
X010714Y014188D01*
X010788Y014143D01*
X010861Y014095D01*
X010931Y014044D01*
X010999Y013990D01*
X011065Y013932D01*
X011127Y013872D01*
X011187Y013809D01*
X011244Y013743D01*
X011299Y013675D01*
X011350Y013605D01*
X011397Y013532D01*
X011442Y013457D01*
X011483Y013381D01*
X011521Y013302D01*
X011555Y013222D01*
X011585Y013141D01*
X011612Y013058D01*
X011635Y012974D01*
X011655Y012889D01*
X011670Y012803D01*
X011682Y012717D01*
X011690Y012630D01*
X011694Y012544D01*
X011694Y012456D01*
X011690Y012370D01*
X011682Y012283D01*
X011670Y012197D01*
X011655Y012111D01*
X011635Y012026D01*
X011612Y011942D01*
X011585Y011859D01*
X011555Y011778D01*
X011521Y011698D01*
X011483Y011619D01*
X011442Y011543D01*
X011397Y011468D01*
X011350Y011395D01*
X011299Y011325D01*
X011244Y011257D01*
X011187Y011191D01*
X011127Y011128D01*
X011065Y011068D01*
X010999Y011010D01*
X010931Y010956D01*
X010861Y010905D01*
X010788Y010857D01*
X010714Y010812D01*
X010637Y010770D01*
X010559Y010732D01*
X010479Y010698D01*
X010398Y010667D01*
X010315Y010640D01*
X010231Y010617D01*
X010146Y010597D01*
X010145Y010604D01*
X010230Y010623D01*
X010313Y010647D01*
X010395Y010674D01*
X010477Y010704D01*
X010556Y010739D01*
X010634Y010777D01*
X010710Y010818D01*
X010785Y010863D01*
X010857Y010910D01*
X010927Y010962D01*
X010995Y011016D01*
X011060Y011073D01*
X011122Y011133D01*
X011182Y011196D01*
X011239Y011261D01*
X011293Y011329D01*
X011344Y011399D01*
X011392Y011472D01*
X011436Y011546D01*
X011477Y011623D01*
X011514Y011701D01*
X011548Y011781D01*
X011579Y011862D01*
X011606Y011944D01*
X011629Y012028D01*
X011648Y012112D01*
X011663Y012198D01*
X011675Y012284D01*
X011683Y012370D01*
X011687Y012457D01*
X011687Y012543D01*
X011683Y012630D01*
X011675Y012716D01*
X011663Y012802D01*
X011648Y012888D01*
X011629Y012972D01*
X011606Y013056D01*
X011579Y013138D01*
X011548Y013219D01*
X011514Y013299D01*
X011477Y013377D01*
X011436Y013454D01*
X011392Y013528D01*
X011344Y013601D01*
X011293Y013671D01*
X011239Y013739D01*
X011182Y013804D01*
X011122Y013867D01*
X011060Y013927D01*
X010995Y013984D01*
X010927Y014038D01*
X010857Y014090D01*
X010785Y014137D01*
X010710Y014182D01*
X010634Y014223D01*
X010556Y014261D01*
X010477Y014296D01*
X010395Y014326D01*
X010313Y014353D01*
X010230Y014377D01*
X010145Y014396D01*
X010144Y014389D01*
X010228Y014370D01*
X010311Y014347D01*
X010393Y014320D01*
X010474Y014289D01*
X010553Y014255D01*
X010631Y014217D01*
X010707Y014176D01*
X010781Y014132D01*
X010853Y014084D01*
X010923Y014033D01*
X010990Y013979D01*
X011055Y013922D01*
X011117Y013862D01*
X011177Y013799D01*
X011234Y013734D01*
X011287Y013667D01*
X011338Y013597D01*
X011386Y013525D01*
X011430Y013450D01*
X011471Y013374D01*
X011508Y013296D01*
X011542Y013217D01*
X011572Y013136D01*
X011599Y013054D01*
X011622Y012970D01*
X011641Y012886D01*
X011656Y012801D01*
X011668Y012716D01*
X011676Y012630D01*
X011680Y012543D01*
X011680Y012457D01*
X011676Y012370D01*
X011668Y012284D01*
X011656Y012199D01*
X011641Y012114D01*
X011622Y012030D01*
X011599Y011946D01*
X011572Y011864D01*
X011542Y011783D01*
X011508Y011704D01*
X011471Y011626D01*
X011430Y011550D01*
X011386Y011475D01*
X011338Y011403D01*
X011287Y011333D01*
X011234Y011266D01*
X011177Y011201D01*
X011117Y011138D01*
X011055Y011078D01*
X010990Y011021D01*
X010923Y010967D01*
X010853Y010916D01*
X010781Y010868D01*
X010707Y010824D01*
X010631Y010783D01*
X010553Y010745D01*
X010474Y010711D01*
X010393Y010680D01*
X010311Y010653D01*
X010228Y010630D01*
X010144Y010611D01*
X010142Y010617D01*
X010227Y010637D01*
X010312Y010661D01*
X010395Y010688D01*
X010477Y010720D01*
X010557Y010754D01*
X010635Y010793D01*
X010712Y010835D01*
X010787Y010881D01*
X010860Y010929D01*
X010930Y010981D01*
X010998Y011037D01*
X011063Y011095D01*
X011126Y011156D01*
X011185Y011220D01*
X011242Y011287D01*
X011296Y011356D01*
X011346Y011427D01*
X011393Y011501D01*
X011437Y011577D01*
X011477Y011655D01*
X011514Y011734D01*
X011547Y011815D01*
X011576Y011898D01*
X011602Y011981D01*
X011623Y012066D01*
X011641Y012152D01*
X011655Y012238D01*
X011665Y012325D01*
X011671Y012413D01*
X011673Y012500D01*
X011671Y012587D01*
X011665Y012675D01*
X011655Y012762D01*
X011641Y012848D01*
X011623Y012934D01*
X011602Y013019D01*
X011576Y013102D01*
X011547Y013185D01*
X011514Y013266D01*
X011477Y013345D01*
X011437Y013423D01*
X011393Y013499D01*
X011346Y013573D01*
X011296Y013644D01*
X011242Y013713D01*
X011185Y013780D01*
X011126Y013844D01*
X011063Y013905D01*
X010998Y013963D01*
X010930Y014019D01*
X010860Y014071D01*
X010787Y014119D01*
X010712Y014165D01*
X010635Y014207D01*
X010557Y014246D01*
X010477Y014280D01*
X010395Y014312D01*
X010312Y014339D01*
X010227Y014363D01*
X010142Y014383D01*
X010141Y014376D01*
X010226Y014356D01*
X010310Y014332D01*
X010393Y014305D01*
X010474Y014274D01*
X010554Y014239D01*
X010632Y014201D01*
X010709Y014159D01*
X010783Y014114D01*
X010856Y014065D01*
X010926Y014013D01*
X010993Y013958D01*
X011058Y013900D01*
X011121Y013839D01*
X011180Y013775D01*
X011237Y013709D01*
X011290Y013640D01*
X011340Y013569D01*
X011387Y013495D01*
X011431Y013420D01*
X011471Y013342D01*
X011507Y013263D01*
X011540Y013182D01*
X011570Y013100D01*
X011595Y013017D01*
X011617Y012932D01*
X011634Y012847D01*
X011648Y012761D01*
X011658Y012674D01*
X011664Y012587D01*
X011666Y012500D01*
X011664Y012413D01*
X011658Y012326D01*
X011648Y012239D01*
X011634Y012153D01*
X011617Y012068D01*
X011595Y011983D01*
X011570Y011900D01*
X011540Y011818D01*
X011507Y011737D01*
X011471Y011658D01*
X011431Y011580D01*
X011387Y011505D01*
X011340Y011431D01*
X011290Y011360D01*
X011237Y011291D01*
X011180Y011225D01*
X011121Y011161D01*
X011058Y011100D01*
X010993Y011042D01*
X010926Y010987D01*
X010856Y010935D01*
X010783Y010886D01*
X010709Y010841D01*
X010632Y010799D01*
X010554Y010761D01*
X010474Y010726D01*
X010393Y010695D01*
X010310Y010668D01*
X010226Y010644D01*
X010141Y010624D01*
X009346Y014444D02*
X009360Y014373D01*
X009360Y014374D02*
X009275Y014354D01*
X009191Y014331D01*
X009108Y014303D01*
X009027Y014272D01*
X008947Y014237D01*
X008869Y014199D01*
X008792Y014157D01*
X008718Y014112D01*
X008646Y014063D01*
X008576Y014011D01*
X008508Y013956D01*
X008443Y013898D01*
X008381Y013837D01*
X008321Y013774D01*
X008265Y013708D01*
X008212Y013639D01*
X008161Y013568D01*
X008114Y013494D01*
X008071Y013419D01*
X008031Y013341D01*
X007994Y013262D01*
X007961Y013182D01*
X007932Y013100D01*
X007907Y013016D01*
X007885Y012932D01*
X007868Y012847D01*
X007854Y012761D01*
X007844Y012674D01*
X007838Y012587D01*
X007836Y012500D01*
X007838Y012413D01*
X007844Y012326D01*
X007854Y012239D01*
X007868Y012153D01*
X007885Y012068D01*
X007907Y011984D01*
X007932Y011900D01*
X007961Y011818D01*
X007994Y011738D01*
X008031Y011659D01*
X008071Y011581D01*
X008114Y011506D01*
X008161Y011432D01*
X008212Y011361D01*
X008265Y011292D01*
X008321Y011226D01*
X008381Y011163D01*
X008443Y011102D01*
X008508Y011044D01*
X008576Y010989D01*
X008646Y010937D01*
X008718Y010888D01*
X008792Y010843D01*
X008869Y010801D01*
X008947Y010763D01*
X009027Y010728D01*
X009108Y010697D01*
X009191Y010669D01*
X009275Y010646D01*
X009360Y010626D01*
X009346Y010556D01*
X009345Y010556D01*
X009260Y010575D01*
X009176Y010599D01*
X009092Y010626D01*
X009011Y010657D01*
X008930Y010691D01*
X008851Y010729D01*
X008774Y010770D01*
X008699Y010815D01*
X008626Y010863D01*
X008555Y010914D01*
X008486Y010968D01*
X008420Y011025D01*
X008356Y011085D01*
X008295Y011148D01*
X008237Y011213D01*
X008182Y011281D01*
X008130Y011351D01*
X008081Y011424D01*
X008035Y011498D01*
X007993Y011575D01*
X007954Y011653D01*
X007918Y011733D01*
X007886Y011815D01*
X007858Y011897D01*
X007833Y011981D01*
X007812Y012066D01*
X007795Y012152D01*
X007781Y012238D01*
X007772Y012325D01*
X007766Y012413D01*
X007764Y012500D01*
X007766Y012587D01*
X007772Y012675D01*
X007781Y012762D01*
X007795Y012848D01*
X007812Y012934D01*
X007833Y013019D01*
X007858Y013103D01*
X007886Y013185D01*
X007918Y013267D01*
X007954Y013347D01*
X007993Y013425D01*
X008035Y013502D01*
X008081Y013576D01*
X008130Y013649D01*
X008182Y013719D01*
X008237Y013787D01*
X008295Y013852D01*
X008356Y013915D01*
X008420Y013975D01*
X008486Y014032D01*
X008555Y014086D01*
X008626Y014137D01*
X008699Y014185D01*
X008774Y014230D01*
X008851Y014271D01*
X008930Y014309D01*
X009011Y014343D01*
X009092Y014374D01*
X009176Y014401D01*
X009260Y014425D01*
X009345Y014444D01*
X009346Y014437D01*
X009260Y014417D01*
X009175Y014394D01*
X009091Y014366D01*
X009008Y014335D01*
X008926Y014300D01*
X008847Y014261D01*
X008769Y014219D01*
X008693Y014173D01*
X008619Y014124D01*
X008548Y014072D01*
X008478Y014016D01*
X008412Y013958D01*
X008348Y013897D01*
X008287Y013832D01*
X008229Y013766D01*
X008174Y013696D01*
X008122Y013625D01*
X008073Y013551D01*
X008028Y013474D01*
X007986Y013396D01*
X007947Y013317D01*
X007913Y013235D01*
X007882Y013152D01*
X007854Y013068D01*
X007831Y012982D01*
X007811Y012896D01*
X007795Y012809D01*
X007783Y012721D01*
X007775Y012633D01*
X007771Y012544D01*
X007771Y012456D01*
X007775Y012367D01*
X007783Y012279D01*
X007795Y012191D01*
X007811Y012104D01*
X007831Y012018D01*
X007854Y011932D01*
X007882Y011848D01*
X007913Y011765D01*
X007947Y011683D01*
X007986Y011604D01*
X008028Y011526D01*
X008073Y011449D01*
X008122Y011375D01*
X008174Y011304D01*
X008229Y011234D01*
X008287Y011168D01*
X008348Y011103D01*
X008412Y011042D01*
X008478Y010984D01*
X008548Y010928D01*
X008619Y010876D01*
X008693Y010827D01*
X008769Y010781D01*
X008847Y010739D01*
X008926Y010700D01*
X009008Y010665D01*
X009091Y010634D01*
X009175Y010606D01*
X009260Y010583D01*
X009346Y010563D01*
X009348Y010569D01*
X009262Y010589D01*
X009177Y010613D01*
X009093Y010641D01*
X009010Y010672D01*
X008929Y010707D01*
X008850Y010745D01*
X008772Y010787D01*
X008697Y010833D01*
X008623Y010882D01*
X008552Y010934D01*
X008483Y010989D01*
X008417Y011047D01*
X008353Y011108D01*
X008292Y011172D01*
X008234Y011239D01*
X008179Y011308D01*
X008127Y011379D01*
X008079Y011453D01*
X008034Y011529D01*
X007992Y011607D01*
X007954Y011686D01*
X007919Y011768D01*
X007888Y011850D01*
X007861Y011934D01*
X007837Y012019D01*
X007818Y012105D01*
X007802Y012192D01*
X007790Y012280D01*
X007782Y012368D01*
X007778Y012456D01*
X007778Y012544D01*
X007782Y012632D01*
X007790Y012720D01*
X007802Y012808D01*
X007818Y012895D01*
X007837Y012981D01*
X007861Y013066D01*
X007888Y013150D01*
X007919Y013232D01*
X007954Y013314D01*
X007992Y013393D01*
X008034Y013471D01*
X008079Y013547D01*
X008127Y013621D01*
X008179Y013692D01*
X008234Y013761D01*
X008292Y013828D01*
X008353Y013892D01*
X008417Y013953D01*
X008483Y014011D01*
X008552Y014066D01*
X008623Y014118D01*
X008697Y014167D01*
X008772Y014213D01*
X008850Y014255D01*
X008929Y014293D01*
X009010Y014328D01*
X009093Y014359D01*
X009177Y014387D01*
X009262Y014411D01*
X009348Y014431D01*
X009349Y014424D01*
X009264Y014404D01*
X009179Y014380D01*
X009095Y014353D01*
X009013Y014322D01*
X008932Y014287D01*
X008853Y014248D01*
X008776Y014206D01*
X008700Y014161D01*
X008627Y014113D01*
X008556Y014061D01*
X008487Y014006D01*
X008421Y013948D01*
X008358Y013887D01*
X008297Y013823D01*
X008239Y013757D01*
X008185Y013688D01*
X008133Y013617D01*
X008085Y013543D01*
X008040Y013468D01*
X007998Y013390D01*
X007960Y013311D01*
X007926Y013230D01*
X007895Y013147D01*
X007868Y013064D01*
X007844Y012979D01*
X007825Y012893D01*
X007809Y012807D01*
X007797Y012719D01*
X007789Y012632D01*
X007785Y012544D01*
X007785Y012456D01*
X007789Y012368D01*
X007797Y012281D01*
X007809Y012193D01*
X007825Y012107D01*
X007844Y012021D01*
X007868Y011936D01*
X007895Y011853D01*
X007926Y011770D01*
X007960Y011689D01*
X007998Y011610D01*
X008040Y011532D01*
X008085Y011457D01*
X008133Y011383D01*
X008185Y011312D01*
X008239Y011243D01*
X008297Y011177D01*
X008358Y011113D01*
X008421Y011052D01*
X008487Y010994D01*
X008556Y010939D01*
X008627Y010887D01*
X008700Y010839D01*
X008776Y010794D01*
X008853Y010752D01*
X008932Y010713D01*
X009013Y010678D01*
X009095Y010647D01*
X009179Y010620D01*
X009264Y010596D01*
X009349Y010576D01*
X009351Y010583D01*
X009265Y010603D01*
X009181Y010627D01*
X009098Y010654D01*
X009016Y010685D01*
X008935Y010720D01*
X008856Y010758D01*
X008779Y010800D01*
X008704Y010845D01*
X008631Y010893D01*
X008560Y010945D01*
X008492Y011000D01*
X008426Y011058D01*
X008363Y011118D01*
X008302Y011182D01*
X008245Y011248D01*
X008190Y011316D01*
X008139Y011387D01*
X008091Y011461D01*
X008046Y011536D01*
X008004Y011613D01*
X007966Y011692D01*
X007932Y011773D01*
X007901Y011855D01*
X007874Y011938D01*
X007851Y012023D01*
X007832Y012108D01*
X007816Y012194D01*
X007804Y012281D01*
X007796Y012369D01*
X007792Y012456D01*
X007792Y012544D01*
X007796Y012631D01*
X007804Y012719D01*
X007816Y012806D01*
X007832Y012892D01*
X007851Y012977D01*
X007874Y013062D01*
X007901Y013145D01*
X007932Y013227D01*
X007966Y013308D01*
X008004Y013387D01*
X008046Y013464D01*
X008091Y013539D01*
X008139Y013613D01*
X008190Y013684D01*
X008245Y013752D01*
X008302Y013818D01*
X008363Y013882D01*
X008426Y013942D01*
X008492Y014000D01*
X008560Y014055D01*
X008631Y014107D01*
X008704Y014155D01*
X008779Y014200D01*
X008856Y014242D01*
X008935Y014280D01*
X009016Y014315D01*
X009098Y014346D01*
X009181Y014373D01*
X009265Y014397D01*
X009351Y014417D01*
X009352Y014410D01*
X009267Y014390D01*
X009183Y014367D01*
X009100Y014340D01*
X009018Y014309D01*
X008938Y014274D01*
X008859Y014236D01*
X008783Y014194D01*
X008708Y014149D01*
X008635Y014101D01*
X008565Y014050D01*
X008496Y013995D01*
X008431Y013937D01*
X008368Y013877D01*
X008307Y013814D01*
X008250Y013748D01*
X008196Y013679D01*
X008145Y013609D01*
X008097Y013536D01*
X008052Y013461D01*
X008011Y013384D01*
X007973Y013305D01*
X007939Y013225D01*
X007908Y013143D01*
X007881Y013060D01*
X007858Y012976D01*
X007838Y012890D01*
X007823Y012804D01*
X007811Y012718D01*
X007803Y012631D01*
X007799Y012544D01*
X007799Y012456D01*
X007803Y012369D01*
X007811Y012282D01*
X007823Y012196D01*
X007838Y012110D01*
X007858Y012024D01*
X007881Y011940D01*
X007908Y011857D01*
X007939Y011775D01*
X007973Y011695D01*
X008011Y011616D01*
X008052Y011539D01*
X008097Y011464D01*
X008145Y011391D01*
X008196Y011321D01*
X008250Y011252D01*
X008307Y011186D01*
X008368Y011123D01*
X008431Y011063D01*
X008496Y011005D01*
X008565Y010950D01*
X008635Y010899D01*
X008708Y010851D01*
X008783Y010806D01*
X008859Y010764D01*
X008938Y010726D01*
X009018Y010691D01*
X009100Y010660D01*
X009183Y010633D01*
X009267Y010610D01*
X009352Y010590D01*
X009354Y010597D01*
X009269Y010617D01*
X009185Y010640D01*
X009102Y010667D01*
X009021Y010698D01*
X008941Y010732D01*
X008863Y010770D01*
X008786Y010812D01*
X008712Y010857D01*
X008639Y010905D01*
X008569Y010956D01*
X008501Y011010D01*
X008435Y011068D01*
X008373Y011128D01*
X008313Y011191D01*
X008256Y011257D01*
X008201Y011325D01*
X008150Y011395D01*
X008103Y011468D01*
X008058Y011543D01*
X008017Y011619D01*
X007979Y011698D01*
X007945Y011778D01*
X007915Y011859D01*
X007888Y011942D01*
X007865Y012026D01*
X007845Y012111D01*
X007830Y012197D01*
X007818Y012283D01*
X007810Y012370D01*
X007806Y012456D01*
X007806Y012544D01*
X007810Y012630D01*
X007818Y012717D01*
X007830Y012803D01*
X007845Y012889D01*
X007865Y012974D01*
X007888Y013058D01*
X007915Y013141D01*
X007945Y013222D01*
X007979Y013302D01*
X008017Y013381D01*
X008058Y013457D01*
X008103Y013532D01*
X008150Y013605D01*
X008201Y013675D01*
X008256Y013743D01*
X008313Y013809D01*
X008373Y013872D01*
X008435Y013932D01*
X008501Y013990D01*
X008569Y014044D01*
X008639Y014095D01*
X008712Y014143D01*
X008786Y014188D01*
X008863Y014230D01*
X008941Y014268D01*
X009021Y014302D01*
X009102Y014333D01*
X009185Y014360D01*
X009269Y014383D01*
X009354Y014403D01*
X009355Y014396D01*
X009270Y014377D01*
X009187Y014353D01*
X009105Y014326D01*
X009023Y014296D01*
X008944Y014261D01*
X008866Y014223D01*
X008790Y014182D01*
X008715Y014137D01*
X008643Y014090D01*
X008573Y014038D01*
X008505Y013984D01*
X008440Y013927D01*
X008378Y013867D01*
X008318Y013804D01*
X008261Y013739D01*
X008207Y013671D01*
X008156Y013601D01*
X008108Y013528D01*
X008064Y013454D01*
X008023Y013377D01*
X007986Y013299D01*
X007952Y013219D01*
X007921Y013138D01*
X007894Y013056D01*
X007871Y012972D01*
X007852Y012888D01*
X007837Y012802D01*
X007825Y012716D01*
X007817Y012630D01*
X007813Y012543D01*
X007813Y012457D01*
X007817Y012370D01*
X007825Y012284D01*
X007837Y012198D01*
X007852Y012112D01*
X007871Y012028D01*
X007894Y011944D01*
X007921Y011862D01*
X007952Y011781D01*
X007986Y011701D01*
X008023Y011623D01*
X008064Y011546D01*
X008108Y011472D01*
X008156Y011399D01*
X008207Y011329D01*
X008261Y011261D01*
X008318Y011196D01*
X008378Y011133D01*
X008440Y011073D01*
X008505Y011016D01*
X008573Y010962D01*
X008643Y010910D01*
X008715Y010863D01*
X008790Y010818D01*
X008866Y010777D01*
X008944Y010739D01*
X009023Y010704D01*
X009105Y010674D01*
X009187Y010647D01*
X009270Y010623D01*
X009355Y010604D01*
X009356Y010611D01*
X009272Y010630D01*
X009189Y010653D01*
X009107Y010680D01*
X009026Y010711D01*
X008947Y010745D01*
X008869Y010783D01*
X008793Y010824D01*
X008719Y010868D01*
X008647Y010916D01*
X008577Y010967D01*
X008510Y011021D01*
X008445Y011078D01*
X008383Y011138D01*
X008323Y011201D01*
X008266Y011266D01*
X008213Y011333D01*
X008162Y011403D01*
X008114Y011475D01*
X008070Y011550D01*
X008029Y011626D01*
X007992Y011704D01*
X007958Y011783D01*
X007928Y011864D01*
X007901Y011946D01*
X007878Y012030D01*
X007859Y012114D01*
X007844Y012199D01*
X007832Y012284D01*
X007824Y012370D01*
X007820Y012457D01*
X007820Y012543D01*
X007824Y012630D01*
X007832Y012716D01*
X007844Y012801D01*
X007859Y012886D01*
X007878Y012970D01*
X007901Y013054D01*
X007928Y013136D01*
X007958Y013217D01*
X007992Y013296D01*
X008029Y013374D01*
X008070Y013450D01*
X008114Y013525D01*
X008162Y013597D01*
X008213Y013667D01*
X008266Y013734D01*
X008323Y013799D01*
X008383Y013862D01*
X008445Y013922D01*
X008510Y013979D01*
X008577Y014033D01*
X008647Y014084D01*
X008719Y014132D01*
X008793Y014176D01*
X008869Y014217D01*
X008947Y014255D01*
X009026Y014289D01*
X009107Y014320D01*
X009189Y014347D01*
X009272Y014370D01*
X009356Y014389D01*
X009358Y014383D01*
X009273Y014363D01*
X009188Y014339D01*
X009105Y014312D01*
X009023Y014280D01*
X008943Y014246D01*
X008865Y014207D01*
X008788Y014165D01*
X008713Y014119D01*
X008640Y014071D01*
X008570Y014019D01*
X008502Y013963D01*
X008437Y013905D01*
X008374Y013844D01*
X008315Y013780D01*
X008258Y013713D01*
X008204Y013644D01*
X008154Y013573D01*
X008107Y013499D01*
X008063Y013423D01*
X008023Y013345D01*
X007986Y013266D01*
X007953Y013185D01*
X007924Y013102D01*
X007898Y013019D01*
X007877Y012934D01*
X007859Y012848D01*
X007845Y012762D01*
X007835Y012675D01*
X007829Y012587D01*
X007827Y012500D01*
X007829Y012413D01*
X007835Y012325D01*
X007845Y012238D01*
X007859Y012152D01*
X007877Y012066D01*
X007898Y011981D01*
X007924Y011898D01*
X007953Y011815D01*
X007986Y011734D01*
X008023Y011655D01*
X008063Y011577D01*
X008107Y011501D01*
X008154Y011427D01*
X008204Y011356D01*
X008258Y011287D01*
X008315Y011220D01*
X008374Y011156D01*
X008437Y011095D01*
X008502Y011037D01*
X008570Y010981D01*
X008640Y010929D01*
X008713Y010881D01*
X008788Y010835D01*
X008865Y010793D01*
X008943Y010754D01*
X009023Y010720D01*
X009105Y010688D01*
X009188Y010661D01*
X009273Y010637D01*
X009358Y010617D01*
X009359Y010624D01*
X009274Y010644D01*
X009190Y010668D01*
X009107Y010695D01*
X009026Y010726D01*
X008946Y010761D01*
X008868Y010799D01*
X008791Y010841D01*
X008717Y010886D01*
X008644Y010935D01*
X008574Y010987D01*
X008507Y011042D01*
X008442Y011100D01*
X008379Y011161D01*
X008320Y011225D01*
X008263Y011291D01*
X008210Y011360D01*
X008160Y011431D01*
X008113Y011505D01*
X008069Y011580D01*
X008029Y011658D01*
X007993Y011737D01*
X007960Y011818D01*
X007930Y011900D01*
X007905Y011983D01*
X007883Y012068D01*
X007866Y012153D01*
X007852Y012239D01*
X007842Y012326D01*
X007836Y012413D01*
X007834Y012500D01*
X007836Y012587D01*
X007842Y012674D01*
X007852Y012761D01*
X007866Y012847D01*
X007883Y012932D01*
X007905Y013017D01*
X007930Y013100D01*
X007960Y013182D01*
X007993Y013263D01*
X008029Y013342D01*
X008069Y013420D01*
X008113Y013495D01*
X008160Y013569D01*
X008210Y013640D01*
X008263Y013709D01*
X008320Y013775D01*
X008379Y013839D01*
X008442Y013900D01*
X008507Y013958D01*
X008574Y014013D01*
X008644Y014065D01*
X008717Y014114D01*
X008791Y014159D01*
X008868Y014201D01*
X008946Y014239D01*
X009026Y014274D01*
X009107Y014305D01*
X009190Y014332D01*
X009274Y014356D01*
X009359Y014376D01*
D25*
X014100Y013700D02*
X014100Y012900D01*
X011600Y009700D02*
X011600Y008900D01*
D26*
X033200Y007150D03*
D27*
X013760Y015641D02*
X012500Y016940D01*
X012799Y016755D02*
X012799Y016731D01*
X013524Y016727D01*
X013524Y016751D01*
X012799Y016755D01*
X012862Y016735D02*
X012874Y016786D01*
X012898Y016818D01*
X012929Y016841D01*
X012969Y016857D01*
X013016Y016873D01*
X013051Y016877D01*
X013083Y016881D01*
X013106Y016881D01*
X013106Y016853D01*
X013283Y016853D01*
X013283Y016912D01*
X013110Y016912D01*
X013110Y016865D01*
X012965Y016885D02*
X012933Y016885D01*
X012933Y016881D02*
X012933Y016759D01*
X012965Y016759D01*
X012965Y016885D01*
X012862Y016735D02*
X012941Y015818D01*
X012992Y015818D01*
X012992Y015731D01*
X013020Y015719D02*
X013020Y015818D01*
X012992Y015818D01*
X013020Y015818D02*
X013291Y015818D01*
X013287Y015822D02*
X013303Y015786D01*
X013323Y015763D01*
X013350Y015747D01*
X013386Y015743D01*
X013425Y015751D01*
X013453Y015770D01*
X013472Y015802D01*
X013476Y015837D01*
X013472Y015873D01*
X013457Y015900D01*
X013433Y015916D01*
X013425Y015928D02*
X013390Y015932D01*
X013350Y015928D01*
X013311Y015904D01*
X013299Y015881D01*
X013287Y015853D01*
X013287Y015822D01*
X013358Y015833D02*
X013358Y015845D01*
X013366Y015857D01*
X013378Y015861D01*
X013382Y015841D01*
X013386Y015861D02*
X013398Y015857D01*
X013406Y015845D01*
X013406Y015830D01*
X013398Y015818D01*
X013386Y015814D01*
X013374Y015814D01*
X013362Y015822D01*
X013358Y015833D01*
X013425Y015928D02*
X013480Y016558D01*
X013567Y016558D01*
X013567Y016672D01*
X013492Y016672D01*
X013453Y016672D01*
X013453Y016558D01*
X013480Y016558D01*
X013492Y016672D02*
X013492Y016743D01*
X013476Y016786D01*
X013449Y016822D01*
X013421Y016845D01*
X013386Y016861D01*
X013335Y016873D01*
X013287Y016881D01*
X013492Y016790D02*
X013500Y016806D01*
X013516Y016818D01*
X013535Y016818D01*
X013547Y016814D01*
X013559Y016802D01*
X013563Y016782D01*
X013559Y016767D01*
X013551Y016759D01*
X013531Y016751D01*
X013524Y016751D01*
X013508Y016751D01*
X013504Y016767D01*
X013528Y016782D01*
X013799Y016940D02*
X012500Y015601D01*
X012961Y015719D02*
X013020Y015719D01*
X012961Y015719D02*
X012961Y015814D01*
X013106Y016452D02*
X013327Y016452D01*
X013327Y016522D01*
X013106Y016522D01*
X013106Y016487D01*
X013307Y016487D01*
X013106Y016487D02*
X013106Y016452D01*
D28*
X013185Y015192D03*
M02*
