G75*
%MOIN*%
%OFA0B0*%
%FSLAX24Y24*%
%IPPOS*%
%LPD*%
%AMOC8*
5,1,8,0,0,1.08239X$1,22.5*
%
%ADD10C,0.1340*%
%ADD11R,0.0730X0.0730*%
%ADD12C,0.0730*%
%ADD13C,0.2620*%
%ADD14C,0.0680*%
%ADD15OC8,0.0680*%
%ADD16R,0.0680X0.0680*%
%ADD17C,0.0820*%
%ADD18OC8,0.0820*%
%ADD19C,0.0437*%
%ADD20C,0.0480*%
%ADD21C,0.0476*%
%ADD22C,0.0340*%
%ADD23C,0.0555*%
%ADD24C,0.0580*%
D10*
X003200Y008900D03*
X004450Y023200D03*
D11*
X010200Y028150D03*
X012200Y027150D03*
X026200Y023200D03*
X007489Y006400D03*
X010200Y002150D03*
X012200Y002150D03*
D12*
X011200Y002150D03*
X011200Y003150D03*
X010200Y003150D03*
X012200Y003150D03*
X012200Y004150D03*
X013200Y004150D03*
X013200Y003150D03*
X014200Y003150D03*
X014200Y004150D03*
X015200Y004150D03*
X015200Y003150D03*
X016200Y003150D03*
X016200Y004150D03*
X017200Y004150D03*
X018200Y004150D03*
X018200Y003150D03*
X017200Y003150D03*
X017200Y002150D03*
X018200Y002150D03*
X019200Y002150D03*
X020200Y002150D03*
X021200Y002150D03*
X022200Y002150D03*
X023200Y002150D03*
X024200Y002150D03*
X025200Y002150D03*
X026200Y002150D03*
X027200Y002150D03*
X028200Y002150D03*
X028200Y003150D03*
X028200Y004150D03*
X027200Y004150D03*
X027200Y003150D03*
X026200Y003150D03*
X026200Y004150D03*
X025200Y004150D03*
X025200Y003150D03*
X024200Y003150D03*
X024200Y004150D03*
X023200Y004150D03*
X023200Y003150D03*
X022200Y003150D03*
X022200Y004150D03*
X021200Y004150D03*
X021200Y003150D03*
X020200Y003150D03*
X020200Y004150D03*
X019200Y004150D03*
X019200Y003150D03*
X016200Y002150D03*
X015200Y002150D03*
X014200Y002150D03*
X013200Y002150D03*
X007489Y007400D03*
X007489Y008400D03*
X026200Y008200D03*
X026200Y009200D03*
X026200Y010200D03*
X026200Y011200D03*
X026200Y012200D03*
X027200Y012200D03*
X027200Y011200D03*
X027200Y010200D03*
X027200Y009200D03*
X027200Y008200D03*
X027200Y013200D03*
X027200Y014200D03*
X027200Y015200D03*
X027200Y016200D03*
X027200Y017200D03*
X026200Y017200D03*
X026200Y016200D03*
X026200Y015200D03*
X026200Y014200D03*
X026200Y013200D03*
X026200Y018200D03*
X026200Y019200D03*
X026200Y020200D03*
X026200Y021200D03*
X026200Y022200D03*
X027200Y022200D03*
X027200Y021200D03*
X027200Y020200D03*
X027200Y019200D03*
X027200Y018200D03*
X027200Y023200D03*
X027200Y027150D03*
X027200Y028150D03*
X026200Y028150D03*
X026200Y027150D03*
X025200Y027150D03*
X025200Y028150D03*
X024200Y028150D03*
X024200Y027150D03*
X023200Y027150D03*
X023200Y028150D03*
X022200Y028150D03*
X022200Y027150D03*
X021200Y027150D03*
X021200Y028150D03*
X020200Y028150D03*
X020200Y027150D03*
X019200Y027150D03*
X019200Y028150D03*
X018200Y028150D03*
X017200Y028150D03*
X017200Y027150D03*
X018200Y027150D03*
X016200Y027150D03*
X016200Y028150D03*
X015200Y028150D03*
X015200Y027150D03*
X014200Y027150D03*
X014200Y028150D03*
X013200Y028150D03*
X013200Y027150D03*
X012200Y028150D03*
X011200Y028150D03*
X011200Y029150D03*
X010200Y029150D03*
X012200Y029150D03*
X013200Y029150D03*
X014200Y029150D03*
X015200Y029150D03*
X016200Y029150D03*
X017200Y029150D03*
X018200Y029150D03*
X019200Y029150D03*
X020200Y029150D03*
X021200Y029150D03*
X022200Y029150D03*
X023200Y029150D03*
X024200Y029150D03*
X025200Y029150D03*
X026200Y029150D03*
X027200Y029150D03*
X028200Y029150D03*
X028200Y028150D03*
X028200Y027150D03*
D13*
X001700Y002650D03*
X001700Y028650D03*
X031700Y028650D03*
X031700Y002650D03*
D14*
X029650Y007200D03*
X029650Y008200D03*
X029650Y009200D03*
X029650Y010200D03*
X029650Y011200D03*
X029650Y012200D03*
X029650Y013200D03*
X029650Y014200D03*
X029650Y015200D03*
X029650Y016200D03*
X029650Y017200D03*
X029650Y018200D03*
X029650Y019200D03*
X029650Y020200D03*
X029650Y021200D03*
X029650Y022200D03*
X029650Y023200D03*
X031600Y023500D03*
X031600Y024500D03*
X031600Y025500D03*
X033100Y025500D03*
X033100Y024500D03*
X033100Y023500D03*
X033100Y022500D03*
X033100Y021500D03*
X031600Y021500D03*
X031600Y022500D03*
X033100Y017750D03*
X033100Y016750D03*
X033100Y015750D03*
X002200Y026650D03*
X001200Y026650D03*
D15*
X032100Y020150D03*
X032100Y019150D03*
X033100Y019150D03*
X033100Y020150D03*
X033250Y014150D03*
X033250Y013150D03*
X032250Y013150D03*
X032250Y014150D03*
X032200Y011650D03*
X032200Y010650D03*
X033200Y010650D03*
X033200Y011650D03*
D16*
X029650Y024200D03*
D17*
X008710Y029160D03*
X007710Y029160D03*
X006710Y029160D03*
X005710Y029160D03*
X004710Y029160D03*
D18*
X032200Y009150D03*
X032200Y008150D03*
X033200Y008150D03*
X033200Y009150D03*
X033200Y007150D03*
X033200Y006150D03*
X033200Y005150D03*
X032200Y005150D03*
X032200Y006150D03*
X032200Y007150D03*
D19*
X012050Y015550D03*
X011400Y013600D03*
X012050Y018150D03*
X005200Y008400D03*
X005100Y000950D03*
D20*
X011600Y011000D03*
D21*
X015530Y008060D03*
X017700Y008400D03*
X017670Y005820D03*
X011900Y022150D03*
X015400Y023750D03*
X017000Y023750D03*
X018700Y022350D03*
X026250Y025300D03*
X029600Y025950D03*
X029080Y030680D03*
D22*
X023150Y025050D03*
X022750Y024400D03*
X022400Y024000D03*
X022050Y023600D03*
X022200Y025300D03*
X020800Y025500D03*
X019650Y026650D03*
X018360Y025310D03*
X018050Y025000D03*
X017750Y024450D03*
X014020Y024950D03*
X011800Y024950D03*
X011800Y025350D03*
X011200Y025350D03*
X011200Y024950D03*
X010600Y024950D03*
X010600Y025350D03*
X009800Y025500D03*
X010100Y024350D03*
X010100Y023750D03*
X010450Y023450D03*
X011000Y023650D03*
X011300Y023450D03*
X012500Y022750D03*
X012550Y021800D03*
X013250Y021600D03*
X013700Y022500D03*
X011800Y020600D03*
X011800Y020150D03*
X012750Y019750D03*
X011200Y018950D03*
X015500Y014760D03*
X015900Y014450D03*
X015500Y014150D03*
X015900Y013800D03*
X017130Y013700D03*
X017500Y014250D03*
X018000Y013800D03*
X017720Y013250D03*
X018500Y012750D03*
X018700Y012430D03*
X019000Y012200D03*
X019800Y012350D03*
X021000Y012100D03*
X021780Y012150D03*
X023080Y012700D03*
X022400Y013600D03*
X023350Y014670D03*
X023610Y015170D03*
X023550Y015880D03*
X023880Y016340D03*
X023550Y016810D03*
X023900Y017200D03*
X023100Y017270D03*
X022500Y017550D03*
X021590Y017310D03*
X020670Y017010D03*
X020190Y017340D03*
X019800Y017350D03*
X019410Y017340D03*
X019020Y017350D03*
X018700Y016680D03*
X019890Y016750D03*
X020780Y015560D03*
X021170Y015450D03*
X021760Y015450D03*
X021970Y015950D03*
X021970Y016350D03*
X020900Y014730D03*
X020590Y014250D03*
X019800Y014200D03*
X019020Y014730D03*
X018630Y014960D03*
X018690Y015560D03*
X017490Y015750D03*
X017400Y016150D03*
X017150Y015050D03*
X016210Y016140D03*
X014100Y014050D03*
X015580Y011830D03*
X015660Y010660D03*
X015650Y010050D03*
X017450Y009650D03*
X018000Y009650D03*
X017750Y009050D03*
X018510Y007790D03*
X018700Y007250D03*
X018900Y006750D03*
X018380Y006050D03*
X020350Y008000D03*
X020100Y008400D03*
X019700Y010100D03*
X022300Y008800D03*
X023350Y008300D03*
X023600Y007550D03*
X023850Y006900D03*
X024900Y007800D03*
X025300Y007070D03*
X026670Y007470D03*
X025710Y008670D03*
X024800Y009000D03*
X024150Y009550D03*
X025700Y009750D03*
X026700Y012710D03*
X024630Y014000D03*
X024300Y014280D03*
X025020Y014700D03*
X025300Y015000D03*
X025600Y014800D03*
X025430Y016340D03*
X024630Y016600D03*
X025770Y017740D03*
X027850Y019150D03*
X028250Y019400D03*
X028850Y020700D03*
X025650Y024410D03*
X024550Y023600D03*
X024250Y024000D03*
X023850Y024400D03*
X023800Y022740D03*
X024070Y021660D03*
X023700Y021610D03*
X023050Y021900D03*
X023380Y021100D03*
X024000Y021000D03*
X023100Y020440D03*
X022540Y020800D03*
X021630Y020810D03*
X021410Y020420D03*
X020200Y020950D03*
X019200Y019200D03*
X019600Y018550D03*
X021000Y018600D03*
X023840Y019900D03*
X024250Y019900D03*
X017950Y018650D03*
X018800Y014200D03*
X016800Y012740D03*
X017140Y011890D03*
X015000Y008200D03*
X013950Y007350D03*
X014250Y007050D03*
X015000Y006750D03*
X012800Y006550D03*
X012800Y006950D03*
X012200Y006950D03*
X012200Y006550D03*
X011600Y006550D03*
X011600Y006950D03*
X010700Y006650D03*
X010100Y007550D03*
X009200Y008100D03*
X008700Y006650D03*
X008100Y005200D03*
X008400Y005000D03*
X008600Y004700D03*
X008500Y003250D03*
X008500Y002850D03*
X007900Y002850D03*
X007900Y003250D03*
X009100Y003250D03*
X009100Y002850D03*
X008300Y001350D03*
X007000Y004650D03*
X005600Y004650D03*
X012000Y005250D03*
X011700Y009450D03*
X020950Y006550D03*
X021500Y005850D03*
X021810Y006070D03*
X031010Y012440D03*
X030650Y014700D03*
X019700Y029650D03*
X017700Y030070D03*
X021720Y030140D03*
X011300Y026650D03*
X010703Y026647D03*
X008300Y025500D03*
X007500Y025350D03*
X007500Y024950D03*
X006900Y024950D03*
X006900Y025350D03*
X006300Y025350D03*
X006300Y024950D03*
X006500Y023650D03*
X007000Y023550D03*
X007650Y023550D03*
X008000Y023850D03*
X007950Y024350D03*
X008350Y028350D03*
X007120Y030230D03*
X004710Y030240D03*
X003650Y022230D03*
X003650Y018650D03*
D23*
X004140Y019060D03*
X002400Y019350D03*
X002400Y020100D03*
X006450Y018450D03*
X004350Y010800D03*
X014200Y009500D03*
X014900Y013250D03*
D24*
X016150Y021150D03*
M02*
