G75*
%MOIN*%
%OFA0B0*%
%FSLAX24Y24*%
%IPPOS*%
%LPD*%
%AMOC8*
5,1,8,0,0,1.08239X$1,22.5*
%
%ADD10C,0.0100*%
%ADD11C,0.0000*%
%ADD12C,0.0060*%
%ADD13C,0.0039*%
%ADD14R,0.0291X0.1157*%
%ADD15C,0.0030*%
D10*
X000150Y000150D02*
X034200Y000150D01*
X034200Y031150D01*
X000150Y031150D01*
X000150Y000150D01*
X005450Y010200D02*
X005433Y010168D01*
X005420Y010134D01*
X005410Y010100D01*
X005404Y010064D01*
X005402Y010028D01*
X005404Y009992D01*
X005409Y009956D01*
X005418Y009921D01*
X005431Y009888D01*
X005447Y009855D01*
X005466Y009825D01*
X005489Y009797D01*
X005514Y009771D01*
X005542Y009748D01*
X005573Y009728D01*
X005605Y009712D01*
X005638Y009699D01*
X005673Y009690D01*
X005709Y009684D01*
X005745Y009682D01*
X005781Y009684D01*
X005817Y009690D01*
X005852Y009699D01*
X005885Y009712D01*
X005917Y009728D01*
X005948Y009748D01*
X005976Y009771D01*
X006001Y009797D01*
X006024Y009825D01*
X006043Y009855D01*
X006059Y009888D01*
X006072Y009921D01*
X006081Y009956D01*
X006086Y009992D01*
X006088Y010028D01*
X006086Y010064D01*
X006080Y010100D01*
X006070Y010134D01*
X006057Y010168D01*
X006040Y010200D01*
X005224Y010030D02*
X005226Y010075D01*
X005232Y010120D01*
X005241Y010164D01*
X005255Y010208D01*
X005272Y010249D01*
X005293Y010290D01*
X005317Y010328D01*
X005344Y010364D01*
X005374Y010398D01*
X005407Y010429D01*
X005443Y010457D01*
X005480Y010482D01*
X005520Y010503D01*
X005562Y010521D01*
X005605Y010536D01*
X005649Y010546D01*
X005694Y010553D01*
X005739Y010556D01*
X005784Y010555D01*
X005829Y010550D01*
X005873Y010541D01*
X005917Y010529D01*
X005959Y010513D01*
X006000Y010493D01*
X006039Y010470D01*
X006075Y010443D01*
X006110Y010414D01*
X006141Y010381D01*
X006170Y010346D01*
X006196Y010309D01*
X006218Y010270D01*
X006237Y010229D01*
X006252Y010186D01*
X006264Y010142D01*
X006272Y010098D01*
X006276Y010053D01*
X006276Y010007D01*
X006272Y009962D01*
X006264Y009918D01*
X006252Y009874D01*
X006237Y009831D01*
X006218Y009790D01*
X006196Y009751D01*
X006170Y009714D01*
X006141Y009679D01*
X006110Y009646D01*
X006075Y009617D01*
X006039Y009590D01*
X006000Y009567D01*
X005959Y009547D01*
X005917Y009531D01*
X005873Y009519D01*
X005829Y009510D01*
X005784Y009505D01*
X005739Y009504D01*
X005694Y009507D01*
X005649Y009514D01*
X005605Y009524D01*
X005562Y009539D01*
X005520Y009557D01*
X005480Y009578D01*
X005443Y009603D01*
X005407Y009631D01*
X005374Y009662D01*
X005344Y009696D01*
X005317Y009732D01*
X005293Y009770D01*
X005272Y009811D01*
X005255Y009852D01*
X005241Y009896D01*
X005232Y009940D01*
X005226Y009985D01*
X005224Y010030D01*
D11*
X002570Y008900D02*
X002572Y008950D01*
X002578Y009000D01*
X002588Y009049D01*
X002602Y009097D01*
X002619Y009144D01*
X002640Y009189D01*
X002665Y009233D01*
X002693Y009274D01*
X002725Y009313D01*
X002759Y009350D01*
X002796Y009384D01*
X002836Y009414D01*
X002878Y009441D01*
X002922Y009465D01*
X002968Y009486D01*
X003015Y009502D01*
X003063Y009515D01*
X003113Y009524D01*
X003162Y009529D01*
X003213Y009530D01*
X003263Y009527D01*
X003312Y009520D01*
X003361Y009509D01*
X003409Y009494D01*
X003455Y009476D01*
X003500Y009454D01*
X003543Y009428D01*
X003584Y009399D01*
X003623Y009367D01*
X003659Y009332D01*
X003691Y009294D01*
X003721Y009254D01*
X003748Y009211D01*
X003771Y009167D01*
X003790Y009121D01*
X003806Y009073D01*
X003818Y009024D01*
X003826Y008975D01*
X003830Y008925D01*
X003830Y008875D01*
X003826Y008825D01*
X003818Y008776D01*
X003806Y008727D01*
X003790Y008679D01*
X003771Y008633D01*
X003748Y008589D01*
X003721Y008546D01*
X003691Y008506D01*
X003659Y008468D01*
X003623Y008433D01*
X003584Y008401D01*
X003543Y008372D01*
X003500Y008346D01*
X003455Y008324D01*
X003409Y008306D01*
X003361Y008291D01*
X003312Y008280D01*
X003263Y008273D01*
X003213Y008270D01*
X003162Y008271D01*
X003113Y008276D01*
X003063Y008285D01*
X003015Y008298D01*
X002968Y008314D01*
X002922Y008335D01*
X002878Y008359D01*
X002836Y008386D01*
X002796Y008416D01*
X002759Y008450D01*
X002725Y008487D01*
X002693Y008526D01*
X002665Y008567D01*
X002640Y008611D01*
X002619Y008656D01*
X002602Y008703D01*
X002588Y008751D01*
X002578Y008800D01*
X002572Y008850D01*
X002570Y008900D01*
X003820Y023200D02*
X003822Y023250D01*
X003828Y023300D01*
X003838Y023349D01*
X003852Y023397D01*
X003869Y023444D01*
X003890Y023489D01*
X003915Y023533D01*
X003943Y023574D01*
X003975Y023613D01*
X004009Y023650D01*
X004046Y023684D01*
X004086Y023714D01*
X004128Y023741D01*
X004172Y023765D01*
X004218Y023786D01*
X004265Y023802D01*
X004313Y023815D01*
X004363Y023824D01*
X004412Y023829D01*
X004463Y023830D01*
X004513Y023827D01*
X004562Y023820D01*
X004611Y023809D01*
X004659Y023794D01*
X004705Y023776D01*
X004750Y023754D01*
X004793Y023728D01*
X004834Y023699D01*
X004873Y023667D01*
X004909Y023632D01*
X004941Y023594D01*
X004971Y023554D01*
X004998Y023511D01*
X005021Y023467D01*
X005040Y023421D01*
X005056Y023373D01*
X005068Y023324D01*
X005076Y023275D01*
X005080Y023225D01*
X005080Y023175D01*
X005076Y023125D01*
X005068Y023076D01*
X005056Y023027D01*
X005040Y022979D01*
X005021Y022933D01*
X004998Y022889D01*
X004971Y022846D01*
X004941Y022806D01*
X004909Y022768D01*
X004873Y022733D01*
X004834Y022701D01*
X004793Y022672D01*
X004750Y022646D01*
X004705Y022624D01*
X004659Y022606D01*
X004611Y022591D01*
X004562Y022580D01*
X004513Y022573D01*
X004463Y022570D01*
X004412Y022571D01*
X004363Y022576D01*
X004313Y022585D01*
X004265Y022598D01*
X004218Y022614D01*
X004172Y022635D01*
X004128Y022659D01*
X004086Y022686D01*
X004046Y022716D01*
X004009Y022750D01*
X003975Y022787D01*
X003943Y022826D01*
X003915Y022867D01*
X003890Y022911D01*
X003869Y022956D01*
X003852Y023003D01*
X003838Y023051D01*
X003828Y023100D01*
X003822Y023150D01*
X003820Y023200D01*
D12*
X005410Y022236D02*
X005410Y022022D01*
X005517Y021915D01*
X005730Y021915D01*
X005730Y022236D01*
X005624Y022342D01*
X005517Y022342D01*
X005410Y022236D01*
X005730Y021915D02*
X005944Y022129D01*
X006051Y022342D01*
X005410Y021698D02*
X005410Y021271D01*
X005410Y021484D02*
X006051Y021484D01*
X005837Y021271D01*
X005944Y021053D02*
X005517Y021053D01*
X005410Y020947D01*
X005410Y020733D01*
X005517Y020626D01*
X005944Y021053D01*
X006051Y020947D01*
X006051Y020733D01*
X005944Y020626D01*
X005517Y020626D01*
X005410Y020409D02*
X005410Y019982D01*
X005837Y020409D01*
X005944Y020409D01*
X006051Y020302D01*
X006051Y020089D01*
X005944Y019982D01*
X005517Y019121D02*
X005410Y019121D01*
X005410Y019014D01*
X005517Y019014D01*
X005517Y019121D01*
X005410Y019121D02*
X005196Y018908D01*
X005517Y018690D02*
X005410Y018583D01*
X005410Y018370D01*
X005517Y018263D01*
X005730Y018476D02*
X005730Y018583D01*
X005624Y018690D01*
X005517Y018690D01*
X005730Y018583D02*
X005837Y018690D01*
X005944Y018690D01*
X006051Y018583D01*
X006051Y018370D01*
X005944Y018263D01*
X005837Y018045D02*
X006051Y017832D01*
X005837Y017618D01*
X005837Y017401D02*
X005303Y017401D01*
X005196Y017294D01*
X005196Y017187D01*
X005410Y017081D02*
X005410Y017401D01*
X005410Y017081D02*
X005517Y016974D01*
X005730Y016974D01*
X005837Y017081D01*
X005837Y017401D01*
X005730Y016756D02*
X005410Y016756D01*
X005730Y016756D02*
X005837Y016650D01*
X005837Y016329D01*
X005410Y016329D01*
X005410Y016113D02*
X005410Y015900D01*
X005410Y016006D02*
X005837Y016006D01*
X005837Y015900D01*
X005837Y015683D02*
X005837Y015576D01*
X005624Y015363D01*
X005837Y015363D02*
X005410Y015363D01*
X005624Y015145D02*
X005624Y014718D01*
X005730Y014718D02*
X005837Y014825D01*
X005837Y015038D01*
X005730Y015145D01*
X005624Y015145D01*
X005410Y015038D02*
X005410Y014825D01*
X005517Y014718D01*
X005730Y014718D01*
X005730Y014500D02*
X005410Y014500D01*
X005730Y014500D02*
X005837Y014394D01*
X005837Y014073D01*
X005410Y014073D01*
X005624Y013856D02*
X005624Y013429D01*
X005730Y013429D02*
X005837Y013536D01*
X005837Y013749D01*
X005730Y013856D01*
X005624Y013856D01*
X005410Y013749D02*
X005410Y013536D01*
X005517Y013429D01*
X005730Y013429D01*
X005837Y013106D02*
X005410Y013106D01*
X005410Y012999D02*
X005410Y013213D01*
X005837Y013106D02*
X005837Y012999D01*
X005837Y012782D02*
X005303Y012782D01*
X005196Y012675D01*
X005196Y012568D01*
X005410Y012461D02*
X005410Y012782D01*
X005410Y012461D02*
X005517Y012355D01*
X005730Y012355D01*
X005837Y012461D01*
X005837Y012782D01*
X006051Y013106D02*
X006157Y013106D01*
X007110Y013421D02*
X007217Y013314D01*
X007430Y013314D01*
X007537Y013421D01*
X007537Y013634D01*
X007430Y013741D01*
X007324Y013741D01*
X007324Y013314D01*
X007110Y013421D02*
X007110Y013634D01*
X007110Y013959D02*
X007537Y013959D01*
X007537Y014279D01*
X007430Y014386D01*
X007110Y014386D01*
X007217Y014603D02*
X007110Y014710D01*
X007110Y015030D01*
X007003Y015030D02*
X007537Y015030D01*
X007537Y014710D01*
X007430Y014603D01*
X007217Y014603D01*
X006896Y014817D02*
X006896Y014923D01*
X007003Y015030D01*
X007110Y015248D02*
X007110Y015461D01*
X007110Y015354D02*
X007537Y015354D01*
X007537Y015248D01*
X007751Y015354D02*
X007857Y015354D01*
X007537Y015677D02*
X007537Y015998D01*
X007430Y016104D01*
X007110Y016104D01*
X007217Y016322D02*
X007110Y016429D01*
X007110Y016642D01*
X007324Y016749D02*
X007324Y016322D01*
X007430Y016322D02*
X007537Y016429D01*
X007537Y016642D01*
X007430Y016749D01*
X007324Y016749D01*
X007324Y016966D02*
X007324Y017393D01*
X007430Y017393D01*
X007537Y017287D01*
X007537Y017073D01*
X007430Y016966D01*
X007217Y016966D01*
X007110Y017073D01*
X007110Y017287D01*
X007110Y017611D02*
X007537Y017611D01*
X007324Y017611D02*
X007537Y017825D01*
X007537Y017931D01*
X007537Y018148D02*
X007537Y018255D01*
X007110Y018255D01*
X007110Y018148D02*
X007110Y018362D01*
X007110Y018578D02*
X007537Y018578D01*
X007537Y018898D01*
X007430Y019005D01*
X007110Y019005D01*
X007217Y019222D02*
X007110Y019329D01*
X007110Y019649D01*
X007003Y019649D02*
X007537Y019649D01*
X007537Y019329D01*
X007430Y019222D01*
X007217Y019222D01*
X006896Y019436D02*
X006896Y019543D01*
X007003Y019649D01*
X007217Y019867D02*
X007110Y019974D01*
X007110Y020187D01*
X007217Y020294D01*
X007324Y020294D01*
X007430Y020187D01*
X007430Y020080D01*
X007430Y020187D02*
X007537Y020294D01*
X007644Y020294D01*
X007751Y020187D01*
X007751Y019974D01*
X007644Y019867D01*
X007217Y020511D02*
X007110Y020511D01*
X007110Y020618D01*
X007217Y020618D01*
X007217Y020511D01*
X007217Y020834D02*
X007110Y020941D01*
X007110Y021154D01*
X007217Y021261D01*
X007430Y021261D01*
X007537Y021154D01*
X007537Y020941D01*
X007430Y020834D01*
X007217Y020834D01*
X007324Y021478D02*
X007537Y021692D01*
X007537Y021799D01*
X007430Y022015D02*
X007217Y022015D01*
X007110Y022122D01*
X007110Y022442D01*
X007003Y022442D02*
X007537Y022442D01*
X007537Y022122D01*
X007430Y022015D01*
X006896Y022229D02*
X006896Y022336D01*
X007003Y022442D01*
X007110Y021478D02*
X007537Y021478D01*
X008710Y020144D02*
X008817Y020037D01*
X009244Y020037D01*
X009137Y019930D02*
X009137Y020144D01*
X009030Y019713D02*
X008710Y019713D01*
X009030Y019713D02*
X009137Y019606D01*
X009137Y019286D01*
X008710Y019286D01*
X008710Y019068D02*
X008710Y018748D01*
X008817Y018641D01*
X008924Y018748D01*
X008924Y019068D01*
X009030Y019068D02*
X008710Y019068D01*
X009030Y019068D02*
X009137Y018961D01*
X009137Y018748D01*
X009137Y018318D02*
X008710Y018318D01*
X008710Y018211D02*
X008710Y018425D01*
X008710Y017995D02*
X008710Y017782D01*
X008710Y017889D02*
X009351Y017889D01*
X009351Y017782D01*
X009137Y017458D02*
X009030Y017564D01*
X008817Y017564D01*
X008710Y017458D01*
X008710Y017137D01*
X008496Y017137D02*
X009137Y017137D01*
X009137Y017458D01*
X009030Y016920D02*
X008710Y016920D01*
X008710Y016706D02*
X009030Y016706D01*
X009137Y016813D01*
X009030Y016920D01*
X009030Y016706D02*
X009137Y016599D01*
X009137Y016493D01*
X008710Y016493D01*
X008817Y016275D02*
X009030Y016275D01*
X009137Y016168D01*
X009137Y015955D01*
X009030Y015848D01*
X008817Y015848D01*
X008710Y015955D01*
X008710Y016168D01*
X008817Y016275D01*
X008817Y015631D02*
X008710Y015524D01*
X008710Y015310D01*
X008817Y015204D01*
X009244Y015204D01*
X009351Y015310D01*
X009351Y015524D01*
X009244Y015631D01*
X009351Y014342D02*
X008710Y014342D01*
X009030Y014342D02*
X009030Y013914D01*
X008924Y013697D02*
X008817Y013697D01*
X008710Y013590D01*
X008710Y013377D01*
X008817Y013270D01*
X008817Y013052D02*
X009030Y013052D01*
X009137Y012946D01*
X009137Y012732D01*
X009030Y012625D01*
X008817Y012625D01*
X008710Y012732D01*
X008710Y012946D01*
X008817Y013052D01*
X009137Y013270D02*
X009030Y013377D01*
X009030Y013590D01*
X008924Y013697D01*
X008710Y013914D02*
X009351Y013914D01*
X009244Y013697D02*
X009351Y013590D01*
X009351Y013377D01*
X009244Y013270D01*
X009137Y013270D01*
X009030Y012408D02*
X008924Y012301D01*
X008924Y011981D01*
X008924Y012194D02*
X008710Y012408D01*
X009030Y012408D02*
X009244Y012408D01*
X009351Y012301D01*
X009351Y011981D01*
X008710Y011981D01*
X007751Y012452D02*
X007110Y012025D01*
X007110Y011809D02*
X007110Y011703D01*
X007217Y011703D01*
X007217Y011809D01*
X007110Y011809D01*
X007430Y011809D02*
X007430Y011703D01*
X007537Y011703D01*
X007537Y011809D01*
X007430Y011809D01*
X007430Y011485D02*
X007217Y011485D01*
X007110Y011378D01*
X007110Y011058D01*
X006896Y011058D02*
X007537Y011058D01*
X007537Y011378D01*
X007430Y011485D01*
X007537Y010842D02*
X007537Y010628D01*
X007644Y010735D02*
X007217Y010735D01*
X007110Y010842D01*
X007110Y010412D02*
X007217Y010305D01*
X007644Y010305D01*
X007537Y010199D02*
X007537Y010412D01*
X007430Y009981D02*
X007110Y009981D01*
X007430Y009981D02*
X007537Y009874D01*
X007537Y009661D01*
X007430Y009554D01*
X007110Y009554D02*
X007751Y009554D01*
X006051Y011066D02*
X005410Y011066D01*
X005410Y011493D01*
X005410Y011710D02*
X005837Y011710D01*
X005837Y012030D01*
X005730Y012137D01*
X005410Y012137D01*
X006051Y011493D02*
X006051Y011066D01*
X005730Y011066D02*
X005730Y011279D01*
X007110Y012669D02*
X007751Y013096D01*
X007537Y015677D02*
X007110Y015677D01*
X007217Y016322D02*
X007430Y016322D01*
X006157Y016006D02*
X006051Y016006D01*
X007751Y018255D02*
X007857Y018255D01*
X009137Y018211D02*
X009137Y018318D01*
X009351Y018318D02*
X009457Y018318D01*
D13*
X004290Y013549D02*
X002951Y012250D01*
X003069Y012711D02*
X003069Y012770D01*
X003168Y012770D01*
X003168Y012742D01*
X003081Y012742D01*
X003069Y012711D02*
X003164Y012711D01*
X003168Y012691D02*
X003168Y012742D01*
X003168Y012770D02*
X003168Y013041D01*
X003172Y013037D02*
X003136Y013053D01*
X003113Y013073D01*
X003097Y013100D01*
X003093Y013136D01*
X003101Y013175D01*
X003120Y013203D01*
X003152Y013222D01*
X003187Y013226D01*
X003223Y013222D01*
X003250Y013207D01*
X003266Y013183D01*
X003278Y013175D02*
X003282Y013140D01*
X003278Y013100D01*
X003254Y013061D01*
X003231Y013049D01*
X003203Y013037D01*
X003172Y013037D01*
X003183Y013108D02*
X003195Y013108D01*
X003207Y013116D01*
X003211Y013128D01*
X003191Y013132D01*
X003211Y013136D02*
X003207Y013148D01*
X003195Y013156D01*
X003180Y013156D01*
X003168Y013148D01*
X003164Y013136D01*
X003164Y013124D01*
X003172Y013112D01*
X003183Y013108D01*
X003278Y013175D02*
X003908Y013230D01*
X003908Y013317D01*
X004022Y013317D01*
X004022Y013242D01*
X004022Y013203D01*
X003908Y013203D01*
X003908Y013230D01*
X004022Y013242D02*
X004093Y013242D01*
X004136Y013226D01*
X004172Y013199D01*
X004195Y013171D01*
X004211Y013136D01*
X004223Y013085D01*
X004231Y013037D01*
X004203Y013033D02*
X004262Y013033D01*
X004262Y012860D01*
X004215Y012860D01*
X004203Y012856D02*
X004203Y013033D01*
X004203Y012856D02*
X004231Y012856D01*
X004231Y012833D01*
X004227Y012801D01*
X004223Y012766D01*
X004207Y012719D01*
X004191Y012679D01*
X004168Y012648D01*
X004136Y012624D01*
X004085Y012612D01*
X003168Y012691D01*
X003802Y012856D02*
X003802Y013077D01*
X003872Y013077D01*
X003872Y012856D01*
X003837Y012856D01*
X003837Y013057D01*
X003837Y012856D02*
X003802Y012856D01*
X004109Y012715D02*
X004235Y012715D01*
X004235Y012683D01*
X004231Y012683D02*
X004109Y012683D01*
X004109Y012715D01*
X004105Y012549D02*
X004081Y012549D01*
X004077Y013274D01*
X004101Y013274D01*
X004105Y012549D01*
X004290Y012250D02*
X002991Y013510D01*
X004101Y013281D02*
X004101Y013274D01*
X004101Y013258D01*
X004117Y013254D01*
X004132Y013278D01*
X004101Y013281D02*
X004109Y013301D01*
X004117Y013309D01*
X004132Y013313D01*
X004152Y013309D01*
X004164Y013297D01*
X004168Y013285D01*
X004168Y013266D01*
X004156Y013250D01*
X004140Y013242D01*
D14*
X002542Y012935D03*
D15*
X002894Y014374D02*
X002724Y014544D01*
X002926Y014791D01*
X002875Y014891D01*
X003216Y015032D01*
X003244Y014979D01*
X003282Y014932D01*
X003329Y014894D01*
X003382Y014866D01*
X003440Y014848D01*
X003500Y014842D01*
X003563Y014849D01*
X003623Y014868D01*
X003678Y014899D01*
X003725Y014941D01*
X003763Y014991D01*
X003790Y015048D01*
X003805Y015110D01*
X003807Y015173D01*
X003796Y015235D01*
X003772Y015294D01*
X003737Y015346D01*
X003692Y015390D01*
X003639Y015425D01*
X003580Y015447D01*
X003517Y015457D01*
X003454Y015454D01*
X003393Y015438D01*
X003336Y015410D01*
X003287Y015372D01*
X003246Y015323D01*
X003216Y015268D01*
X002875Y015409D01*
X002926Y015509D01*
X002724Y015756D01*
X002894Y015926D01*
X003141Y015724D01*
X003241Y015775D01*
X003348Y015809D01*
X003380Y016127D01*
X003620Y016127D01*
X003652Y015809D01*
X003759Y015775D01*
X003859Y015724D01*
X004106Y015926D01*
X004276Y015756D01*
X004074Y015509D01*
X004125Y015409D01*
X004159Y015302D01*
X004477Y015270D01*
X004477Y015030D01*
X004159Y014998D01*
X004125Y014891D01*
X004074Y014791D01*
X004276Y014544D01*
X004106Y014374D01*
X003859Y014576D01*
X003759Y014525D01*
X003652Y014491D01*
X003620Y014173D01*
X003380Y014173D01*
X003348Y014491D01*
X003241Y014525D01*
X003141Y014576D01*
X002894Y014374D01*
X002868Y014400D02*
X002926Y014400D01*
X002961Y014429D02*
X002840Y014429D01*
X002811Y014457D02*
X002995Y014457D01*
X003030Y014486D02*
X002783Y014486D01*
X002754Y014514D02*
X003065Y014514D01*
X003100Y014543D02*
X002726Y014543D01*
X002747Y014571D02*
X003135Y014571D01*
X003151Y014571D02*
X003849Y014571D01*
X003865Y014571D02*
X004253Y014571D01*
X004274Y014543D02*
X003900Y014543D01*
X003935Y014514D02*
X004246Y014514D01*
X004217Y014486D02*
X003970Y014486D01*
X004005Y014457D02*
X004189Y014457D01*
X004160Y014429D02*
X004039Y014429D01*
X004074Y014400D02*
X004132Y014400D01*
X004230Y014600D02*
X002770Y014600D01*
X002793Y014628D02*
X004207Y014628D01*
X004184Y014657D02*
X002816Y014657D01*
X002839Y014685D02*
X004161Y014685D01*
X004137Y014714D02*
X002863Y014714D01*
X002886Y014742D02*
X004114Y014742D01*
X004091Y014771D02*
X002909Y014771D01*
X002922Y014799D02*
X004078Y014799D01*
X004093Y014828D02*
X002907Y014828D01*
X002893Y014856D02*
X003414Y014856D01*
X003347Y014885D02*
X002878Y014885D01*
X002928Y014913D02*
X003306Y014913D01*
X003275Y014942D02*
X002997Y014942D01*
X003066Y014970D02*
X003252Y014970D01*
X003234Y014999D02*
X003135Y014999D01*
X003203Y015027D02*
X003219Y015027D01*
X003224Y015284D02*
X003177Y015284D01*
X003240Y015312D02*
X003109Y015312D01*
X003040Y015341D02*
X003261Y015341D01*
X003285Y015369D02*
X002971Y015369D01*
X002902Y015398D02*
X003320Y015398D01*
X003368Y015426D02*
X002884Y015426D01*
X002898Y015455D02*
X003464Y015455D01*
X003533Y015455D02*
X004102Y015455D01*
X004087Y015483D02*
X002913Y015483D01*
X002924Y015512D02*
X004076Y015512D01*
X004100Y015540D02*
X002900Y015540D01*
X002877Y015569D02*
X004123Y015569D01*
X004146Y015597D02*
X002854Y015597D01*
X002831Y015626D02*
X004169Y015626D01*
X004193Y015654D02*
X002807Y015654D01*
X002784Y015683D02*
X004216Y015683D01*
X004239Y015711D02*
X002761Y015711D01*
X002738Y015740D02*
X003122Y015740D01*
X003087Y015768D02*
X002737Y015768D01*
X002765Y015797D02*
X003052Y015797D01*
X003017Y015825D02*
X002794Y015825D01*
X002822Y015854D02*
X002982Y015854D01*
X002947Y015882D02*
X002851Y015882D01*
X002879Y015911D02*
X002912Y015911D01*
X003172Y015740D02*
X003828Y015740D01*
X003878Y015740D02*
X004262Y015740D01*
X004263Y015768D02*
X003913Y015768D01*
X003948Y015797D02*
X004235Y015797D01*
X004206Y015825D02*
X003983Y015825D01*
X004018Y015854D02*
X004178Y015854D01*
X004149Y015882D02*
X004053Y015882D01*
X004088Y015911D02*
X004121Y015911D01*
X003773Y015768D02*
X003227Y015768D01*
X003308Y015797D02*
X003692Y015797D01*
X003651Y015825D02*
X003349Y015825D01*
X003352Y015854D02*
X003648Y015854D01*
X003645Y015882D02*
X003355Y015882D01*
X003358Y015911D02*
X003642Y015911D01*
X003639Y015939D02*
X003361Y015939D01*
X003364Y015968D02*
X003636Y015968D01*
X003633Y015996D02*
X003367Y015996D01*
X003370Y016025D02*
X003630Y016025D01*
X003627Y016053D02*
X003373Y016053D01*
X003375Y016082D02*
X003625Y016082D01*
X003622Y016110D02*
X003378Y016110D01*
X003635Y015426D02*
X004116Y015426D01*
X004129Y015398D02*
X003681Y015398D01*
X003714Y015369D02*
X004138Y015369D01*
X004147Y015341D02*
X003741Y015341D01*
X003760Y015312D02*
X004156Y015312D01*
X004342Y015284D02*
X003776Y015284D01*
X003788Y015255D02*
X004477Y015255D01*
X004477Y015227D02*
X003797Y015227D01*
X003802Y015198D02*
X004477Y015198D01*
X004477Y015170D02*
X003807Y015170D01*
X003806Y015141D02*
X004477Y015141D01*
X004477Y015113D02*
X003805Y015113D01*
X003799Y015084D02*
X004477Y015084D01*
X004477Y015056D02*
X003792Y015056D01*
X003780Y015027D02*
X004448Y015027D01*
X004168Y014999D02*
X003767Y014999D01*
X003748Y014970D02*
X004150Y014970D01*
X004141Y014942D02*
X003726Y014942D01*
X003694Y014913D02*
X004132Y014913D01*
X004122Y014885D02*
X003652Y014885D01*
X003586Y014856D02*
X004107Y014856D01*
X003793Y014543D02*
X003207Y014543D01*
X003275Y014514D02*
X003725Y014514D01*
X003652Y014486D02*
X003348Y014486D01*
X003351Y014457D02*
X003649Y014457D01*
X003646Y014429D02*
X003354Y014429D01*
X003357Y014400D02*
X003643Y014400D01*
X003640Y014372D02*
X003360Y014372D01*
X003363Y014343D02*
X003637Y014343D01*
X003634Y014315D02*
X003366Y014315D01*
X003369Y014286D02*
X003631Y014286D01*
X003629Y014258D02*
X003371Y014258D01*
X003374Y014229D02*
X003626Y014229D01*
X003623Y014201D02*
X003377Y014201D01*
M02*
