G75*
%MOIN*%
%OFA0B0*%
%FSLAX24Y24*%
%IPPOS*%
%LPD*%
%AMOC8*
5,1,8,0,0,1.08239X$1,22.5*
%
%ADD10C,0.0100*%
%ADD11C,0.0000*%
D10*
X000150Y000150D02*
X034200Y000150D01*
X034200Y031150D01*
X000150Y031150D01*
X000150Y000150D01*
D11*
X002570Y008900D02*
X002572Y008950D01*
X002578Y009000D01*
X002588Y009049D01*
X002602Y009097D01*
X002619Y009144D01*
X002640Y009189D01*
X002665Y009233D01*
X002693Y009274D01*
X002725Y009313D01*
X002759Y009350D01*
X002796Y009384D01*
X002836Y009414D01*
X002878Y009441D01*
X002922Y009465D01*
X002968Y009486D01*
X003015Y009502D01*
X003063Y009515D01*
X003113Y009524D01*
X003162Y009529D01*
X003213Y009530D01*
X003263Y009527D01*
X003312Y009520D01*
X003361Y009509D01*
X003409Y009494D01*
X003455Y009476D01*
X003500Y009454D01*
X003543Y009428D01*
X003584Y009399D01*
X003623Y009367D01*
X003659Y009332D01*
X003691Y009294D01*
X003721Y009254D01*
X003748Y009211D01*
X003771Y009167D01*
X003790Y009121D01*
X003806Y009073D01*
X003818Y009024D01*
X003826Y008975D01*
X003830Y008925D01*
X003830Y008875D01*
X003826Y008825D01*
X003818Y008776D01*
X003806Y008727D01*
X003790Y008679D01*
X003771Y008633D01*
X003748Y008589D01*
X003721Y008546D01*
X003691Y008506D01*
X003659Y008468D01*
X003623Y008433D01*
X003584Y008401D01*
X003543Y008372D01*
X003500Y008346D01*
X003455Y008324D01*
X003409Y008306D01*
X003361Y008291D01*
X003312Y008280D01*
X003263Y008273D01*
X003213Y008270D01*
X003162Y008271D01*
X003113Y008276D01*
X003063Y008285D01*
X003015Y008298D01*
X002968Y008314D01*
X002922Y008335D01*
X002878Y008359D01*
X002836Y008386D01*
X002796Y008416D01*
X002759Y008450D01*
X002725Y008487D01*
X002693Y008526D01*
X002665Y008567D01*
X002640Y008611D01*
X002619Y008656D01*
X002602Y008703D01*
X002588Y008751D01*
X002578Y008800D01*
X002572Y008850D01*
X002570Y008900D01*
X003820Y023200D02*
X003822Y023250D01*
X003828Y023300D01*
X003838Y023349D01*
X003852Y023397D01*
X003869Y023444D01*
X003890Y023489D01*
X003915Y023533D01*
X003943Y023574D01*
X003975Y023613D01*
X004009Y023650D01*
X004046Y023684D01*
X004086Y023714D01*
X004128Y023741D01*
X004172Y023765D01*
X004218Y023786D01*
X004265Y023802D01*
X004313Y023815D01*
X004363Y023824D01*
X004412Y023829D01*
X004463Y023830D01*
X004513Y023827D01*
X004562Y023820D01*
X004611Y023809D01*
X004659Y023794D01*
X004705Y023776D01*
X004750Y023754D01*
X004793Y023728D01*
X004834Y023699D01*
X004873Y023667D01*
X004909Y023632D01*
X004941Y023594D01*
X004971Y023554D01*
X004998Y023511D01*
X005021Y023467D01*
X005040Y023421D01*
X005056Y023373D01*
X005068Y023324D01*
X005076Y023275D01*
X005080Y023225D01*
X005080Y023175D01*
X005076Y023125D01*
X005068Y023076D01*
X005056Y023027D01*
X005040Y022979D01*
X005021Y022933D01*
X004998Y022889D01*
X004971Y022846D01*
X004941Y022806D01*
X004909Y022768D01*
X004873Y022733D01*
X004834Y022701D01*
X004793Y022672D01*
X004750Y022646D01*
X004705Y022624D01*
X004659Y022606D01*
X004611Y022591D01*
X004562Y022580D01*
X004513Y022573D01*
X004463Y022570D01*
X004412Y022571D01*
X004363Y022576D01*
X004313Y022585D01*
X004265Y022598D01*
X004218Y022614D01*
X004172Y022635D01*
X004128Y022659D01*
X004086Y022686D01*
X004046Y022716D01*
X004009Y022750D01*
X003975Y022787D01*
X003943Y022826D01*
X003915Y022867D01*
X003890Y022911D01*
X003869Y022956D01*
X003852Y023003D01*
X003838Y023051D01*
X003828Y023100D01*
X003822Y023150D01*
X003820Y023200D01*
M02*
