G75*
%MOIN*%
%OFA0B0*%
%FSLAX25Y25*%
%IPPOS*%
%LPD*%
%AMOC8*
5,1,8,0,0,1.08239X$1,22.5*
%
%ADD10C,0.13398*%
%ADD11R,0.09599X0.05599*%
%ADD12R,0.09461X0.14973*%
%ADD13R,0.07099X0.06312*%
%ADD14R,0.03950X0.05524*%
%ADD15R,0.05524X0.03950*%
%ADD16R,0.05524X0.05524*%
%ADD17R,0.04737X0.15761*%
%ADD18R,0.43123X0.38005*%
%ADD19R,0.15957X0.22454*%
%ADD20R,0.10249X0.07887*%
%ADD21R,0.07099X0.16154*%
%ADD22R,0.16154X0.07099*%
%ADD23R,0.07296X0.07296*%
%ADD24C,0.07296*%
%ADD25C,0.26200*%
%ADD26C,0.06800*%
%ADD27OC8,0.06800*%
%ADD28R,0.07099X0.11430*%
%ADD29R,0.06800X0.06800*%
%ADD30R,0.07800X0.20800*%
%ADD31R,0.20800X0.07800*%
%ADD32R,0.02400X0.04800*%
%ADD33R,0.01378X0.06398*%
%ADD34R,0.06398X0.01378*%
%ADD35R,0.01981X0.07296*%
%ADD36R,0.08595X0.07611*%
%ADD37C,0.08200*%
%ADD38R,0.07887X0.07099*%
%ADD39R,0.06312X0.12611*%
%ADD40OC8,0.08200*%
%ADD41C,0.05000*%
%ADD42C,0.04737*%
%ADD43C,0.04369*%
%ADD44C,0.04800*%
%ADD45C,0.04762*%
%ADD46C,0.03400*%
%ADD47C,0.05550*%
%ADD48C,0.05800*%
D10*
X0032000Y0089000D03*
X0044500Y0232000D03*
D11*
X0148201Y0122098D03*
X0148201Y0113000D03*
X0148201Y0103902D03*
D12*
X0123799Y0113000D03*
D13*
X0088000Y0086512D03*
X0088000Y0075488D03*
D14*
X0103957Y0089000D03*
X0111043Y0089000D03*
X0158757Y0153800D03*
X0165843Y0153800D03*
X0165843Y0167000D03*
X0158757Y0167000D03*
X0158457Y0175000D03*
X0152043Y0175000D03*
X0144957Y0175000D03*
X0165543Y0175000D03*
X0244457Y0157500D03*
X0251543Y0157500D03*
X0134543Y0262300D03*
X0127457Y0262300D03*
X0083943Y0271600D03*
X0076857Y0271600D03*
X0060043Y0282000D03*
X0052957Y0282000D03*
X0054443Y0247900D03*
X0047357Y0247900D03*
X0070457Y0014500D03*
X0077543Y0014500D03*
D15*
X0113000Y0050957D03*
X0113000Y0058043D03*
X0198000Y0109957D03*
X0198000Y0117043D03*
X0216600Y0187957D03*
X0223200Y0187957D03*
X0230000Y0187957D03*
X0236500Y0187957D03*
X0243000Y0187957D03*
X0243000Y0195043D03*
X0236500Y0195043D03*
X0230000Y0195043D03*
X0223200Y0195043D03*
X0216600Y0195043D03*
X0208600Y0192957D03*
X0208600Y0200043D03*
X0251500Y0203043D03*
X0251500Y0209957D03*
X0251500Y0217043D03*
X0251500Y0195957D03*
X0118000Y0196543D03*
X0118000Y0189457D03*
X0040500Y0247357D03*
X0040500Y0254443D03*
D16*
X0054866Y0301000D03*
X0063134Y0301000D03*
D17*
X0056386Y0176870D03*
X0049693Y0176870D03*
X0043000Y0176870D03*
X0036307Y0176870D03*
X0029614Y0176870D03*
D18*
X0043000Y0137500D03*
D19*
X0053835Y0211500D03*
X0108165Y0211500D03*
D20*
X0039200Y0214472D03*
X0039200Y0198528D03*
D21*
X0097500Y0141732D03*
X0097500Y0108268D03*
D22*
X0104870Y0168000D03*
X0076130Y0168000D03*
D23*
X0074890Y0064000D03*
X0102000Y0021500D03*
X0122000Y0021500D03*
X0262000Y0232000D03*
X0122000Y0271500D03*
X0102000Y0281500D03*
D24*
X0102000Y0291500D03*
X0112000Y0291500D03*
X0112000Y0281500D03*
X0122000Y0281500D03*
X0122000Y0291500D03*
X0132000Y0291500D03*
X0132000Y0281500D03*
X0132000Y0271500D03*
X0142000Y0271500D03*
X0142000Y0281500D03*
X0142000Y0291500D03*
X0152000Y0291500D03*
X0152000Y0281500D03*
X0152000Y0271500D03*
X0162000Y0271500D03*
X0162000Y0281500D03*
X0162000Y0291500D03*
X0172000Y0291500D03*
X0182000Y0291500D03*
X0182000Y0281500D03*
X0172000Y0281500D03*
X0172000Y0271500D03*
X0182000Y0271500D03*
X0192000Y0271500D03*
X0192000Y0281500D03*
X0192000Y0291500D03*
X0202000Y0291500D03*
X0202000Y0281500D03*
X0202000Y0271500D03*
X0212000Y0271500D03*
X0212000Y0281500D03*
X0212000Y0291500D03*
X0222000Y0291500D03*
X0222000Y0281500D03*
X0222000Y0271500D03*
X0232000Y0271500D03*
X0232000Y0281500D03*
X0232000Y0291500D03*
X0242000Y0291500D03*
X0242000Y0281500D03*
X0242000Y0271500D03*
X0252000Y0271500D03*
X0252000Y0281500D03*
X0252000Y0291500D03*
X0262000Y0291500D03*
X0262000Y0281500D03*
X0262000Y0271500D03*
X0272000Y0271500D03*
X0272000Y0281500D03*
X0272000Y0291500D03*
X0282000Y0291500D03*
X0282000Y0281500D03*
X0282000Y0271500D03*
X0272000Y0232000D03*
X0272000Y0222000D03*
X0272000Y0212000D03*
X0272000Y0202000D03*
X0272000Y0192000D03*
X0262000Y0192000D03*
X0262000Y0202000D03*
X0262000Y0212000D03*
X0262000Y0222000D03*
X0262000Y0182000D03*
X0262000Y0172000D03*
X0262000Y0162000D03*
X0262000Y0152000D03*
X0262000Y0142000D03*
X0262000Y0132000D03*
X0272000Y0132000D03*
X0272000Y0142000D03*
X0272000Y0152000D03*
X0272000Y0162000D03*
X0272000Y0172000D03*
X0272000Y0182000D03*
X0272000Y0122000D03*
X0272000Y0112000D03*
X0272000Y0102000D03*
X0272000Y0092000D03*
X0272000Y0082000D03*
X0262000Y0082000D03*
X0262000Y0092000D03*
X0262000Y0102000D03*
X0262000Y0112000D03*
X0262000Y0122000D03*
X0262000Y0041500D03*
X0262000Y0031500D03*
X0252000Y0031500D03*
X0252000Y0041500D03*
X0242000Y0041500D03*
X0242000Y0031500D03*
X0232000Y0031500D03*
X0232000Y0041500D03*
X0222000Y0041500D03*
X0222000Y0031500D03*
X0212000Y0031500D03*
X0212000Y0041500D03*
X0202000Y0041500D03*
X0202000Y0031500D03*
X0192000Y0031500D03*
X0192000Y0041500D03*
X0182000Y0041500D03*
X0172000Y0041500D03*
X0172000Y0031500D03*
X0182000Y0031500D03*
X0182000Y0021500D03*
X0172000Y0021500D03*
X0162000Y0021500D03*
X0152000Y0021500D03*
X0142000Y0021500D03*
X0132000Y0021500D03*
X0132000Y0031500D03*
X0132000Y0041500D03*
X0122000Y0041500D03*
X0122000Y0031500D03*
X0112000Y0031500D03*
X0102000Y0031500D03*
X0112000Y0021500D03*
X0142000Y0031500D03*
X0142000Y0041500D03*
X0152000Y0041500D03*
X0152000Y0031500D03*
X0162000Y0031500D03*
X0162000Y0041500D03*
X0192000Y0021500D03*
X0202000Y0021500D03*
X0212000Y0021500D03*
X0222000Y0021500D03*
X0232000Y0021500D03*
X0242000Y0021500D03*
X0252000Y0021500D03*
X0262000Y0021500D03*
X0272000Y0021500D03*
X0282000Y0021500D03*
X0282000Y0031500D03*
X0282000Y0041500D03*
X0272000Y0041500D03*
X0272000Y0031500D03*
X0074890Y0074000D03*
X0074890Y0084000D03*
D25*
X0017000Y0026500D03*
X0017000Y0286500D03*
X0317000Y0286500D03*
X0317000Y0026500D03*
D26*
X0296500Y0072000D03*
X0296500Y0082000D03*
X0296500Y0092000D03*
X0296500Y0102000D03*
X0296500Y0112000D03*
X0296500Y0122000D03*
X0296500Y0132000D03*
X0296500Y0142000D03*
X0296500Y0152000D03*
X0296500Y0162000D03*
X0296500Y0172000D03*
X0296500Y0182000D03*
X0296500Y0192000D03*
X0296500Y0202000D03*
X0296500Y0212000D03*
X0296500Y0222000D03*
X0296500Y0232000D03*
X0316000Y0235000D03*
X0316000Y0225000D03*
X0316000Y0215000D03*
X0331000Y0215000D03*
X0331000Y0225000D03*
X0331000Y0235000D03*
X0331000Y0245000D03*
X0331000Y0255000D03*
X0316000Y0255000D03*
X0316000Y0245000D03*
X0331000Y0177500D03*
X0331000Y0167500D03*
X0331000Y0157500D03*
X0022000Y0266500D03*
X0012000Y0266500D03*
D27*
X0321000Y0201500D03*
X0331000Y0201500D03*
X0331000Y0191500D03*
X0321000Y0191500D03*
X0322500Y0141500D03*
X0332500Y0141500D03*
X0332500Y0131500D03*
X0322500Y0131500D03*
X0322000Y0116500D03*
X0332000Y0116500D03*
X0332000Y0106500D03*
X0322000Y0106500D03*
D28*
X0134512Y0093000D03*
X0123488Y0093000D03*
X0122488Y0133000D03*
X0133512Y0133000D03*
D29*
X0296500Y0242000D03*
D30*
X0045300Y0061500D03*
X0019300Y0061500D03*
D31*
X0162500Y0061500D03*
X0162500Y0087500D03*
X0162000Y0228000D03*
X0162000Y0254000D03*
D32*
X0237100Y0222200D03*
X0239700Y0222200D03*
X0242300Y0222200D03*
X0244900Y0222200D03*
X0244900Y0204600D03*
X0242300Y0204600D03*
X0239700Y0204600D03*
X0237100Y0204600D03*
D33*
X0217748Y0178990D03*
X0215780Y0178990D03*
X0213811Y0178990D03*
X0211843Y0178990D03*
X0209874Y0178990D03*
X0207906Y0178990D03*
X0205937Y0178990D03*
X0203969Y0178990D03*
X0202000Y0178990D03*
X0200031Y0178990D03*
X0198063Y0178990D03*
X0196094Y0178990D03*
X0194126Y0178990D03*
X0192157Y0178990D03*
X0190189Y0178990D03*
X0188220Y0178990D03*
X0188220Y0134010D03*
X0190189Y0134010D03*
X0192157Y0134010D03*
X0194126Y0134010D03*
X0196094Y0134010D03*
X0198063Y0134010D03*
X0200031Y0134010D03*
X0202000Y0134010D03*
X0203969Y0134010D03*
X0205937Y0134010D03*
X0207906Y0134010D03*
X0209874Y0134010D03*
X0211843Y0134010D03*
X0213811Y0134010D03*
X0215780Y0134010D03*
X0217748Y0134010D03*
D34*
X0225474Y0141736D03*
X0225474Y0143705D03*
X0225474Y0145673D03*
X0225474Y0147642D03*
X0225474Y0149610D03*
X0225474Y0151579D03*
X0225474Y0153547D03*
X0225474Y0155516D03*
X0225474Y0157484D03*
X0225474Y0159453D03*
X0225474Y0161421D03*
X0225474Y0163390D03*
X0225474Y0165358D03*
X0225474Y0167327D03*
X0225474Y0169295D03*
X0225474Y0171264D03*
X0180494Y0171264D03*
X0180494Y0169295D03*
X0180494Y0167327D03*
X0180494Y0165358D03*
X0180494Y0163390D03*
X0180494Y0161421D03*
X0180494Y0159453D03*
X0180494Y0157484D03*
X0180494Y0155516D03*
X0180494Y0153547D03*
X0180494Y0151579D03*
X0180494Y0149610D03*
X0180494Y0147642D03*
X0180494Y0145673D03*
X0180494Y0143705D03*
X0180494Y0141736D03*
D35*
X0125937Y0076555D03*
X0123969Y0076555D03*
X0122000Y0076555D03*
X0120031Y0076555D03*
X0118063Y0076555D03*
X0118063Y0058445D03*
X0120031Y0058445D03*
X0122000Y0058445D03*
X0123969Y0058445D03*
X0125937Y0058445D03*
X0088937Y0039555D03*
X0086969Y0039555D03*
X0085000Y0039555D03*
X0083031Y0039555D03*
X0081063Y0039555D03*
X0081063Y0021445D03*
X0083031Y0021445D03*
X0085000Y0021445D03*
X0086969Y0021445D03*
X0088937Y0021445D03*
X0072937Y0242445D03*
X0070969Y0242445D03*
X0069000Y0242445D03*
X0067031Y0242445D03*
X0065063Y0242445D03*
X0065063Y0260555D03*
X0067031Y0260555D03*
X0069000Y0260555D03*
X0070969Y0260555D03*
X0072937Y0260555D03*
X0108063Y0260555D03*
X0110031Y0260555D03*
X0112000Y0260555D03*
X0113969Y0260555D03*
X0115937Y0260555D03*
X0115937Y0242445D03*
X0113969Y0242445D03*
X0112000Y0242445D03*
X0110031Y0242445D03*
X0108063Y0242445D03*
D36*
X0112000Y0251500D03*
X0069000Y0251500D03*
X0122000Y0067500D03*
X0085000Y0030500D03*
D37*
X0087100Y0291600D03*
X0077100Y0291600D03*
X0067100Y0291600D03*
X0057100Y0291600D03*
X0047100Y0291600D03*
D38*
X0200000Y0203012D03*
X0200000Y0191988D03*
D39*
X0133000Y0233051D03*
X0133000Y0251949D03*
X0090000Y0245051D03*
X0090000Y0263949D03*
X0097000Y0065949D03*
X0097000Y0047051D03*
X0063000Y0040949D03*
X0063000Y0022051D03*
D40*
X0322000Y0051500D03*
X0322000Y0061500D03*
X0322000Y0071500D03*
X0322000Y0081500D03*
X0332000Y0081500D03*
X0332000Y0071500D03*
X0332000Y0061500D03*
X0332000Y0051500D03*
X0332000Y0091500D03*
X0322000Y0091500D03*
D41*
X0248457Y0126500D02*
X0248459Y0126618D01*
X0248465Y0126737D01*
X0248475Y0126855D01*
X0248489Y0126972D01*
X0248506Y0127089D01*
X0248528Y0127206D01*
X0248554Y0127321D01*
X0248583Y0127436D01*
X0248616Y0127550D01*
X0248653Y0127662D01*
X0248694Y0127773D01*
X0248738Y0127883D01*
X0248786Y0127991D01*
X0248838Y0128098D01*
X0248893Y0128203D01*
X0248952Y0128306D01*
X0249014Y0128406D01*
X0249079Y0128505D01*
X0249148Y0128602D01*
X0249219Y0128696D01*
X0249294Y0128787D01*
X0249372Y0128877D01*
X0249453Y0128963D01*
X0249537Y0129047D01*
X0249623Y0129128D01*
X0249713Y0129206D01*
X0249804Y0129281D01*
X0249898Y0129352D01*
X0249995Y0129421D01*
X0250094Y0129486D01*
X0250194Y0129548D01*
X0250297Y0129607D01*
X0250402Y0129662D01*
X0250509Y0129714D01*
X0250617Y0129762D01*
X0250727Y0129806D01*
X0250838Y0129847D01*
X0250950Y0129884D01*
X0251064Y0129917D01*
X0251179Y0129946D01*
X0251294Y0129972D01*
X0251411Y0129994D01*
X0251528Y0130011D01*
X0251645Y0130025D01*
X0251763Y0130035D01*
X0251882Y0130041D01*
X0252000Y0130043D01*
X0252118Y0130041D01*
X0252237Y0130035D01*
X0252355Y0130025D01*
X0252472Y0130011D01*
X0252589Y0129994D01*
X0252706Y0129972D01*
X0252821Y0129946D01*
X0252936Y0129917D01*
X0253050Y0129884D01*
X0253162Y0129847D01*
X0253273Y0129806D01*
X0253383Y0129762D01*
X0253491Y0129714D01*
X0253598Y0129662D01*
X0253703Y0129607D01*
X0253806Y0129548D01*
X0253906Y0129486D01*
X0254005Y0129421D01*
X0254102Y0129352D01*
X0254196Y0129281D01*
X0254287Y0129206D01*
X0254377Y0129128D01*
X0254463Y0129047D01*
X0254547Y0128963D01*
X0254628Y0128877D01*
X0254706Y0128787D01*
X0254781Y0128696D01*
X0254852Y0128602D01*
X0254921Y0128505D01*
X0254986Y0128406D01*
X0255048Y0128306D01*
X0255107Y0128203D01*
X0255162Y0128098D01*
X0255214Y0127991D01*
X0255262Y0127883D01*
X0255306Y0127773D01*
X0255347Y0127662D01*
X0255384Y0127550D01*
X0255417Y0127436D01*
X0255446Y0127321D01*
X0255472Y0127206D01*
X0255494Y0127089D01*
X0255511Y0126972D01*
X0255525Y0126855D01*
X0255535Y0126737D01*
X0255541Y0126618D01*
X0255543Y0126500D01*
X0255541Y0126382D01*
X0255535Y0126263D01*
X0255525Y0126145D01*
X0255511Y0126028D01*
X0255494Y0125911D01*
X0255472Y0125794D01*
X0255446Y0125679D01*
X0255417Y0125564D01*
X0255384Y0125450D01*
X0255347Y0125338D01*
X0255306Y0125227D01*
X0255262Y0125117D01*
X0255214Y0125009D01*
X0255162Y0124902D01*
X0255107Y0124797D01*
X0255048Y0124694D01*
X0254986Y0124594D01*
X0254921Y0124495D01*
X0254852Y0124398D01*
X0254781Y0124304D01*
X0254706Y0124213D01*
X0254628Y0124123D01*
X0254547Y0124037D01*
X0254463Y0123953D01*
X0254377Y0123872D01*
X0254287Y0123794D01*
X0254196Y0123719D01*
X0254102Y0123648D01*
X0254005Y0123579D01*
X0253906Y0123514D01*
X0253806Y0123452D01*
X0253703Y0123393D01*
X0253598Y0123338D01*
X0253491Y0123286D01*
X0253383Y0123238D01*
X0253273Y0123194D01*
X0253162Y0123153D01*
X0253050Y0123116D01*
X0252936Y0123083D01*
X0252821Y0123054D01*
X0252706Y0123028D01*
X0252589Y0123006D01*
X0252472Y0122989D01*
X0252355Y0122975D01*
X0252237Y0122965D01*
X0252118Y0122959D01*
X0252000Y0122957D01*
X0251882Y0122959D01*
X0251763Y0122965D01*
X0251645Y0122975D01*
X0251528Y0122989D01*
X0251411Y0123006D01*
X0251294Y0123028D01*
X0251179Y0123054D01*
X0251064Y0123083D01*
X0250950Y0123116D01*
X0250838Y0123153D01*
X0250727Y0123194D01*
X0250617Y0123238D01*
X0250509Y0123286D01*
X0250402Y0123338D01*
X0250297Y0123393D01*
X0250194Y0123452D01*
X0250094Y0123514D01*
X0249995Y0123579D01*
X0249898Y0123648D01*
X0249804Y0123719D01*
X0249713Y0123794D01*
X0249623Y0123872D01*
X0249537Y0123953D01*
X0249453Y0124037D01*
X0249372Y0124123D01*
X0249294Y0124213D01*
X0249219Y0124304D01*
X0249148Y0124398D01*
X0249079Y0124495D01*
X0249014Y0124594D01*
X0248952Y0124694D01*
X0248893Y0124797D01*
X0248838Y0124902D01*
X0248786Y0125009D01*
X0248738Y0125117D01*
X0248694Y0125227D01*
X0248653Y0125338D01*
X0248616Y0125450D01*
X0248583Y0125564D01*
X0248554Y0125679D01*
X0248528Y0125794D01*
X0248506Y0125911D01*
X0248489Y0126028D01*
X0248475Y0126145D01*
X0248465Y0126263D01*
X0248459Y0126382D01*
X0248457Y0126500D01*
X0198457Y0231500D02*
X0198459Y0231618D01*
X0198465Y0231737D01*
X0198475Y0231855D01*
X0198489Y0231972D01*
X0198506Y0232089D01*
X0198528Y0232206D01*
X0198554Y0232321D01*
X0198583Y0232436D01*
X0198616Y0232550D01*
X0198653Y0232662D01*
X0198694Y0232773D01*
X0198738Y0232883D01*
X0198786Y0232991D01*
X0198838Y0233098D01*
X0198893Y0233203D01*
X0198952Y0233306D01*
X0199014Y0233406D01*
X0199079Y0233505D01*
X0199148Y0233602D01*
X0199219Y0233696D01*
X0199294Y0233787D01*
X0199372Y0233877D01*
X0199453Y0233963D01*
X0199537Y0234047D01*
X0199623Y0234128D01*
X0199713Y0234206D01*
X0199804Y0234281D01*
X0199898Y0234352D01*
X0199995Y0234421D01*
X0200094Y0234486D01*
X0200194Y0234548D01*
X0200297Y0234607D01*
X0200402Y0234662D01*
X0200509Y0234714D01*
X0200617Y0234762D01*
X0200727Y0234806D01*
X0200838Y0234847D01*
X0200950Y0234884D01*
X0201064Y0234917D01*
X0201179Y0234946D01*
X0201294Y0234972D01*
X0201411Y0234994D01*
X0201528Y0235011D01*
X0201645Y0235025D01*
X0201763Y0235035D01*
X0201882Y0235041D01*
X0202000Y0235043D01*
X0202118Y0235041D01*
X0202237Y0235035D01*
X0202355Y0235025D01*
X0202472Y0235011D01*
X0202589Y0234994D01*
X0202706Y0234972D01*
X0202821Y0234946D01*
X0202936Y0234917D01*
X0203050Y0234884D01*
X0203162Y0234847D01*
X0203273Y0234806D01*
X0203383Y0234762D01*
X0203491Y0234714D01*
X0203598Y0234662D01*
X0203703Y0234607D01*
X0203806Y0234548D01*
X0203906Y0234486D01*
X0204005Y0234421D01*
X0204102Y0234352D01*
X0204196Y0234281D01*
X0204287Y0234206D01*
X0204377Y0234128D01*
X0204463Y0234047D01*
X0204547Y0233963D01*
X0204628Y0233877D01*
X0204706Y0233787D01*
X0204781Y0233696D01*
X0204852Y0233602D01*
X0204921Y0233505D01*
X0204986Y0233406D01*
X0205048Y0233306D01*
X0205107Y0233203D01*
X0205162Y0233098D01*
X0205214Y0232991D01*
X0205262Y0232883D01*
X0205306Y0232773D01*
X0205347Y0232662D01*
X0205384Y0232550D01*
X0205417Y0232436D01*
X0205446Y0232321D01*
X0205472Y0232206D01*
X0205494Y0232089D01*
X0205511Y0231972D01*
X0205525Y0231855D01*
X0205535Y0231737D01*
X0205541Y0231618D01*
X0205543Y0231500D01*
X0205541Y0231382D01*
X0205535Y0231263D01*
X0205525Y0231145D01*
X0205511Y0231028D01*
X0205494Y0230911D01*
X0205472Y0230794D01*
X0205446Y0230679D01*
X0205417Y0230564D01*
X0205384Y0230450D01*
X0205347Y0230338D01*
X0205306Y0230227D01*
X0205262Y0230117D01*
X0205214Y0230009D01*
X0205162Y0229902D01*
X0205107Y0229797D01*
X0205048Y0229694D01*
X0204986Y0229594D01*
X0204921Y0229495D01*
X0204852Y0229398D01*
X0204781Y0229304D01*
X0204706Y0229213D01*
X0204628Y0229123D01*
X0204547Y0229037D01*
X0204463Y0228953D01*
X0204377Y0228872D01*
X0204287Y0228794D01*
X0204196Y0228719D01*
X0204102Y0228648D01*
X0204005Y0228579D01*
X0203906Y0228514D01*
X0203806Y0228452D01*
X0203703Y0228393D01*
X0203598Y0228338D01*
X0203491Y0228286D01*
X0203383Y0228238D01*
X0203273Y0228194D01*
X0203162Y0228153D01*
X0203050Y0228116D01*
X0202936Y0228083D01*
X0202821Y0228054D01*
X0202706Y0228028D01*
X0202589Y0228006D01*
X0202472Y0227989D01*
X0202355Y0227975D01*
X0202237Y0227965D01*
X0202118Y0227959D01*
X0202000Y0227957D01*
X0201882Y0227959D01*
X0201763Y0227965D01*
X0201645Y0227975D01*
X0201528Y0227989D01*
X0201411Y0228006D01*
X0201294Y0228028D01*
X0201179Y0228054D01*
X0201064Y0228083D01*
X0200950Y0228116D01*
X0200838Y0228153D01*
X0200727Y0228194D01*
X0200617Y0228238D01*
X0200509Y0228286D01*
X0200402Y0228338D01*
X0200297Y0228393D01*
X0200194Y0228452D01*
X0200094Y0228514D01*
X0199995Y0228579D01*
X0199898Y0228648D01*
X0199804Y0228719D01*
X0199713Y0228794D01*
X0199623Y0228872D01*
X0199537Y0228953D01*
X0199453Y0229037D01*
X0199372Y0229123D01*
X0199294Y0229213D01*
X0199219Y0229304D01*
X0199148Y0229398D01*
X0199079Y0229495D01*
X0199014Y0229594D01*
X0198952Y0229694D01*
X0198893Y0229797D01*
X0198838Y0229902D01*
X0198786Y0230009D01*
X0198738Y0230117D01*
X0198694Y0230227D01*
X0198653Y0230338D01*
X0198616Y0230450D01*
X0198583Y0230564D01*
X0198554Y0230679D01*
X0198528Y0230794D01*
X0198506Y0230911D01*
X0198489Y0231028D01*
X0198475Y0231145D01*
X0198465Y0231263D01*
X0198459Y0231382D01*
X0198457Y0231500D01*
X0033457Y0036500D02*
X0033459Y0036618D01*
X0033465Y0036737D01*
X0033475Y0036855D01*
X0033489Y0036972D01*
X0033506Y0037089D01*
X0033528Y0037206D01*
X0033554Y0037321D01*
X0033583Y0037436D01*
X0033616Y0037550D01*
X0033653Y0037662D01*
X0033694Y0037773D01*
X0033738Y0037883D01*
X0033786Y0037991D01*
X0033838Y0038098D01*
X0033893Y0038203D01*
X0033952Y0038306D01*
X0034014Y0038406D01*
X0034079Y0038505D01*
X0034148Y0038602D01*
X0034219Y0038696D01*
X0034294Y0038787D01*
X0034372Y0038877D01*
X0034453Y0038963D01*
X0034537Y0039047D01*
X0034623Y0039128D01*
X0034713Y0039206D01*
X0034804Y0039281D01*
X0034898Y0039352D01*
X0034995Y0039421D01*
X0035094Y0039486D01*
X0035194Y0039548D01*
X0035297Y0039607D01*
X0035402Y0039662D01*
X0035509Y0039714D01*
X0035617Y0039762D01*
X0035727Y0039806D01*
X0035838Y0039847D01*
X0035950Y0039884D01*
X0036064Y0039917D01*
X0036179Y0039946D01*
X0036294Y0039972D01*
X0036411Y0039994D01*
X0036528Y0040011D01*
X0036645Y0040025D01*
X0036763Y0040035D01*
X0036882Y0040041D01*
X0037000Y0040043D01*
X0037118Y0040041D01*
X0037237Y0040035D01*
X0037355Y0040025D01*
X0037472Y0040011D01*
X0037589Y0039994D01*
X0037706Y0039972D01*
X0037821Y0039946D01*
X0037936Y0039917D01*
X0038050Y0039884D01*
X0038162Y0039847D01*
X0038273Y0039806D01*
X0038383Y0039762D01*
X0038491Y0039714D01*
X0038598Y0039662D01*
X0038703Y0039607D01*
X0038806Y0039548D01*
X0038906Y0039486D01*
X0039005Y0039421D01*
X0039102Y0039352D01*
X0039196Y0039281D01*
X0039287Y0039206D01*
X0039377Y0039128D01*
X0039463Y0039047D01*
X0039547Y0038963D01*
X0039628Y0038877D01*
X0039706Y0038787D01*
X0039781Y0038696D01*
X0039852Y0038602D01*
X0039921Y0038505D01*
X0039986Y0038406D01*
X0040048Y0038306D01*
X0040107Y0038203D01*
X0040162Y0038098D01*
X0040214Y0037991D01*
X0040262Y0037883D01*
X0040306Y0037773D01*
X0040347Y0037662D01*
X0040384Y0037550D01*
X0040417Y0037436D01*
X0040446Y0037321D01*
X0040472Y0037206D01*
X0040494Y0037089D01*
X0040511Y0036972D01*
X0040525Y0036855D01*
X0040535Y0036737D01*
X0040541Y0036618D01*
X0040543Y0036500D01*
X0040541Y0036382D01*
X0040535Y0036263D01*
X0040525Y0036145D01*
X0040511Y0036028D01*
X0040494Y0035911D01*
X0040472Y0035794D01*
X0040446Y0035679D01*
X0040417Y0035564D01*
X0040384Y0035450D01*
X0040347Y0035338D01*
X0040306Y0035227D01*
X0040262Y0035117D01*
X0040214Y0035009D01*
X0040162Y0034902D01*
X0040107Y0034797D01*
X0040048Y0034694D01*
X0039986Y0034594D01*
X0039921Y0034495D01*
X0039852Y0034398D01*
X0039781Y0034304D01*
X0039706Y0034213D01*
X0039628Y0034123D01*
X0039547Y0034037D01*
X0039463Y0033953D01*
X0039377Y0033872D01*
X0039287Y0033794D01*
X0039196Y0033719D01*
X0039102Y0033648D01*
X0039005Y0033579D01*
X0038906Y0033514D01*
X0038806Y0033452D01*
X0038703Y0033393D01*
X0038598Y0033338D01*
X0038491Y0033286D01*
X0038383Y0033238D01*
X0038273Y0033194D01*
X0038162Y0033153D01*
X0038050Y0033116D01*
X0037936Y0033083D01*
X0037821Y0033054D01*
X0037706Y0033028D01*
X0037589Y0033006D01*
X0037472Y0032989D01*
X0037355Y0032975D01*
X0037237Y0032965D01*
X0037118Y0032959D01*
X0037000Y0032957D01*
X0036882Y0032959D01*
X0036763Y0032965D01*
X0036645Y0032975D01*
X0036528Y0032989D01*
X0036411Y0033006D01*
X0036294Y0033028D01*
X0036179Y0033054D01*
X0036064Y0033083D01*
X0035950Y0033116D01*
X0035838Y0033153D01*
X0035727Y0033194D01*
X0035617Y0033238D01*
X0035509Y0033286D01*
X0035402Y0033338D01*
X0035297Y0033393D01*
X0035194Y0033452D01*
X0035094Y0033514D01*
X0034995Y0033579D01*
X0034898Y0033648D01*
X0034804Y0033719D01*
X0034713Y0033794D01*
X0034623Y0033872D01*
X0034537Y0033953D01*
X0034453Y0034037D01*
X0034372Y0034123D01*
X0034294Y0034213D01*
X0034219Y0034304D01*
X0034148Y0034398D01*
X0034079Y0034495D01*
X0034014Y0034594D01*
X0033952Y0034694D01*
X0033893Y0034797D01*
X0033838Y0034902D01*
X0033786Y0035009D01*
X0033738Y0035117D01*
X0033694Y0035227D01*
X0033653Y0035338D01*
X0033616Y0035450D01*
X0033583Y0035564D01*
X0033554Y0035679D01*
X0033528Y0035794D01*
X0033506Y0035911D01*
X0033489Y0036028D01*
X0033475Y0036145D01*
X0033465Y0036263D01*
X0033459Y0036382D01*
X0033457Y0036500D01*
D42*
X0037000Y0036500D03*
X0202000Y0231500D03*
X0252000Y0126500D03*
D43*
X0120500Y0155500D03*
X0114000Y0136000D03*
X0120500Y0181500D03*
X0052000Y0084000D03*
X0051000Y0009500D03*
D44*
X0116000Y0110000D03*
D45*
X0155300Y0080600D03*
X0177000Y0084000D03*
X0176700Y0058200D03*
X0119000Y0221500D03*
X0154000Y0237500D03*
X0170000Y0237500D03*
X0187000Y0223500D03*
X0262500Y0253000D03*
X0296000Y0259500D03*
X0290800Y0306800D03*
D46*
X0231500Y0250500D03*
X0227500Y0244000D03*
X0224000Y0240000D03*
X0220500Y0236000D03*
X0222000Y0253000D03*
X0208000Y0255000D03*
X0196500Y0266500D03*
X0183600Y0253100D03*
X0180500Y0250000D03*
X0177500Y0244500D03*
X0140200Y0249500D03*
X0118000Y0249500D03*
X0118000Y0253500D03*
X0112000Y0253500D03*
X0112000Y0249500D03*
X0106000Y0249500D03*
X0106000Y0253500D03*
X0098000Y0255000D03*
X0107031Y0266469D03*
X0113000Y0266500D03*
X0101000Y0243500D03*
X0101000Y0237500D03*
X0104500Y0234500D03*
X0110000Y0236500D03*
X0113000Y0234500D03*
X0125000Y0227500D03*
X0125500Y0218000D03*
X0132500Y0216000D03*
X0137000Y0225000D03*
X0118000Y0206000D03*
X0118000Y0201500D03*
X0127500Y0197500D03*
X0112000Y0189500D03*
X0076500Y0235500D03*
X0080000Y0238500D03*
X0079500Y0243500D03*
X0075000Y0249500D03*
X0075000Y0253500D03*
X0069000Y0253500D03*
X0069000Y0249500D03*
X0063000Y0249500D03*
X0063000Y0253500D03*
X0065000Y0236500D03*
X0070000Y0235500D03*
X0083000Y0255000D03*
X0083500Y0283500D03*
X0071200Y0302300D03*
X0047100Y0302400D03*
X0036500Y0222300D03*
X0036500Y0186500D03*
X0117000Y0094500D03*
X0101000Y0075500D03*
X0092000Y0081000D03*
X0087000Y0066500D03*
X0081000Y0052000D03*
X0084000Y0050000D03*
X0086000Y0047000D03*
X0085000Y0032500D03*
X0085000Y0028500D03*
X0079000Y0028500D03*
X0079000Y0032500D03*
X0091000Y0032500D03*
X0091000Y0028500D03*
X0083000Y0013500D03*
X0070000Y0046500D03*
X0056000Y0046500D03*
X0107000Y0066500D03*
X0116000Y0065500D03*
X0116000Y0069500D03*
X0122000Y0069500D03*
X0122000Y0065500D03*
X0128000Y0065500D03*
X0128000Y0069500D03*
X0139500Y0073500D03*
X0142500Y0070500D03*
X0150000Y0067500D03*
X0150000Y0082000D03*
X0156500Y0100500D03*
X0156600Y0106600D03*
X0155800Y0118300D03*
X0168000Y0127400D03*
X0171400Y0118900D03*
X0185000Y0127500D03*
X0187000Y0124300D03*
X0190000Y0122000D03*
X0198000Y0123500D03*
X0210000Y0121000D03*
X0217800Y0121500D03*
X0230800Y0127000D03*
X0224000Y0136000D03*
X0233500Y0146700D03*
X0236100Y0151700D03*
X0235500Y0158800D03*
X0238800Y0163400D03*
X0235500Y0168100D03*
X0239000Y0172000D03*
X0231000Y0172700D03*
X0225000Y0175500D03*
X0215900Y0173100D03*
X0206700Y0170100D03*
X0201900Y0173400D03*
X0198000Y0173500D03*
X0194100Y0173400D03*
X0190200Y0173500D03*
X0187000Y0166800D03*
X0198900Y0167500D03*
X0207800Y0155600D03*
X0211700Y0154500D03*
X0217600Y0154500D03*
X0219700Y0159500D03*
X0219700Y0163500D03*
X0209000Y0147300D03*
X0205900Y0142500D03*
X0198000Y0142000D03*
X0190200Y0147300D03*
X0186300Y0149600D03*
X0186900Y0155600D03*
X0174900Y0157500D03*
X0174000Y0161500D03*
X0162100Y0161400D03*
X0171500Y0150500D03*
X0175000Y0142500D03*
X0171300Y0137000D03*
X0177200Y0132500D03*
X0180000Y0138000D03*
X0188000Y0142000D03*
X0159000Y0144500D03*
X0155000Y0141500D03*
X0155000Y0147600D03*
X0159000Y0138000D03*
X0141000Y0140500D03*
X0174500Y0096500D03*
X0180000Y0096500D03*
X0177500Y0090500D03*
X0185100Y0077900D03*
X0187000Y0072500D03*
X0189000Y0067500D03*
X0183800Y0060500D03*
X0203500Y0080000D03*
X0201000Y0084000D03*
X0197000Y0101000D03*
X0223000Y0088000D03*
X0233500Y0083000D03*
X0236000Y0075500D03*
X0238500Y0069000D03*
X0249000Y0078000D03*
X0253000Y0070700D03*
X0266700Y0074700D03*
X0257100Y0086700D03*
X0248000Y0090000D03*
X0241500Y0095500D03*
X0257000Y0097500D03*
X0267000Y0127100D03*
X0246300Y0140000D03*
X0243000Y0142800D03*
X0250200Y0147000D03*
X0253000Y0150000D03*
X0256000Y0148000D03*
X0254300Y0163400D03*
X0246300Y0166000D03*
X0257700Y0177400D03*
X0278500Y0191500D03*
X0282500Y0194000D03*
X0288500Y0207000D03*
X0256500Y0244100D03*
X0245500Y0236000D03*
X0242500Y0240000D03*
X0238500Y0244000D03*
X0238000Y0227400D03*
X0230500Y0219000D03*
X0237000Y0216100D03*
X0233800Y0211000D03*
X0240000Y0210000D03*
X0240700Y0216600D03*
X0231000Y0204400D03*
X0225400Y0208000D03*
X0216300Y0208100D03*
X0214100Y0204200D03*
X0202000Y0209500D03*
X0192000Y0192000D03*
X0196000Y0185500D03*
X0210000Y0186000D03*
X0238400Y0199000D03*
X0242500Y0199000D03*
X0179500Y0186500D03*
X0197000Y0296500D03*
X0177000Y0300700D03*
X0217200Y0301400D03*
X0306500Y0147000D03*
X0310100Y0124400D03*
X0218100Y0060700D03*
X0215000Y0058500D03*
X0209500Y0065500D03*
X0120000Y0052500D03*
D47*
X0142000Y0095000D03*
X0149000Y0132500D03*
X0064500Y0184500D03*
X0041400Y0190600D03*
X0024000Y0193500D03*
X0024000Y0201000D03*
X0043500Y0108000D03*
D48*
X0161500Y0211500D03*
M02*
